{"glyphs":{"0":{"ha":663,"x_min":36,"x_max":626,"o":"m 333 -18 q 180 19 247 -18 q 74 123 113 57 q 36 271 36 189 q 74 417 36 353 q 180 518 113 482 q 333 554 247 554 q 486 517 419 554 q 590 415 553 481 q 626 268 626 350 q 589 121 626 186 q 485 19 551 56 q 333 -18 418 -18 m 347 11 q 444 74 411 11 q 476 249 476 136 q 433 457 476 389 q 322 525 389 525 q 221 460 257 525 q 185 286 185 396 q 229 87 185 163 q 347 11 274 11 z "},"1":{"ha":461,"x_min":40,"x_max":438,"o":"m 57 0 q 53 8 53 0 q 57 17 53 17 q 137 24 111 17 q 172 51 163 31 q 182 113 182 71 l 182 357 q 173 420 182 401 q 140 439 164 439 q 51 413 118 439 l 50 413 q 43 419 46 413 q 46 429 40 426 l 299 549 q 303 550 300 550 q 310 547 307 550 q 313 539 313 543 l 313 113 q 321 50 313 69 q 354 24 329 31 q 433 17 379 17 q 438 8 438 17 q 433 0 438 0 q 356 1 383 0 l 246 3 l 136 1 q 57 0 107 0 z "},"2":{"ha":558,"x_min":47,"x_max":526,"o":"m 51 38 q 228 205 172 149 q 306 301 283 261 q 329 383 329 342 q 303 473 329 435 q 228 511 276 511 q 144 466 176 511 q 78 326 111 421 q 72 325 78 325 q 61 329 60 325 l 122 567 q 128 569 122 569 q 135 567 132 569 q 138 564 139 565 q 136 547 136 557 q 157 524 136 524 q 199 533 169 524 q 308 554 258 554 q 428 518 385 554 q 471 422 471 482 q 415 291 471 350 q 260 163 358 232 l 204 121 q 202 114 200 117 q 211 111 204 111 q 378 115 322 111 q 467 134 435 119 q 510 181 500 149 q 519 185 511 185 q 526 181 526 185 l 497 15 q 494 5 497 10 q 485 0 490 0 l 60 0 q 51 8 54 0 q 47 25 47 17 q 51 38 47 33 z "},"3":{"ha":547,"x_min":38,"x_max":504,"o":"m 308 182 q 455 111 406 167 q 504 -17 504 56 q 458 -150 504 -82 q 315 -278 411 -218 q 75 -382 218 -339 q 66 -376 69 -383 q 68 -367 63 -369 q 286 -215 219 -306 q 353 -35 353 -124 q 311 97 353 47 q 199 146 269 146 q 142 138 171 146 q 135 144 138 136 q 136 154 132 153 q 278 230 233 179 q 322 372 322 281 q 301 478 322 442 q 240 515 281 515 q 134 475 182 515 q 56 358 86 435 q 50 357 56 357 q 39 363 38 357 l 90 565 q 96 568 93 568 q 104 566 100 568 q 107 563 108 564 q 104 547 104 551 q 128 524 104 524 q 175 535 144 524 q 232 549 208 544 q 286 554 256 554 q 416 508 369 554 q 463 396 463 461 q 422 270 463 329 q 308 182 381 211 z "},"4":{"ha":633,"x_min":32,"x_max":588,"o":"m 583 67 q 588 44 588 67 q 585 15 588 29 q 581 1 583 1 l 489 6 l 489 -187 q 478 -207 489 -201 l 368 -261 q 360 -264 360 -264 q 356 -253 356 -264 l 356 10 q 47 11 272 11 q 36 17 40 11 q 38 28 32 22 l 468 550 q 476 553 471 553 q 485 551 481 553 q 489 544 489 549 l 489 64 q 583 67 517 64 m 131 58 q 356 60 292 58 l 356 340 l 124 68 q 131 58 115 58 z "},"5":{"ha":568,"x_min":79,"x_max":500,"o":"m 124 272 q 409 201 318 269 q 500 13 500 132 q 458 -131 500 -67 q 328 -256 417 -196 q 94 -382 240 -317 l 93 -382 q 84 -376 88 -382 q 86 -367 81 -369 q 297 -196 236 -282 q 357 -11 357 -110 q 289 168 357 104 q 94 232 221 232 q 83 237 88 232 q 81 249 79 242 l 125 496 q 129 508 126 506 q 143 511 132 510 q 378 540 318 532 q 455 558 438 549 q 479 588 472 567 q 488 591 481 592 q 494 585 496 590 l 467 431 q 454 410 463 415 q 428 406 446 406 l 164 400 q 143 381 146 400 l 124 272 z "},"6":{"ha":646,"x_min":51,"x_max":611,"o":"m 429 400 q 565 347 519 400 q 611 221 611 293 q 572 101 611 156 q 466 14 533 46 q 319 -18 399 -18 q 124 63 196 -18 q 51 288 51 144 q 113 544 51 418 q 288 768 174 669 q 556 918 403 867 q 564 913 561 919 q 563 903 567 906 q 360 747 443 843 q 235 536 276 650 q 193 307 193 422 q 213 160 193 226 q 271 54 233 93 q 357 15 308 15 q 439 59 408 15 q 469 181 469 103 q 440 298 469 254 q 354 342 411 342 q 307 333 329 342 q 256 303 285 324 q 251 301 254 301 q 243 306 247 301 q 240 313 239 310 q 429 400 321 400 z "},"7":{"ha":596,"x_min":17,"x_max":546,"o":"m 246 -294 q 217 -328 236 -319 l 103 -382 l 101 -382 q 94 -378 97 -382 q 93 -372 92 -375 l 454 404 q 449 414 460 414 q 175 408 251 414 q 73 385 99 403 q 35 319 47 367 q 28 317 32 317 q 20 319 24 317 q 18 324 17 321 l 81 574 q 90 576 82 576 q 97 572 99 575 q 96 558 96 567 q 109 540 96 544 q 163 536 122 536 l 531 536 q 541 530 536 536 q 543 518 546 524 l 246 -294 z "},"8":{"ha":679,"x_min":51,"x_max":643,"o":"m 440 479 q 547 407 506 439 q 615 331 588 375 q 643 228 643 286 q 601 101 643 157 q 489 13 560 44 q 335 -18 418 -18 q 187 13 251 -18 q 87 97 122 44 q 51 213 51 150 q 99 351 51 286 q 228 458 146 417 q 136 622 136 533 q 169 721 136 682 q 253 778 203 760 q 357 797 304 797 q 467 776 419 797 q 540 721 515 754 q 565 653 565 688 q 530 561 565 608 q 432 485 494 514 l 440 479 m 343 768 q 281 742 304 768 q 258 678 258 717 q 297 585 258 625 q 414 494 336 544 q 447 629 447 576 q 417 729 447 690 q 343 768 386 768 m 372 13 q 476 60 438 13 q 515 172 515 107 q 492 256 515 219 q 435 319 469 293 q 343 379 400 344 l 319 394 q 258 435 290 413 q 212 351 229 400 q 194 250 194 303 q 217 133 194 188 q 281 45 240 78 q 372 13 322 13 z "},"9":{"ha":646,"x_min":36,"x_max":594,"o":"m 228 144 q 119 174 163 144 q 56 247 75 203 q 36 338 36 290 q 108 494 36 433 q 297 554 181 554 q 515 469 435 554 q 594 239 594 385 q 534 -11 594 114 q 360 -235 474 -136 q 90 -382 246 -335 q 83 -376 86 -383 q 85 -367 79 -369 q 286 -216 203 -312 q 411 -6 369 -119 q 453 214 453 107 q 435 356 453 285 q 378 476 418 428 q 278 525 339 525 q 176 372 176 525 q 206 245 176 292 q 293 199 235 199 q 341 208 318 199 q 392 242 364 218 q 396 243 393 243 q 403 239 400 243 q 406 232 407 235 q 328 167 374 189 q 228 144 282 144 z "}," ":{"ha":325,"x_min":0,"x_max":0,"o":""},"A":{"ha":994,"x_min":-11,"x_max":1003,"o":"m 996 17 q 1003 8 1003 17 q 996 0 1003 0 q 910 3 968 0 q 822 6 849 6 q 738 3 788 6 q 663 0 690 0 q 657 8 657 0 q 663 17 657 17 q 715 24 699 17 q 731 51 731 32 q 703 131 731 75 l 558 415 l 311 415 l 213 197 q 194 122 194 157 q 230 44 194 72 q 325 17 265 17 q 332 8 332 17 q 325 0 332 0 q 253 3 300 0 q 161 6 200 6 q 71 3 124 6 q -6 0 24 0 q -11 8 -11 0 q -6 17 -11 17 q 60 33 33 17 q 113 90 86 49 q 175 211 139 131 l 476 874 q 489 878 479 878 q 501 874 500 878 l 849 190 q 929 54 897 92 q 996 17 961 17 m 329 454 l 539 454 l 428 674 l 329 454 z "},"Á":{"ha":994,"x_min":-11,"x_max":1003,"o":"m 996 17 q 1003 8 1003 17 q 996 0 1003 0 q 910 3 968 0 q 822 6 849 6 q 738 3 788 6 q 663 0 690 0 q 657 8 657 0 q 663 17 657 17 q 715 24 699 17 q 731 51 731 32 q 703 131 731 75 l 558 415 l 311 415 l 213 197 q 194 122 194 157 q 230 44 194 72 q 325 17 265 17 q 332 8 332 17 q 325 0 332 0 q 253 3 300 0 q 161 6 200 6 q 71 3 124 6 q -6 0 24 0 q -11 8 -11 0 q -6 17 -11 17 q 60 33 33 17 q 113 90 86 49 q 175 211 139 131 l 476 874 q 489 878 479 878 q 501 874 500 878 l 849 190 q 929 54 897 92 q 996 17 961 17 m 329 454 l 539 454 l 428 674 l 329 454 m 354 942 q 347 948 349 942 q 350 957 346 954 q 463 1049 390 986 q 525 1101 504 1085 q 574 1097 532 1108 q 649 1069 617 1085 q 665 1050 682 1053 q 508 1003 579 1029 q 357 943 436 978 l 354 942 z "},"Ă":{"ha":994,"x_min":-11,"x_max":1003,"o":"m 996 17 q 1003 8 1003 17 q 996 0 1003 0 q 910 3 968 0 q 822 6 849 6 q 738 3 788 6 q 663 0 690 0 q 657 8 657 0 q 663 17 657 17 q 715 24 699 17 q 731 51 731 32 q 703 131 731 75 l 558 415 l 311 415 l 213 197 q 194 122 194 157 q 230 44 194 72 q 325 17 265 17 q 332 8 332 17 q 325 0 332 0 q 253 3 300 0 q 161 6 200 6 q 71 3 124 6 q -6 0 24 0 q -11 8 -11 0 q -6 17 -11 17 q 60 33 33 17 q 113 90 86 49 q 175 211 139 131 l 476 874 q 489 878 479 878 q 501 874 500 878 l 849 190 q 929 54 897 92 q 996 17 961 17 m 329 454 l 539 454 l 428 674 l 329 454 m 492 958 q 385 1003 422 958 q 349 1135 349 1049 q 356 1139 349 1139 q 364 1136 364 1139 q 401 1089 364 1111 q 492 1067 439 1067 q 581 1089 543 1067 q 618 1136 618 1111 q 626 1139 618 1139 q 633 1135 633 1139 q 597 1003 633 1049 q 492 958 561 958 z "},"Ắ":{"ha":994,"x_min":-11,"x_max":1003,"o":"m 996 17 q 1003 8 1003 17 q 996 0 1003 0 q 910 3 968 0 q 822 6 849 6 q 738 3 788 6 q 663 0 690 0 q 657 8 657 0 q 663 17 657 17 q 715 24 699 17 q 731 51 731 32 q 703 131 731 75 l 558 415 l 311 415 l 213 197 q 194 122 194 157 q 230 44 194 72 q 325 17 265 17 q 332 8 332 17 q 325 0 332 0 q 253 3 300 0 q 161 6 200 6 q 71 3 124 6 q -6 0 24 0 q -11 8 -11 0 q -6 17 -11 17 q 60 33 33 17 q 113 90 86 49 q 175 211 139 131 l 476 874 q 489 878 479 878 q 501 874 500 878 l 849 190 q 929 54 897 92 q 996 17 961 17 m 329 454 l 539 454 l 428 674 l 329 454 m 492 926 q 385 972 422 926 q 349 1101 349 1017 q 356 1107 349 1107 q 364 1103 364 1107 q 401 1056 364 1078 q 492 1033 439 1033 q 581 1056 543 1033 q 618 1103 618 1078 q 626 1107 618 1107 q 633 1101 633 1107 q 597 971 633 1015 q 492 926 561 926 m 407 1082 q 399 1088 403 1082 q 399 1097 396 1094 q 479 1242 451 1183 q 490 1246 482 1246 q 548 1234 510 1246 q 610 1209 586 1222 q 621 1190 635 1196 q 514 1144 563 1169 q 410 1083 465 1118 l 407 1082 z "},"Ặ":{"ha":994,"x_min":-11,"x_max":1003,"o":"m 996 17 q 1003 8 1003 17 q 996 0 1003 0 q 910 3 968 0 q 822 6 849 6 q 738 3 788 6 q 663 0 690 0 q 657 8 657 0 q 663 17 657 17 q 715 24 699 17 q 731 51 731 32 q 703 131 731 75 l 558 415 l 311 415 l 213 197 q 194 122 194 157 q 230 44 194 72 q 325 17 265 17 q 332 8 332 17 q 325 0 332 0 q 253 3 300 0 q 161 6 200 6 q 71 3 124 6 q -6 0 24 0 q -11 8 -11 0 q -6 17 -11 17 q 60 33 33 17 q 113 90 86 49 q 175 211 139 131 l 476 874 q 489 878 479 878 q 501 874 500 878 l 849 190 q 929 54 897 92 q 996 17 961 17 m 329 454 l 539 454 l 428 674 l 329 454 m 499 -287 q 436 -265 458 -287 q 414 -203 414 -243 q 437 -145 414 -167 q 499 -124 460 -124 q 558 -145 536 -124 q 579 -203 579 -167 q 558 -265 579 -243 q 499 -287 538 -287 m 492 958 q 385 1003 422 958 q 349 1135 349 1049 q 356 1139 349 1139 q 364 1136 364 1139 q 401 1089 364 1111 q 492 1067 439 1067 q 581 1089 543 1067 q 618 1136 618 1111 q 626 1139 618 1139 q 633 1135 633 1139 q 597 1003 633 1049 q 492 958 561 958 z "},"Ằ":{"ha":994,"x_min":-11,"x_max":1003,"o":"m 996 17 q 1003 8 1003 17 q 996 0 1003 0 q 910 3 968 0 q 822 6 849 6 q 738 3 788 6 q 663 0 690 0 q 657 8 657 0 q 663 17 657 17 q 715 24 699 17 q 731 51 731 32 q 703 131 731 75 l 558 415 l 311 415 l 213 197 q 194 122 194 157 q 230 44 194 72 q 325 17 265 17 q 332 8 332 17 q 325 0 332 0 q 253 3 300 0 q 161 6 200 6 q 71 3 124 6 q -6 0 24 0 q -11 8 -11 0 q -6 17 -11 17 q 60 33 33 17 q 113 90 86 49 q 175 211 139 131 l 476 874 q 489 878 479 878 q 501 874 500 878 l 849 190 q 929 54 897 92 q 996 17 961 17 m 329 454 l 539 454 l 428 674 l 329 454 m 492 926 q 385 972 422 926 q 349 1101 349 1017 q 356 1107 349 1107 q 364 1103 364 1107 q 401 1056 364 1078 q 492 1033 439 1033 q 581 1056 543 1033 q 618 1103 618 1078 q 626 1107 618 1107 q 633 1101 633 1107 q 597 971 633 1015 q 492 926 561 926 m 563 1083 q 461 1144 507 1119 q 357 1190 415 1168 q 367 1209 343 1196 q 428 1234 390 1222 q 486 1246 467 1246 q 497 1242 496 1246 q 526 1183 503 1231 q 574 1097 549 1136 q 575 1093 575 1096 q 572 1085 575 1089 q 563 1083 568 1082 z "},"Ẳ":{"ha":994,"x_min":-11,"x_max":1003,"o":"m 996 17 q 1003 8 1003 17 q 996 0 1003 0 q 910 3 968 0 q 822 6 849 6 q 738 3 788 6 q 663 0 690 0 q 657 8 657 0 q 663 17 657 17 q 715 24 699 17 q 731 51 731 32 q 703 131 731 75 l 558 415 l 311 415 l 213 197 q 194 122 194 157 q 230 44 194 72 q 325 17 265 17 q 332 8 332 17 q 325 0 332 0 q 253 3 300 0 q 161 6 200 6 q 71 3 124 6 q -6 0 24 0 q -11 8 -11 0 q -6 17 -11 17 q 60 33 33 17 q 113 90 86 49 q 175 211 139 131 l 476 874 q 489 878 479 878 q 501 874 500 878 l 849 190 q 929 54 897 92 q 996 17 961 17 m 329 454 l 539 454 l 428 674 l 329 454 m 492 926 q 385 972 422 926 q 349 1101 349 1017 q 356 1107 349 1107 q 364 1103 364 1107 q 401 1056 364 1078 q 492 1033 439 1033 q 581 1056 543 1033 q 618 1103 618 1078 q 626 1107 618 1107 q 633 1101 633 1107 q 597 971 633 1015 q 492 926 561 926 m 476 1074 q 474 1093 474 1088 q 488 1146 474 1113 q 500 1194 500 1181 q 488 1227 500 1217 q 458 1238 475 1238 q 433 1233 443 1238 l 431 1232 q 424 1237 426 1232 q 424 1244 421 1242 q 508 1269 464 1269 q 565 1252 543 1269 q 586 1210 586 1235 q 574 1174 586 1190 q 536 1136 561 1158 q 503 1104 514 1118 q 492 1074 492 1090 q 485 1070 492 1071 q 476 1074 478 1069 z "},"Ẵ":{"ha":994,"x_min":-11,"x_max":1003,"o":"m 996 17 q 1003 8 1003 17 q 996 0 1003 0 q 910 3 968 0 q 822 6 849 6 q 738 3 788 6 q 663 0 690 0 q 657 8 657 0 q 663 17 657 17 q 715 24 699 17 q 731 51 731 32 q 703 131 731 75 l 558 415 l 311 415 l 213 197 q 194 122 194 157 q 230 44 194 72 q 325 17 265 17 q 332 8 332 17 q 325 0 332 0 q 253 3 300 0 q 161 6 200 6 q 71 3 124 6 q -6 0 24 0 q -11 8 -11 0 q -6 17 -11 17 q 60 33 33 17 q 113 90 86 49 q 175 211 139 131 l 476 874 q 489 878 479 878 q 501 874 500 878 l 849 190 q 929 54 897 92 q 996 17 961 17 m 329 454 l 539 454 l 428 674 l 329 454 m 492 931 q 385 976 422 931 q 349 1107 349 1021 q 356 1111 349 1111 q 364 1108 364 1111 q 401 1061 364 1083 q 492 1039 439 1039 q 581 1061 543 1039 q 618 1108 618 1083 q 626 1111 618 1111 q 633 1107 633 1111 q 597 976 633 1021 q 492 931 561 931 m 599 1215 q 637 1224 622 1215 q 669 1253 651 1232 l 672 1254 q 678 1250 675 1254 q 679 1243 681 1246 q 619 1154 642 1176 q 564 1132 596 1132 q 486 1147 538 1132 q 438 1160 463 1154 q 390 1165 413 1165 q 353 1158 364 1165 q 319 1128 342 1151 l 318 1128 q 310 1131 314 1128 q 310 1138 307 1135 q 431 1250 372 1250 q 496 1236 446 1250 q 549 1222 521 1228 q 599 1215 576 1215 z "},"Ǎ":{"ha":994,"x_min":-11,"x_max":1003,"o":"m 996 17 q 1003 8 1003 17 q 996 0 1003 0 q 910 3 968 0 q 822 6 849 6 q 738 3 788 6 q 663 0 690 0 q 657 8 657 0 q 663 17 657 17 q 715 24 699 17 q 731 51 731 32 q 703 131 731 75 l 558 415 l 311 415 l 213 197 q 194 122 194 157 q 230 44 194 72 q 325 17 265 17 q 332 8 332 17 q 325 0 332 0 q 253 3 300 0 q 161 6 200 6 q 71 3 124 6 q -6 0 24 0 q -11 8 -11 0 q -6 17 -11 17 q 60 33 33 17 q 113 90 86 49 q 175 211 139 131 l 476 874 q 489 878 479 878 q 501 874 500 878 l 849 190 q 929 54 897 92 q 996 17 961 17 m 329 454 l 539 454 l 428 674 l 329 454 m 332 1114 l 332 1117 q 335 1122 332 1119 q 340 1124 339 1125 l 492 1071 l 642 1126 l 643 1126 q 649 1123 647 1126 q 649 1117 651 1119 l 507 954 q 492 949 501 949 q 475 954 481 949 l 332 1114 z "},"Â":{"ha":994,"x_min":-11,"x_max":1003,"o":"m 996 17 q 1003 8 1003 17 q 996 0 1003 0 q 910 3 968 0 q 822 6 849 6 q 738 3 788 6 q 663 0 690 0 q 657 8 657 0 q 663 17 657 17 q 715 24 699 17 q 731 51 731 32 q 703 131 731 75 l 558 415 l 311 415 l 213 197 q 194 122 194 157 q 230 44 194 72 q 325 17 265 17 q 332 8 332 17 q 325 0 332 0 q 253 3 300 0 q 161 6 200 6 q 71 3 124 6 q -6 0 24 0 q -11 8 -11 0 q -6 17 -11 17 q 60 33 33 17 q 113 90 86 49 q 175 211 139 131 l 476 874 q 489 878 479 878 q 501 874 500 878 l 849 190 q 929 54 897 92 q 996 17 961 17 m 329 454 l 539 454 l 428 674 l 329 454 m 475 1071 q 490 1078 482 1078 q 507 1071 500 1078 l 649 910 q 650 907 650 910 q 647 901 650 904 q 642 900 643 899 l 492 954 l 340 900 q 333 903 338 899 q 332 910 329 908 l 475 1071 z "},"Ấ":{"ha":994,"x_min":-11,"x_max":1003,"o":"m 996 17 q 1003 8 1003 17 q 996 0 1003 0 q 910 3 968 0 q 822 6 849 6 q 738 3 788 6 q 663 0 690 0 q 657 8 657 0 q 663 17 657 17 q 715 24 699 17 q 731 51 731 32 q 703 131 731 75 l 558 415 l 311 415 l 213 197 q 194 122 194 157 q 230 44 194 72 q 325 17 265 17 q 332 8 332 17 q 325 0 332 0 q 253 3 300 0 q 161 6 200 6 q 71 3 124 6 q -6 0 24 0 q -11 8 -11 0 q -6 17 -11 17 q 60 33 33 17 q 113 90 86 49 q 175 211 139 131 l 476 874 q 489 878 479 878 q 501 874 500 878 l 849 190 q 929 54 897 92 q 996 17 961 17 m 329 454 l 539 454 l 428 674 l 329 454 m 475 1071 q 490 1078 482 1078 q 507 1071 500 1078 l 649 910 q 650 907 650 910 q 647 901 650 904 q 642 900 643 899 l 492 954 l 340 900 q 333 903 338 899 q 332 910 329 908 l 475 1071 m 579 1038 q 572 1044 575 1038 q 571 1053 568 1050 q 651 1197 624 1139 q 663 1201 654 1201 q 720 1190 682 1201 q 783 1165 758 1178 q 793 1146 807 1151 q 686 1099 735 1125 q 582 1039 638 1074 l 579 1038 z "},"Ậ":{"ha":994,"x_min":-11,"x_max":1003,"o":"m 996 17 q 1003 8 1003 17 q 996 0 1003 0 q 910 3 968 0 q 822 6 849 6 q 738 3 788 6 q 663 0 690 0 q 657 8 657 0 q 663 17 657 17 q 715 24 699 17 q 731 51 731 32 q 703 131 731 75 l 558 415 l 311 415 l 213 197 q 194 122 194 157 q 230 44 194 72 q 325 17 265 17 q 332 8 332 17 q 325 0 332 0 q 253 3 300 0 q 161 6 200 6 q 71 3 124 6 q -6 0 24 0 q -11 8 -11 0 q -6 17 -11 17 q 60 33 33 17 q 113 90 86 49 q 175 211 139 131 l 476 874 q 489 878 479 878 q 501 874 500 878 l 849 190 q 929 54 897 92 q 996 17 961 17 m 329 454 l 539 454 l 428 674 l 329 454 m 499 -287 q 436 -265 458 -287 q 414 -203 414 -243 q 437 -145 414 -167 q 499 -124 460 -124 q 558 -145 536 -124 q 579 -203 579 -167 q 558 -265 579 -243 q 499 -287 538 -287 m 475 1071 q 490 1078 482 1078 q 507 1071 500 1078 l 649 910 q 650 907 650 910 q 647 901 650 904 q 642 900 643 899 l 492 954 l 340 900 q 333 903 338 899 q 332 910 329 908 l 475 1071 z "},"Ầ":{"ha":994,"x_min":-11,"x_max":1003,"o":"m 996 17 q 1003 8 1003 17 q 996 0 1003 0 q 910 3 968 0 q 822 6 849 6 q 738 3 788 6 q 663 0 690 0 q 657 8 657 0 q 663 17 657 17 q 715 24 699 17 q 731 51 731 32 q 703 131 731 75 l 558 415 l 311 415 l 213 197 q 194 122 194 157 q 230 44 194 72 q 325 17 265 17 q 332 8 332 17 q 325 0 332 0 q 253 3 300 0 q 161 6 200 6 q 71 3 124 6 q -6 0 24 0 q -11 8 -11 0 q -6 17 -11 17 q 60 33 33 17 q 113 90 86 49 q 175 211 139 131 l 476 874 q 489 878 479 878 q 501 874 500 878 l 849 190 q 929 54 897 92 q 996 17 961 17 m 329 454 l 539 454 l 428 674 l 329 454 m 475 1071 q 490 1078 482 1078 q 507 1071 500 1078 l 649 910 q 650 907 650 910 q 647 901 650 904 q 642 900 643 899 l 492 954 l 340 900 q 333 903 338 899 q 332 910 329 908 l 475 1071 m 704 1011 q 603 1072 649 1047 q 499 1118 557 1096 q 508 1137 485 1124 q 570 1162 532 1150 q 628 1174 608 1174 q 639 1169 638 1174 q 667 1111 644 1158 q 715 1025 690 1064 q 717 1021 717 1024 q 713 1013 717 1017 q 704 1011 710 1010 z "},"Ẩ":{"ha":994,"x_min":-11,"x_max":1003,"o":"m 996 17 q 1003 8 1003 17 q 996 0 1003 0 q 910 3 968 0 q 822 6 849 6 q 738 3 788 6 q 663 0 690 0 q 657 8 657 0 q 663 17 657 17 q 715 24 699 17 q 731 51 731 32 q 703 131 731 75 l 558 415 l 311 415 l 213 197 q 194 122 194 157 q 230 44 194 72 q 325 17 265 17 q 332 8 332 17 q 325 0 332 0 q 253 3 300 0 q 161 6 200 6 q 71 3 124 6 q -6 0 24 0 q -11 8 -11 0 q -6 17 -11 17 q 60 33 33 17 q 113 90 86 49 q 175 211 139 131 l 476 874 q 489 878 479 878 q 501 874 500 878 l 849 190 q 929 54 897 92 q 996 17 961 17 m 329 454 l 539 454 l 428 674 l 329 454 m 475 1071 q 490 1078 482 1078 q 507 1071 500 1078 l 649 910 q 650 907 650 910 q 647 901 650 904 q 642 900 643 899 l 492 954 l 340 900 q 333 903 338 899 q 332 910 329 908 l 475 1071 m 615 1013 q 613 1032 613 1026 q 626 1085 613 1051 q 639 1133 639 1119 q 626 1166 639 1156 q 597 1176 614 1176 q 572 1172 582 1176 l 569 1171 q 563 1176 565 1171 q 563 1183 560 1181 q 647 1208 603 1208 q 703 1191 682 1208 q 725 1149 725 1174 q 713 1113 725 1129 q 675 1075 700 1097 q 642 1043 653 1057 q 631 1013 631 1029 q 624 1009 631 1010 q 615 1013 617 1008 z "},"Ẫ":{"ha":994,"x_min":-11,"x_max":1003,"o":"m 996 17 q 1003 8 1003 17 q 996 0 1003 0 q 910 3 968 0 q 822 6 849 6 q 738 3 788 6 q 663 0 690 0 q 657 8 657 0 q 663 17 657 17 q 715 24 699 17 q 731 51 731 32 q 703 131 731 75 l 558 415 l 311 415 l 213 197 q 194 122 194 157 q 230 44 194 72 q 325 17 265 17 q 332 8 332 17 q 325 0 332 0 q 253 3 300 0 q 161 6 200 6 q 71 3 124 6 q -6 0 24 0 q -11 8 -11 0 q -6 17 -11 17 q 60 33 33 17 q 113 90 86 49 q 175 211 139 131 l 476 874 q 489 878 479 878 q 501 874 500 878 l 849 190 q 929 54 897 92 q 996 17 961 17 m 329 454 l 539 454 l 428 674 l 329 454 m 475 1071 q 490 1078 482 1078 q 507 1071 500 1078 l 649 910 q 650 907 650 910 q 647 901 650 904 q 642 900 643 899 l 492 954 l 340 900 q 333 903 338 899 q 332 910 329 908 l 475 1071 m 607 1185 q 645 1193 631 1185 q 678 1222 660 1201 l 681 1224 q 686 1219 683 1224 q 688 1213 689 1215 q 627 1124 650 1146 q 572 1101 604 1101 q 494 1117 546 1101 q 446 1129 471 1124 q 399 1135 421 1135 q 361 1128 372 1135 q 328 1097 350 1121 l 326 1097 q 319 1101 322 1097 q 318 1107 315 1104 q 439 1219 381 1219 q 504 1206 454 1219 q 557 1191 529 1197 q 607 1185 585 1185 z "},"Ä":{"ha":994,"x_min":-11,"x_max":1003,"o":"m 996 17 q 1003 8 1003 17 q 996 0 1003 0 q 910 3 968 0 q 822 6 849 6 q 738 3 788 6 q 663 0 690 0 q 657 8 657 0 q 663 17 657 17 q 715 24 699 17 q 731 51 731 32 q 703 131 731 75 l 558 415 l 311 415 l 213 197 q 194 122 194 157 q 230 44 194 72 q 325 17 265 17 q 332 8 332 17 q 325 0 332 0 q 253 3 300 0 q 161 6 200 6 q 71 3 124 6 q -6 0 24 0 q -11 8 -11 0 q -6 17 -11 17 q 60 33 33 17 q 113 90 86 49 q 175 211 139 131 l 476 874 q 489 878 479 878 q 501 874 500 878 l 849 190 q 929 54 897 92 q 996 17 961 17 m 329 454 l 539 454 l 428 674 l 329 454 m 372 976 q 316 997 336 976 q 296 1053 296 1017 q 317 1106 296 1086 q 372 1125 338 1125 q 426 1106 407 1125 q 444 1053 444 1086 q 426 997 444 1017 q 372 976 407 976 m 614 976 q 558 997 578 976 q 539 1053 539 1017 q 559 1105 539 1086 q 614 1124 579 1124 q 667 1105 649 1124 q 686 1053 686 1086 q 667 997 686 1017 q 614 976 649 976 z "},"Ạ":{"ha":994,"x_min":-11,"x_max":1003,"o":"m 996 17 q 1003 8 1003 17 q 996 0 1003 0 q 910 3 968 0 q 822 6 849 6 q 738 3 788 6 q 663 0 690 0 q 657 8 657 0 q 663 17 657 17 q 715 24 699 17 q 731 51 731 32 q 703 131 731 75 l 558 415 l 311 415 l 213 197 q 194 122 194 157 q 230 44 194 72 q 325 17 265 17 q 332 8 332 17 q 325 0 332 0 q 253 3 300 0 q 161 6 200 6 q 71 3 124 6 q -6 0 24 0 q -11 8 -11 0 q -6 17 -11 17 q 60 33 33 17 q 113 90 86 49 q 175 211 139 131 l 476 874 q 489 878 479 878 q 501 874 500 878 l 849 190 q 929 54 897 92 q 996 17 961 17 m 329 454 l 539 454 l 428 674 l 329 454 m 499 -287 q 436 -265 458 -287 q 414 -203 414 -243 q 437 -145 414 -167 q 499 -124 460 -124 q 558 -145 536 -124 q 579 -203 579 -167 q 558 -265 579 -243 q 499 -287 538 -287 z "},"À":{"ha":994,"x_min":-11,"x_max":1003,"o":"m 996 17 q 1003 8 1003 17 q 996 0 1003 0 q 910 3 968 0 q 822 6 849 6 q 738 3 788 6 q 663 0 690 0 q 657 8 657 0 q 663 17 657 17 q 715 24 699 17 q 731 51 731 32 q 703 131 731 75 l 558 415 l 311 415 l 213 197 q 194 122 194 157 q 230 44 194 72 q 325 17 265 17 q 332 8 332 17 q 325 0 332 0 q 253 3 300 0 q 161 6 200 6 q 71 3 124 6 q -6 0 24 0 q -11 8 -11 0 q -6 17 -11 17 q 60 33 33 17 q 113 90 86 49 q 175 211 139 131 l 476 874 q 489 878 479 878 q 501 874 500 878 l 849 190 q 929 54 897 92 q 996 17 961 17 m 329 454 l 539 454 l 428 674 l 329 454 m 631 943 q 322 1050 475 1013 q 338 1069 306 1053 q 413 1097 371 1085 q 463 1101 456 1108 l 528 1046 q 636 957 589 993 q 640 951 640 956 q 638 944 640 947 q 631 943 635 942 z "},"Ả":{"ha":994,"x_min":-11,"x_max":1003,"o":"m 996 17 q 1003 8 1003 17 q 996 0 1003 0 q 910 3 968 0 q 822 6 849 6 q 738 3 788 6 q 663 0 690 0 q 657 8 657 0 q 663 17 657 17 q 715 24 699 17 q 731 51 731 32 q 703 131 731 75 l 558 415 l 311 415 l 213 197 q 194 122 194 157 q 230 44 194 72 q 325 17 265 17 q 332 8 332 17 q 325 0 332 0 q 253 3 300 0 q 161 6 200 6 q 71 3 124 6 q -6 0 24 0 q -11 8 -11 0 q -6 17 -11 17 q 60 33 33 17 q 113 90 86 49 q 175 211 139 131 l 476 874 q 489 878 479 878 q 501 874 500 878 l 849 190 q 929 54 897 92 q 996 17 961 17 m 329 454 l 539 454 l 428 674 l 329 454 m 493 904 q 485 901 493 901 q 476 904 478 901 q 474 935 474 926 q 494 1021 474 974 q 504 1048 496 1025 q 513 1096 513 1071 q 474 1146 513 1146 q 424 1132 454 1146 l 421 1132 q 413 1136 417 1132 q 414 1143 410 1140 q 528 1182 461 1182 q 599 1163 572 1182 q 625 1110 625 1143 q 607 1056 625 1081 q 553 996 589 1032 q 507 944 521 963 q 493 904 493 925 z "},"Ā":{"ha":994,"x_min":-11,"x_max":1003,"o":"m 996 17 q 1003 8 1003 17 q 996 0 1003 0 q 910 3 968 0 q 822 6 849 6 q 738 3 788 6 q 663 0 690 0 q 657 8 657 0 q 663 17 657 17 q 715 24 699 17 q 731 51 731 32 q 703 131 731 75 l 558 415 l 311 415 l 213 197 q 194 122 194 157 q 230 44 194 72 q 325 17 265 17 q 332 8 332 17 q 325 0 332 0 q 253 3 300 0 q 161 6 200 6 q 71 3 124 6 q -6 0 24 0 q -11 8 -11 0 q -6 17 -11 17 q 60 33 33 17 q 113 90 86 49 q 175 211 139 131 l 476 874 q 489 878 479 878 q 501 874 500 878 l 849 190 q 929 54 897 92 q 996 17 961 17 m 329 454 l 539 454 l 428 674 l 329 454 m 317 990 q 307 998 311 990 q 303 1017 303 1006 q 307 1034 303 1026 q 317 1042 311 1042 l 665 1042 q 676 1034 672 1042 q 681 1017 681 1026 q 676 998 681 1006 q 665 990 672 990 l 317 990 z "},"Ą":{"ha":994,"x_min":-11,"x_max":1003,"o":"m 996 13 q 1003 5 1003 13 q 996 -3 1003 -3 q 908 0 961 -3 l 840 1 q 735 -41 771 1 q 700 -160 700 -83 q 734 -280 700 -236 q 818 -324 768 -324 q 878 -308 850 -324 l 879 -308 q 887 -312 883 -308 q 888 -319 890 -317 q 813 -367 850 -353 q 732 -382 775 -382 q 612 -340 656 -382 q 568 -233 568 -299 q 590 -152 568 -185 q 654 -81 613 -119 q 710 -19 692 -44 q 728 43 728 7 q 703 131 728 82 l 558 415 l 313 415 l 213 197 q 194 122 194 157 q 230 44 194 72 q 325 17 265 17 q 332 8 332 17 q 325 0 332 0 q 253 3 300 0 q 161 6 200 6 q 71 3 124 6 q -6 0 24 0 q -11 8 -11 0 q -6 17 -11 17 q 60 33 33 17 q 113 90 88 49 q 174 211 139 131 l 476 874 q 489 878 479 878 q 501 874 500 878 l 849 190 q 930 54 896 96 q 996 13 964 13 m 329 454 l 539 454 l 429 672 l 329 454 z "},"Å":{"ha":994,"x_min":-11,"x_max":1003,"o":"m 996 17 q 1003 8 1003 17 q 996 0 1003 0 q 910 3 968 0 q 822 6 849 6 q 738 3 788 6 q 663 0 690 0 q 657 8 657 0 q 663 17 657 17 q 715 24 699 17 q 731 51 731 32 q 703 131 731 75 l 558 415 l 311 415 l 213 197 q 194 122 194 157 q 230 44 194 72 q 325 17 265 17 q 332 8 332 17 q 325 0 332 0 q 253 3 300 0 q 161 6 200 6 q 71 3 124 6 q -6 0 24 0 q -11 8 -11 0 q -6 17 -11 17 q 60 33 33 17 q 113 90 86 49 q 175 211 139 131 l 476 874 q 489 878 479 878 q 501 874 500 878 l 849 190 q 929 54 897 92 q 996 17 961 17 m 329 454 l 539 454 l 428 674 l 329 454 m 481 917 q 372 949 413 917 q 332 1026 332 982 q 381 1105 332 1076 q 493 1133 431 1133 q 597 1101 554 1133 q 640 1024 640 1069 q 592 946 640 975 q 481 917 543 917 m 501 936 q 539 999 539 936 q 517 1080 539 1046 q 465 1114 496 1114 q 433 1054 433 1114 q 451 972 433 1008 q 501 936 469 936 z "},"Ǻ":{"ha":994,"x_min":-11,"x_max":1003,"o":"m 996 17 q 1003 8 1003 17 q 996 0 1003 0 q 910 3 968 0 q 822 6 849 6 q 738 3 788 6 q 663 0 690 0 q 657 8 657 0 q 663 17 657 17 q 715 24 699 17 q 731 51 731 32 q 703 131 731 75 l 558 415 l 311 415 l 213 197 q 194 122 194 157 q 230 44 194 72 q 325 17 265 17 q 332 8 332 17 q 325 0 332 0 q 253 3 300 0 q 161 6 200 6 q 71 3 124 6 q -6 0 24 0 q -11 8 -11 0 q -6 17 -11 17 q 60 33 33 17 q 113 90 86 49 q 175 211 139 131 l 476 874 q 489 878 479 878 q 501 874 500 878 l 849 190 q 929 54 897 92 q 996 17 961 17 m 329 454 l 539 454 l 428 674 l 329 454 m 363 1143 q 356 1149 358 1143 q 358 1157 354 1156 l 540 1253 q 578 1240 547 1257 q 635 1204 610 1224 q 650 1185 660 1185 q 365 1143 526 1171 l 363 1143 m 482 938 q 388 965 424 938 q 351 1032 351 993 q 396 1099 351 1074 q 496 1124 440 1124 q 599 1096 556 1124 q 643 1029 643 1068 q 594 963 643 988 q 482 938 546 938 m 504 957 q 540 1004 540 957 q 522 1075 540 1046 q 472 1104 503 1104 q 445 1092 456 1104 q 435 1060 435 1081 q 453 989 435 1021 q 504 957 472 957 z "},"Ã":{"ha":994,"x_min":-11,"x_max":1003,"o":"m 996 17 q 1003 8 1003 17 q 996 0 1003 0 q 910 3 968 0 q 822 6 849 6 q 738 3 788 6 q 663 0 690 0 q 657 8 657 0 q 663 17 657 17 q 715 24 699 17 q 731 51 731 32 q 703 131 731 75 l 558 415 l 311 415 l 213 197 q 194 122 194 157 q 230 44 194 72 q 325 17 265 17 q 332 8 332 17 q 325 0 332 0 q 253 3 300 0 q 161 6 200 6 q 71 3 124 6 q -6 0 24 0 q -11 8 -11 0 q -6 17 -11 17 q 60 33 33 17 q 113 90 86 49 q 175 211 139 131 l 476 874 q 489 878 479 878 q 501 874 500 878 l 849 190 q 929 54 897 92 q 996 17 961 17 m 329 454 l 539 454 l 428 674 l 329 454 m 604 1057 q 642 1065 628 1057 q 675 1094 657 1074 l 676 1094 q 684 1091 681 1094 q 685 1085 688 1088 q 624 995 649 1018 q 569 972 600 972 q 492 988 543 972 q 455 997 486 989 q 396 1006 424 1006 q 358 999 369 1006 q 325 968 347 992 l 324 968 q 316 972 319 968 q 314 978 313 975 q 370 1058 340 1025 q 436 1090 400 1090 q 500 1076 450 1090 q 542 1066 508 1075 q 604 1057 575 1057 z "},"Æ":{"ha":1233,"x_min":-17,"x_max":1171,"o":"m 1156 221 q 1160 224 1156 224 q 1167 222 1164 224 q 1171 218 1171 221 q 1158 21 1158 96 q 1153 5 1158 10 q 1138 0 1149 0 l 531 0 q 528 8 528 0 q 531 17 528 17 q 595 24 575 17 q 623 51 615 31 q 631 113 631 71 l 631 432 l 422 432 l 269 192 q 233 92 233 136 q 260 36 233 56 q 336 17 286 17 q 343 8 343 17 q 336 0 343 0 q 251 3 307 0 q 140 6 188 6 q 58 3 106 6 q -10 0 17 0 q -17 8 -17 0 q -10 17 -17 17 q 97 54 49 17 q 204 183 144 92 l 604 797 q 622 832 622 822 q 599 848 622 844 q 515 851 576 851 q 511 860 511 851 q 515 868 511 868 l 1113 868 q 1126 856 1126 868 l 1129 671 q 1122 667 1129 668 q 1113 669 1114 665 q 1075 739 1104 701 q 1003 802 1046 776 q 914 828 961 828 l 856 828 q 796 810 815 828 q 776 754 776 792 l 776 471 l 892 471 q 1015 499 972 471 q 1057 576 1057 526 q 1065 581 1057 581 q 1074 576 1074 581 l 1072 451 q 1074 385 1072 407 l 1075 310 q 1067 307 1075 307 q 1060 310 1060 307 q 1016 399 1060 367 q 890 432 972 432 l 776 432 l 776 118 q 792 58 776 78 q 840 39 807 39 l 901 39 q 1006 64 953 39 q 1100 131 1060 89 q 1156 221 1140 174 m 447 471 l 631 471 l 631 760 l 447 471 z "},"Ǽ":{"ha":1233,"x_min":-17,"x_max":1171,"o":"m 1156 221 q 1160 224 1156 224 q 1167 222 1164 224 q 1171 218 1171 221 q 1158 21 1158 96 q 1153 5 1158 10 q 1138 0 1149 0 l 531 0 q 528 8 528 0 q 531 17 528 17 q 595 24 575 17 q 623 51 615 31 q 631 113 631 71 l 631 432 l 422 432 l 269 192 q 233 92 233 136 q 260 36 233 56 q 336 17 286 17 q 343 8 343 17 q 336 0 343 0 q 251 3 307 0 q 140 6 188 6 q 58 3 106 6 q -10 0 17 0 q -17 8 -17 0 q -10 17 -17 17 q 97 54 49 17 q 204 183 144 92 l 604 797 q 622 832 622 822 q 599 848 622 844 q 515 851 576 851 q 511 860 511 851 q 515 868 511 868 l 1113 868 q 1126 856 1126 868 l 1129 671 q 1122 667 1129 668 q 1113 669 1114 665 q 1075 739 1104 701 q 1003 802 1046 776 q 914 828 961 828 l 856 828 q 796 810 815 828 q 776 754 776 792 l 776 471 l 892 471 q 1015 499 972 471 q 1057 576 1057 526 q 1065 581 1057 581 q 1074 576 1074 581 l 1072 451 q 1074 385 1072 407 l 1075 310 q 1067 307 1075 307 q 1060 310 1060 307 q 1016 399 1060 367 q 890 432 972 432 l 776 432 l 776 118 q 792 58 776 78 q 840 39 807 39 l 901 39 q 1006 64 953 39 q 1100 131 1060 89 q 1156 221 1140 174 m 447 471 l 631 471 l 631 760 l 447 471 m 667 942 q 660 948 661 942 q 663 957 658 954 q 775 1049 703 986 q 838 1101 817 1085 q 887 1097 844 1108 q 962 1069 929 1085 q 978 1050 994 1053 q 820 1003 892 1029 q 669 943 749 978 l 667 942 z "},"Ǣ":{"ha":1233,"x_min":-17,"x_max":1171,"o":"m 1156 221 q 1160 224 1156 224 q 1167 222 1164 224 q 1171 218 1171 221 q 1158 21 1158 96 q 1153 5 1158 10 q 1138 0 1149 0 l 531 0 q 528 8 528 0 q 531 17 528 17 q 595 24 575 17 q 623 51 615 31 q 631 113 631 71 l 631 432 l 422 432 l 269 192 q 233 92 233 136 q 260 36 233 56 q 336 17 286 17 q 343 8 343 17 q 336 0 343 0 q 251 3 307 0 q 140 6 188 6 q 58 3 106 6 q -10 0 17 0 q -17 8 -17 0 q -10 17 -17 17 q 97 54 49 17 q 204 183 144 92 l 604 797 q 622 832 622 822 q 599 848 622 844 q 515 851 576 851 q 511 860 511 851 q 515 868 511 868 l 1113 868 q 1126 856 1126 868 l 1129 671 q 1122 667 1129 668 q 1113 669 1114 665 q 1075 739 1104 701 q 1003 802 1046 776 q 914 828 961 828 l 856 828 q 796 810 815 828 q 776 754 776 792 l 776 471 l 892 471 q 1015 499 972 471 q 1057 576 1057 526 q 1065 581 1057 581 q 1074 576 1074 581 l 1072 451 q 1074 385 1072 407 l 1075 310 q 1067 307 1075 307 q 1060 310 1060 307 q 1016 399 1060 367 q 890 432 972 432 l 776 432 l 776 118 q 792 58 776 78 q 840 39 807 39 l 901 39 q 1006 64 953 39 q 1100 131 1060 89 q 1156 221 1140 174 m 447 471 l 631 471 l 631 760 l 447 471 m 629 990 q 619 998 624 990 q 615 1017 615 1006 q 619 1034 615 1026 q 629 1042 624 1042 l 978 1042 q 989 1034 985 1042 q 993 1017 993 1026 q 989 998 993 1006 q 978 990 985 990 l 629 990 z "},"B":{"ha":826,"x_min":53,"x_max":754,"o":"m 500 488 q 685 410 617 474 q 754 251 754 346 q 713 121 754 179 q 597 28 671 63 q 433 -6 524 -6 q 344 -1 394 -6 q 297 1 325 0 q 233 3 268 3 l 132 1 q 57 0 104 0 q 53 8 53 0 q 57 17 53 17 q 118 24 97 17 q 148 52 139 32 q 157 113 157 72 l 157 756 q 138 833 157 814 q 58 851 118 851 q 56 860 56 851 q 58 868 56 868 l 132 867 q 233 864 196 864 q 314 868 272 864 q 356 871 328 869 q 404 872 383 872 q 600 826 531 872 q 669 693 669 781 q 626 572 669 626 q 500 488 582 518 m 383 842 q 328 823 343 842 q 313 753 313 804 l 313 489 l 368 488 q 479 542 440 488 q 518 681 518 596 q 483 801 518 760 q 383 842 449 842 m 410 29 q 592 218 592 29 q 540 388 592 325 q 385 450 489 450 q 313 447 344 450 l 313 113 q 331 48 313 67 q 410 29 349 29 z "},"C":{"ha":929,"x_min":68,"x_max":869,"o":"m 585 883 q 713 873 646 883 q 817 846 779 863 q 833 835 829 842 q 839 814 836 829 l 856 621 q 849 615 856 617 q 840 619 842 614 q 714 789 793 729 q 531 849 635 849 q 318 747 393 849 q 243 475 243 646 q 284 242 243 347 q 399 74 325 136 q 568 13 474 13 q 727 72 657 13 q 853 251 797 131 q 862 256 854 257 q 869 250 869 254 l 849 61 q 842 40 846 44 q 826 29 839 35 q 572 -17 703 -17 q 289 51 403 -17 q 122 222 175 118 q 68 438 68 325 q 140 671 68 569 q 330 828 211 772 q 585 883 449 883 z "},"Ć":{"ha":929,"x_min":68,"x_max":869,"o":"m 585 883 q 713 873 646 883 q 817 846 779 863 q 833 835 829 842 q 839 814 836 829 l 856 621 q 849 615 856 617 q 840 619 842 614 q 714 789 793 729 q 531 849 635 849 q 318 747 393 849 q 243 475 243 646 q 284 242 243 347 q 399 74 325 136 q 568 13 474 13 q 727 72 657 13 q 853 251 797 131 q 862 256 854 257 q 869 250 869 254 l 849 61 q 842 40 846 44 q 826 29 839 35 q 572 -17 703 -17 q 289 51 403 -17 q 122 222 175 118 q 68 438 68 325 q 140 671 68 569 q 330 828 211 772 q 585 883 449 883 m 389 942 q 382 948 383 942 q 385 957 381 954 q 497 1049 425 986 q 560 1101 539 1085 q 609 1097 567 1108 q 684 1069 651 1085 q 700 1050 717 1053 q 542 1003 614 1029 q 392 943 471 978 l 389 942 z "},"Č":{"ha":929,"x_min":68,"x_max":869,"o":"m 585 883 q 713 873 646 883 q 817 846 779 863 q 833 835 829 842 q 839 814 836 829 l 856 621 q 849 615 856 617 q 840 619 842 614 q 714 789 793 729 q 531 849 635 849 q 318 747 393 849 q 243 475 243 646 q 284 242 243 347 q 399 74 325 136 q 568 13 474 13 q 727 72 657 13 q 853 251 797 131 q 862 256 854 257 q 869 250 869 254 l 849 61 q 842 40 846 44 q 826 29 839 35 q 572 -17 703 -17 q 289 51 403 -17 q 122 222 175 118 q 68 438 68 325 q 140 671 68 569 q 330 828 211 772 q 585 883 449 883 m 367 1114 l 367 1117 q 370 1122 367 1119 q 375 1124 374 1125 l 526 1071 l 676 1126 l 678 1126 q 684 1123 682 1126 q 683 1117 686 1119 l 542 954 q 526 949 536 949 q 510 954 515 949 l 367 1114 z "},"Ç":{"ha":929,"x_min":68,"x_max":869,"o":"m 853 251 q 862 256 854 257 q 869 250 869 254 l 849 61 q 842 40 846 44 q 826 29 839 35 q 572 -17 703 -17 l 549 -17 q 546 -46 546 -36 q 559 -92 546 -72 q 601 -128 572 -111 q 658 -174 638 -150 q 678 -236 678 -199 q 635 -338 678 -294 q 508 -382 593 -382 q 404 -315 404 -382 q 421 -278 404 -294 q 460 -261 438 -261 q 497 -273 486 -261 q 515 -307 508 -285 q 531 -338 522 -328 q 564 -349 540 -349 q 594 -315 594 -349 q 569 -250 594 -279 q 479 -185 543 -221 q 467 -168 467 -181 q 472 -146 467 -158 q 522 -15 497 -85 q 267 64 369 -4 q 117 232 165 132 q 68 438 68 332 q 140 671 68 569 q 330 828 211 772 q 585 883 449 883 q 713 873 646 883 q 817 846 779 863 q 833 835 829 842 q 839 814 836 829 l 856 621 q 849 615 856 617 q 840 619 842 614 q 714 789 793 729 q 531 849 635 849 q 318 747 393 849 q 243 475 243 646 q 284 242 243 347 q 399 74 325 136 q 568 13 474 13 q 727 72 657 13 q 853 251 797 131 z "},"Ĉ":{"ha":929,"x_min":68,"x_max":869,"o":"m 585 883 q 713 873 646 883 q 817 846 779 863 q 833 835 829 842 q 839 814 836 829 l 856 621 q 849 615 856 617 q 840 619 842 614 q 714 789 793 729 q 531 849 635 849 q 318 747 393 849 q 243 475 243 646 q 284 242 243 347 q 399 74 325 136 q 568 13 474 13 q 727 72 657 13 q 853 251 797 131 q 862 256 854 257 q 869 250 869 254 l 849 61 q 842 40 846 44 q 826 29 839 35 q 572 -17 703 -17 q 289 51 403 -17 q 122 222 175 118 q 68 438 68 325 q 140 671 68 569 q 330 828 211 772 q 585 883 449 883 m 511 1136 q 528 1143 518 1143 q 543 1136 536 1143 l 685 975 q 686 972 686 975 q 683 967 686 969 q 678 965 679 964 l 528 1019 l 376 965 q 369 969 374 964 q 368 975 365 974 l 511 1136 z "},"Ċ":{"ha":929,"x_min":68,"x_max":869,"o":"m 585 883 q 713 873 646 883 q 817 846 779 863 q 833 835 829 842 q 839 814 836 829 l 856 621 q 849 615 856 617 q 840 619 842 614 q 714 789 793 729 q 531 849 635 849 q 318 747 393 849 q 243 475 243 646 q 284 242 243 347 q 399 74 325 136 q 568 13 474 13 q 727 72 657 13 q 853 251 797 131 q 862 256 854 257 q 869 250 869 254 l 849 61 q 842 40 846 44 q 826 29 839 35 q 572 -17 703 -17 q 289 51 403 -17 q 122 222 175 118 q 68 438 68 325 q 140 671 68 569 q 330 828 211 772 q 585 883 449 883 m 528 990 q 465 1013 488 990 q 443 1075 443 1036 q 466 1133 443 1111 q 528 1156 489 1156 q 587 1134 565 1156 q 608 1075 608 1113 q 588 1013 608 1035 q 528 990 567 990 z "},"D":{"ha":979,"x_min":39,"x_max":911,"o":"m 453 -6 q 347 -1 408 -6 q 292 1 325 0 q 219 3 260 3 l 117 1 q 42 0 89 0 q 39 8 39 0 q 42 17 39 17 q 107 24 86 17 q 135 51 128 31 q 143 113 143 71 l 143 756 q 135 817 143 797 q 108 844 128 836 q 44 851 88 851 q 40 860 40 851 q 44 868 40 868 l 118 867 q 219 864 182 864 q 336 868 276 864 q 433 871 408 871 q 683 815 574 871 q 851 664 792 760 q 911 449 911 568 q 849 210 911 314 q 683 51 788 107 q 453 -6 578 -6 m 439 26 q 596 72 528 26 q 702 206 664 117 q 740 418 740 294 q 704 633 740 536 q 601 785 668 729 q 447 840 535 840 q 329 824 361 840 q 297 753 297 807 l 297 128 q 326 49 297 72 q 439 26 356 26 z "},"Ð":{"ha":979,"x_min":39,"x_max":911,"o":"m 433 871 q 683 815 574 871 q 851 664 792 760 q 911 449 911 568 q 849 210 911 314 q 683 51 788 107 q 453 -6 578 -6 q 347 -1 408 -6 q 292 1 325 0 q 219 3 260 3 l 117 1 q 42 0 89 0 q 39 8 39 0 q 42 17 39 17 q 107 24 86 17 q 135 51 128 31 q 143 113 143 71 l 143 413 l 74 413 q 68 432 68 413 q 74 451 68 451 l 143 451 l 143 756 q 135 817 143 797 q 108 844 128 836 q 44 851 88 851 q 40 860 40 851 q 44 868 40 868 l 118 867 q 219 864 182 864 q 336 868 276 864 q 433 871 408 871 m 439 26 q 596 72 528 26 q 702 206 664 117 q 740 418 740 294 q 704 633 740 536 q 601 785 668 729 q 447 840 535 840 q 329 824 361 840 q 297 753 297 807 l 297 451 l 486 451 q 491 445 489 451 q 493 432 493 439 q 491 419 493 425 q 486 413 489 413 l 297 413 l 297 128 q 326 49 297 72 q 439 26 356 26 z "},"Ď":{"ha":979,"x_min":39,"x_max":911,"o":"m 453 -6 q 347 -1 408 -6 q 292 1 325 0 q 219 3 260 3 l 117 1 q 42 0 89 0 q 39 8 39 0 q 42 17 39 17 q 107 24 86 17 q 135 51 128 31 q 143 113 143 71 l 143 756 q 135 817 143 797 q 108 844 128 836 q 44 851 88 851 q 40 860 40 851 q 44 868 40 868 l 118 867 q 219 864 182 864 q 336 868 276 864 q 433 871 408 871 q 683 815 574 871 q 851 664 792 760 q 911 449 911 568 q 849 210 911 314 q 683 51 788 107 q 453 -6 578 -6 m 439 26 q 596 72 528 26 q 702 206 664 117 q 740 418 740 294 q 704 633 740 536 q 601 785 668 729 q 447 840 535 840 q 329 824 361 840 q 297 753 297 807 l 297 128 q 326 49 297 72 q 439 26 356 26 m 289 1114 l 289 1117 q 292 1122 289 1119 q 297 1124 296 1125 l 449 1071 l 599 1126 l 600 1126 q 606 1123 604 1126 q 606 1117 608 1119 l 464 954 q 449 949 458 949 q 432 954 438 949 l 289 1114 z "},"Đ":{"ha":979,"x_min":39,"x_max":911,"o":"m 433 871 q 683 815 574 871 q 851 664 792 760 q 911 449 911 568 q 849 210 911 314 q 683 51 788 107 q 453 -6 578 -6 q 347 -1 408 -6 q 292 1 325 0 q 219 3 260 3 l 117 1 q 42 0 89 0 q 39 8 39 0 q 42 17 39 17 q 107 24 86 17 q 135 51 128 31 q 143 113 143 71 l 143 413 l 74 413 q 68 432 68 413 q 74 451 68 451 l 143 451 l 143 756 q 135 817 143 797 q 108 844 128 836 q 44 851 88 851 q 40 860 40 851 q 44 868 40 868 l 118 867 q 219 864 182 864 q 336 868 276 864 q 433 871 408 871 m 439 26 q 596 72 528 26 q 702 206 664 117 q 740 418 740 294 q 704 633 740 536 q 601 785 668 729 q 447 840 535 840 q 329 824 361 840 q 297 753 297 807 l 297 451 l 486 451 q 491 445 489 451 q 493 432 493 439 q 491 419 493 425 q 486 413 489 413 l 297 413 l 297 128 q 326 49 297 72 q 439 26 356 26 z "},"Ḍ":{"ha":979,"x_min":39,"x_max":911,"o":"m 453 -6 q 347 -1 408 -6 q 292 1 325 0 q 219 3 260 3 l 117 1 q 42 0 89 0 q 39 8 39 0 q 42 17 39 17 q 107 24 86 17 q 135 51 128 31 q 143 113 143 71 l 143 756 q 135 817 143 797 q 108 844 128 836 q 44 851 88 851 q 40 860 40 851 q 44 868 40 868 l 118 867 q 219 864 182 864 q 336 868 276 864 q 433 871 408 871 q 683 815 574 871 q 851 664 792 760 q 911 449 911 568 q 849 210 911 314 q 683 51 788 107 q 453 -6 578 -6 m 439 26 q 596 72 528 26 q 702 206 664 117 q 740 418 740 294 q 704 633 740 536 q 601 785 668 729 q 447 840 535 840 q 329 824 361 840 q 297 753 297 807 l 297 128 q 326 49 297 72 q 439 26 356 26 m 468 -287 q 406 -265 428 -287 q 383 -203 383 -243 q 406 -145 383 -167 q 468 -124 429 -124 q 527 -145 506 -124 q 549 -203 549 -167 q 528 -265 549 -243 q 468 -287 507 -287 z "},"Ḏ":{"ha":979,"x_min":39,"x_max":911,"o":"m 453 -6 q 347 -1 408 -6 q 292 1 325 0 q 219 3 260 3 l 117 1 q 42 0 89 0 q 39 8 39 0 q 42 17 39 17 q 107 24 86 17 q 135 51 128 31 q 143 113 143 71 l 143 756 q 135 817 143 797 q 108 844 128 836 q 44 851 88 851 q 40 860 40 851 q 44 868 40 868 l 118 867 q 219 864 182 864 q 336 868 276 864 q 433 871 408 871 q 683 815 574 871 q 851 664 792 760 q 911 449 911 568 q 849 210 911 314 q 683 51 788 107 q 453 -6 578 -6 m 439 26 q 596 72 528 26 q 702 206 664 117 q 740 418 740 294 q 704 633 740 536 q 601 785 668 729 q 447 840 535 840 q 329 824 361 840 q 297 753 297 807 l 297 128 q 326 49 297 72 q 439 26 356 26 m 292 -169 q 281 -162 285 -169 q 278 -144 278 -154 q 292 -118 278 -118 l 640 -118 q 654 -144 654 -118 q 651 -162 654 -154 q 640 -169 647 -169 l 292 -169 z "},"E":{"ha":767,"x_min":53,"x_max":706,"o":"m 689 221 q 694 224 689 224 q 702 222 699 224 q 706 218 706 219 q 692 21 692 110 q 688 5 692 10 q 671 0 683 0 l 57 0 q 53 8 53 0 q 57 17 53 17 q 122 24 101 17 q 149 51 142 31 q 156 113 156 71 l 156 756 q 149 817 156 797 q 121 844 142 836 q 57 851 100 851 q 53 860 53 851 q 57 868 53 868 l 646 868 q 660 856 660 868 l 663 671 q 655 667 663 668 q 646 669 647 665 q 571 789 624 750 q 432 828 518 828 l 390 828 q 329 810 349 828 q 310 754 310 792 l 310 471 l 425 471 q 549 499 506 471 q 592 576 592 526 q 599 581 592 581 q 607 576 607 581 l 606 451 l 607 385 q 610 310 610 338 q 601 307 610 307 q 593 310 593 307 q 549 399 593 367 q 424 432 506 432 l 310 432 l 310 118 q 325 58 310 78 q 374 39 340 39 l 419 39 q 593 83 528 39 q 689 221 658 128 z "},"É":{"ha":767,"x_min":53,"x_max":706,"o":"m 689 221 q 694 224 689 224 q 702 222 699 224 q 706 218 706 219 q 692 21 692 110 q 688 5 692 10 q 671 0 683 0 l 57 0 q 53 8 53 0 q 57 17 53 17 q 122 24 101 17 q 149 51 142 31 q 156 113 156 71 l 156 756 q 149 817 156 797 q 121 844 142 836 q 57 851 100 851 q 53 860 53 851 q 57 868 53 868 l 646 868 q 660 856 660 868 l 663 671 q 655 667 663 668 q 646 669 647 665 q 571 789 624 750 q 432 828 518 828 l 390 828 q 329 810 349 828 q 310 754 310 792 l 310 471 l 425 471 q 549 499 506 471 q 592 576 592 526 q 599 581 592 581 q 607 576 607 581 l 606 451 l 607 385 q 610 310 610 338 q 601 307 610 307 q 593 310 593 307 q 549 399 593 367 q 424 432 506 432 l 310 432 l 310 118 q 325 58 310 78 q 374 39 340 39 l 419 39 q 593 83 528 39 q 689 221 658 128 m 276 942 q 269 948 271 942 q 272 957 268 954 q 385 1049 313 986 q 447 1101 426 1085 q 497 1097 454 1108 q 572 1069 539 1085 q 588 1050 604 1053 q 430 1003 501 1029 q 279 943 358 978 l 276 942 z "},"Ĕ":{"ha":767,"x_min":53,"x_max":706,"o":"m 689 221 q 694 224 689 224 q 702 222 699 224 q 706 218 706 219 q 692 21 692 110 q 688 5 692 10 q 671 0 683 0 l 57 0 q 53 8 53 0 q 57 17 53 17 q 122 24 101 17 q 149 51 142 31 q 156 113 156 71 l 156 756 q 149 817 156 797 q 121 844 142 836 q 57 851 100 851 q 53 860 53 851 q 57 868 53 868 l 646 868 q 660 856 660 868 l 663 671 q 655 667 663 668 q 646 669 647 665 q 571 789 624 750 q 432 828 518 828 l 390 828 q 329 810 349 828 q 310 754 310 792 l 310 471 l 425 471 q 549 499 506 471 q 592 576 592 526 q 599 581 592 581 q 607 576 607 581 l 606 451 l 607 385 q 610 310 610 338 q 601 307 610 307 q 593 310 593 307 q 549 399 593 367 q 424 432 506 432 l 310 432 l 310 118 q 325 58 310 78 q 374 39 340 39 l 419 39 q 593 83 528 39 q 689 221 658 128 m 414 958 q 308 1003 344 958 q 271 1135 271 1049 q 278 1139 271 1139 q 286 1136 286 1139 q 324 1089 286 1111 q 414 1067 361 1067 q 503 1089 465 1067 q 540 1136 540 1111 q 548 1139 540 1139 q 556 1135 556 1139 q 519 1003 556 1049 q 414 958 483 958 z "},"Ě":{"ha":767,"x_min":53,"x_max":706,"o":"m 689 221 q 694 224 689 224 q 702 222 699 224 q 706 218 706 219 q 692 21 692 110 q 688 5 692 10 q 671 0 683 0 l 57 0 q 53 8 53 0 q 57 17 53 17 q 122 24 101 17 q 149 51 142 31 q 156 113 156 71 l 156 756 q 149 817 156 797 q 121 844 142 836 q 57 851 100 851 q 53 860 53 851 q 57 868 53 868 l 646 868 q 660 856 660 868 l 663 671 q 655 667 663 668 q 646 669 647 665 q 571 789 624 750 q 432 828 518 828 l 390 828 q 329 810 349 828 q 310 754 310 792 l 310 471 l 425 471 q 549 499 506 471 q 592 576 592 526 q 599 581 592 581 q 607 576 607 581 l 606 451 l 607 385 q 610 310 610 338 q 601 307 610 307 q 593 310 593 307 q 549 399 593 367 q 424 432 506 432 l 310 432 l 310 118 q 325 58 310 78 q 374 39 340 39 l 419 39 q 593 83 528 39 q 689 221 658 128 m 254 1114 l 254 1117 q 258 1122 254 1119 q 263 1124 261 1125 l 414 1071 l 564 1126 l 565 1126 q 572 1123 569 1126 q 571 1117 574 1119 l 429 954 q 414 949 424 949 q 397 954 403 949 l 254 1114 z "},"Ê":{"ha":767,"x_min":53,"x_max":706,"o":"m 689 221 q 694 224 689 224 q 702 222 699 224 q 706 218 706 219 q 692 21 692 110 q 688 5 692 10 q 671 0 683 0 l 57 0 q 53 8 53 0 q 57 17 53 17 q 122 24 101 17 q 149 51 142 31 q 156 113 156 71 l 156 756 q 149 817 156 797 q 121 844 142 836 q 57 851 100 851 q 53 860 53 851 q 57 868 53 868 l 646 868 q 660 856 660 868 l 663 671 q 655 667 663 668 q 646 669 647 665 q 571 789 624 750 q 432 828 518 828 l 390 828 q 329 810 349 828 q 310 754 310 792 l 310 471 l 425 471 q 549 499 506 471 q 592 576 592 526 q 599 581 592 581 q 607 576 607 581 l 606 451 l 607 385 q 610 310 610 338 q 601 307 610 307 q 593 310 593 307 q 549 399 593 367 q 424 432 506 432 l 310 432 l 310 118 q 325 58 310 78 q 374 39 340 39 l 419 39 q 593 83 528 39 q 689 221 658 128 m 399 1136 q 415 1143 406 1143 q 431 1136 424 1143 l 572 975 q 574 972 574 975 q 570 967 574 969 q 565 965 567 964 l 415 1019 l 264 965 q 257 969 261 964 q 256 975 253 974 l 399 1136 z "},"Ế":{"ha":767,"x_min":53,"x_max":719,"o":"m 689 221 q 694 224 689 224 q 702 222 699 224 q 706 218 706 219 q 692 21 692 110 q 688 5 692 10 q 671 0 683 0 l 57 0 q 53 8 53 0 q 57 17 53 17 q 122 24 101 17 q 149 51 142 31 q 156 113 156 71 l 156 756 q 149 817 156 797 q 121 844 142 836 q 57 851 100 851 q 53 860 53 851 q 57 868 53 868 l 646 868 q 660 856 660 868 l 663 671 q 655 667 663 668 q 646 669 647 665 q 571 789 624 750 q 432 828 518 828 l 390 828 q 329 810 349 828 q 310 754 310 792 l 310 471 l 425 471 q 549 499 506 471 q 592 576 592 526 q 599 581 592 581 q 607 576 607 581 l 606 451 l 607 385 q 610 310 610 338 q 601 307 610 307 q 593 310 593 307 q 549 399 593 367 q 424 432 506 432 l 310 432 l 310 118 q 325 58 310 78 q 374 39 340 39 l 419 39 q 593 83 528 39 q 689 221 658 128 m 397 1071 q 413 1078 404 1078 q 429 1071 422 1078 l 571 910 q 572 907 572 910 q 569 901 572 904 q 564 900 565 899 l 414 954 l 263 900 q 256 903 260 899 q 254 910 251 908 l 397 1071 m 501 1038 q 494 1044 497 1038 q 493 1053 490 1050 q 574 1197 546 1139 q 585 1201 576 1201 q 642 1190 604 1201 q 705 1165 681 1178 q 715 1146 729 1151 q 608 1099 657 1125 q 504 1039 560 1074 l 501 1038 z "},"Ệ":{"ha":767,"x_min":53,"x_max":706,"o":"m 689 221 q 694 224 689 224 q 702 222 699 224 q 706 218 706 219 q 692 21 692 110 q 688 5 692 10 q 671 0 683 0 l 57 0 q 53 8 53 0 q 57 17 53 17 q 122 24 101 17 q 149 51 142 31 q 156 113 156 71 l 156 756 q 149 817 156 797 q 121 844 142 836 q 57 851 100 851 q 53 860 53 851 q 57 868 53 868 l 646 868 q 660 856 660 868 l 663 671 q 655 667 663 668 q 646 669 647 665 q 571 789 624 750 q 432 828 518 828 l 390 828 q 329 810 349 828 q 310 754 310 792 l 310 471 l 425 471 q 549 499 506 471 q 592 576 592 526 q 599 581 592 581 q 607 576 607 581 l 606 451 l 607 385 q 610 310 610 338 q 601 307 610 307 q 593 310 593 307 q 549 399 593 367 q 424 432 506 432 l 310 432 l 310 118 q 325 58 310 78 q 374 39 340 39 l 419 39 q 593 83 528 39 q 689 221 658 128 m 415 -287 q 353 -265 375 -287 q 331 -203 331 -243 q 353 -145 331 -167 q 415 -124 376 -124 q 474 -145 453 -124 q 496 -203 496 -167 q 475 -265 496 -243 q 415 -287 454 -287 m 397 1071 q 413 1078 404 1078 q 429 1071 422 1078 l 571 910 q 572 907 572 910 q 569 901 572 904 q 564 900 565 899 l 414 954 l 263 900 q 256 903 260 899 q 254 910 251 908 l 397 1071 z "},"Ề":{"ha":767,"x_min":53,"x_max":706,"o":"m 689 221 q 694 224 689 224 q 702 222 699 224 q 706 218 706 219 q 692 21 692 110 q 688 5 692 10 q 671 0 683 0 l 57 0 q 53 8 53 0 q 57 17 53 17 q 122 24 101 17 q 149 51 142 31 q 156 113 156 71 l 156 756 q 149 817 156 797 q 121 844 142 836 q 57 851 100 851 q 53 860 53 851 q 57 868 53 868 l 646 868 q 660 856 660 868 l 663 671 q 655 667 663 668 q 646 669 647 665 q 571 789 624 750 q 432 828 518 828 l 390 828 q 329 810 349 828 q 310 754 310 792 l 310 471 l 425 471 q 549 499 506 471 q 592 576 592 526 q 599 581 592 581 q 607 576 607 581 l 606 451 l 607 385 q 610 310 610 338 q 601 307 610 307 q 593 310 593 307 q 549 399 593 367 q 424 432 506 432 l 310 432 l 310 118 q 325 58 310 78 q 374 39 340 39 l 419 39 q 593 83 528 39 q 689 221 658 128 m 397 1071 q 413 1078 404 1078 q 429 1071 422 1078 l 571 910 q 572 907 572 910 q 569 901 572 904 q 564 900 565 899 l 414 954 l 263 900 q 256 903 260 899 q 254 910 251 908 l 397 1071 m 626 1011 q 525 1072 571 1047 q 421 1118 479 1096 q 431 1137 407 1124 q 492 1162 454 1150 q 550 1174 531 1174 q 561 1169 560 1174 q 590 1111 567 1158 q 638 1025 613 1064 q 639 1021 639 1024 q 635 1013 639 1017 q 626 1011 632 1010 z "},"Ể":{"ha":767,"x_min":53,"x_max":706,"o":"m 689 221 q 694 224 689 224 q 702 222 699 224 q 706 218 706 219 q 692 21 692 110 q 688 5 692 10 q 671 0 683 0 l 57 0 q 53 8 53 0 q 57 17 53 17 q 122 24 101 17 q 149 51 142 31 q 156 113 156 71 l 156 756 q 149 817 156 797 q 121 844 142 836 q 57 851 100 851 q 53 860 53 851 q 57 868 53 868 l 646 868 q 660 856 660 868 l 663 671 q 655 667 663 668 q 646 669 647 665 q 571 789 624 750 q 432 828 518 828 l 390 828 q 329 810 349 828 q 310 754 310 792 l 310 471 l 425 471 q 549 499 506 471 q 592 576 592 526 q 599 581 592 581 q 607 576 607 581 l 606 451 l 607 385 q 610 310 610 338 q 601 307 610 307 q 593 310 593 307 q 549 399 593 367 q 424 432 506 432 l 310 432 l 310 118 q 325 58 310 78 q 374 39 340 39 l 419 39 q 593 83 528 39 q 689 221 658 128 m 397 1071 q 413 1078 404 1078 q 429 1071 422 1078 l 571 910 q 572 907 572 910 q 569 901 572 904 q 564 900 565 899 l 414 954 l 263 900 q 256 903 260 899 q 254 910 251 908 l 397 1071 m 538 1013 q 535 1032 535 1026 q 549 1085 535 1051 q 561 1133 561 1119 q 549 1166 561 1156 q 519 1176 536 1176 q 494 1172 504 1176 l 492 1171 q 485 1176 488 1171 q 485 1183 482 1181 q 569 1208 525 1208 q 626 1191 604 1208 q 647 1149 647 1174 q 635 1113 647 1129 q 597 1075 622 1097 q 564 1043 575 1057 q 553 1013 553 1029 q 546 1009 553 1010 q 538 1013 539 1008 z "},"Ễ":{"ha":767,"x_min":53,"x_max":706,"o":"m 689 221 q 694 224 689 224 q 702 222 699 224 q 706 218 706 219 q 692 21 692 110 q 688 5 692 10 q 671 0 683 0 l 57 0 q 53 8 53 0 q 57 17 53 17 q 122 24 101 17 q 149 51 142 31 q 156 113 156 71 l 156 756 q 149 817 156 797 q 121 844 142 836 q 57 851 100 851 q 53 860 53 851 q 57 868 53 868 l 646 868 q 660 856 660 868 l 663 671 q 655 667 663 668 q 646 669 647 665 q 571 789 624 750 q 432 828 518 828 l 390 828 q 329 810 349 828 q 310 754 310 792 l 310 471 l 425 471 q 549 499 506 471 q 592 576 592 526 q 599 581 592 581 q 607 576 607 581 l 606 451 l 607 385 q 610 310 610 338 q 601 307 610 307 q 593 310 593 307 q 549 399 593 367 q 424 432 506 432 l 310 432 l 310 118 q 325 58 310 78 q 374 39 340 39 l 419 39 q 593 83 528 39 q 689 221 658 128 m 397 1071 q 413 1078 404 1078 q 429 1071 422 1078 l 571 910 q 572 907 572 910 q 569 901 572 904 q 564 900 565 899 l 414 954 l 263 900 q 256 903 260 899 q 254 910 251 908 l 397 1071 m 529 1185 q 567 1193 553 1185 q 600 1222 582 1201 l 603 1224 q 608 1219 606 1224 q 610 1213 611 1215 q 549 1124 572 1146 q 494 1101 526 1101 q 417 1117 468 1101 q 368 1129 393 1124 q 321 1135 343 1135 q 283 1128 294 1135 q 250 1097 272 1121 l 249 1097 q 241 1101 244 1097 q 240 1107 238 1104 q 361 1219 303 1219 q 426 1206 376 1219 q 479 1191 451 1197 q 529 1185 507 1185 z "},"Ë":{"ha":767,"x_min":53,"x_max":706,"o":"m 689 221 q 694 224 689 224 q 702 222 699 224 q 706 218 706 219 q 692 21 692 110 q 688 5 692 10 q 671 0 683 0 l 57 0 q 53 8 53 0 q 57 17 53 17 q 122 24 101 17 q 149 51 142 31 q 156 113 156 71 l 156 756 q 149 817 156 797 q 121 844 142 836 q 57 851 100 851 q 53 860 53 851 q 57 868 53 868 l 646 868 q 660 856 660 868 l 663 671 q 655 667 663 668 q 646 669 647 665 q 571 789 624 750 q 432 828 518 828 l 390 828 q 329 810 349 828 q 310 754 310 792 l 310 471 l 425 471 q 549 499 506 471 q 592 576 592 526 q 599 581 592 581 q 607 576 607 581 l 606 451 l 607 385 q 610 310 610 338 q 601 307 610 307 q 593 310 593 307 q 549 399 593 367 q 424 432 506 432 l 310 432 l 310 118 q 325 58 310 78 q 374 39 340 39 l 419 39 q 593 83 528 39 q 689 221 658 128 m 294 976 q 238 997 258 976 q 218 1053 218 1017 q 239 1106 218 1086 q 294 1125 260 1125 q 348 1106 329 1125 q 367 1053 367 1086 q 348 997 367 1017 q 294 976 329 976 m 536 976 q 481 997 500 976 q 461 1053 461 1017 q 481 1105 461 1086 q 536 1124 501 1124 q 590 1105 571 1124 q 608 1053 608 1086 q 590 997 608 1017 q 536 976 571 976 z "},"Ė":{"ha":767,"x_min":53,"x_max":706,"o":"m 689 221 q 694 224 689 224 q 702 222 699 224 q 706 218 706 219 q 692 21 692 110 q 688 5 692 10 q 671 0 683 0 l 57 0 q 53 8 53 0 q 57 17 53 17 q 122 24 101 17 q 149 51 142 31 q 156 113 156 71 l 156 756 q 149 817 156 797 q 121 844 142 836 q 57 851 100 851 q 53 860 53 851 q 57 868 53 868 l 646 868 q 660 856 660 868 l 663 671 q 655 667 663 668 q 646 669 647 665 q 571 789 624 750 q 432 828 518 828 l 390 828 q 329 810 349 828 q 310 754 310 792 l 310 471 l 425 471 q 549 499 506 471 q 592 576 592 526 q 599 581 592 581 q 607 576 607 581 l 606 451 l 607 385 q 610 310 610 338 q 601 307 610 307 q 593 310 593 307 q 549 399 593 367 q 424 432 506 432 l 310 432 l 310 118 q 325 58 310 78 q 374 39 340 39 l 419 39 q 593 83 528 39 q 689 221 658 128 m 415 990 q 353 1013 375 990 q 331 1075 331 1036 q 353 1133 331 1111 q 415 1156 376 1156 q 474 1134 453 1156 q 496 1075 496 1113 q 475 1013 496 1035 q 415 990 454 990 z "},"Ẹ":{"ha":767,"x_min":53,"x_max":706,"o":"m 689 221 q 694 224 689 224 q 702 222 699 224 q 706 218 706 219 q 692 21 692 110 q 688 5 692 10 q 671 0 683 0 l 57 0 q 53 8 53 0 q 57 17 53 17 q 122 24 101 17 q 149 51 142 31 q 156 113 156 71 l 156 756 q 149 817 156 797 q 121 844 142 836 q 57 851 100 851 q 53 860 53 851 q 57 868 53 868 l 646 868 q 660 856 660 868 l 663 671 q 655 667 663 668 q 646 669 647 665 q 571 789 624 750 q 432 828 518 828 l 390 828 q 329 810 349 828 q 310 754 310 792 l 310 471 l 425 471 q 549 499 506 471 q 592 576 592 526 q 599 581 592 581 q 607 576 607 581 l 606 451 l 607 385 q 610 310 610 338 q 601 307 610 307 q 593 310 593 307 q 549 399 593 367 q 424 432 506 432 l 310 432 l 310 118 q 325 58 310 78 q 374 39 340 39 l 419 39 q 593 83 528 39 q 689 221 658 128 m 415 -287 q 353 -265 375 -287 q 331 -203 331 -243 q 353 -145 331 -167 q 415 -124 376 -124 q 474 -145 453 -124 q 496 -203 496 -167 q 475 -265 496 -243 q 415 -287 454 -287 z "},"È":{"ha":767,"x_min":53,"x_max":706,"o":"m 689 221 q 694 224 689 224 q 702 222 699 224 q 706 218 706 219 q 692 21 692 110 q 688 5 692 10 q 671 0 683 0 l 57 0 q 53 8 53 0 q 57 17 53 17 q 122 24 101 17 q 149 51 142 31 q 156 113 156 71 l 156 756 q 149 817 156 797 q 121 844 142 836 q 57 851 100 851 q 53 860 53 851 q 57 868 53 868 l 646 868 q 660 856 660 868 l 663 671 q 655 667 663 668 q 646 669 647 665 q 571 789 624 750 q 432 828 518 828 l 390 828 q 329 810 349 828 q 310 754 310 792 l 310 471 l 425 471 q 549 499 506 471 q 592 576 592 526 q 599 581 592 581 q 607 576 607 581 l 606 451 l 607 385 q 610 310 610 338 q 601 307 610 307 q 593 310 593 307 q 549 399 593 367 q 424 432 506 432 l 310 432 l 310 118 q 325 58 310 78 q 374 39 340 39 l 419 39 q 593 83 528 39 q 689 221 658 128 m 553 943 q 244 1050 397 1013 q 260 1069 228 1053 q 335 1097 293 1085 q 385 1101 378 1108 l 450 1046 q 558 957 511 993 q 563 951 563 956 q 560 944 563 947 q 553 943 557 942 z "},"Ẻ":{"ha":767,"x_min":53,"x_max":706,"o":"m 689 221 q 694 224 689 224 q 702 222 699 224 q 706 218 706 219 q 692 21 692 110 q 688 5 692 10 q 671 0 683 0 l 57 0 q 53 8 53 0 q 57 17 53 17 q 122 24 101 17 q 149 51 142 31 q 156 113 156 71 l 156 756 q 149 817 156 797 q 121 844 142 836 q 57 851 100 851 q 53 860 53 851 q 57 868 53 868 l 646 868 q 660 856 660 868 l 663 671 q 655 667 663 668 q 646 669 647 665 q 571 789 624 750 q 432 828 518 828 l 390 828 q 329 810 349 828 q 310 754 310 792 l 310 471 l 425 471 q 549 499 506 471 q 592 576 592 526 q 599 581 592 581 q 607 576 607 581 l 606 451 l 607 385 q 610 310 610 338 q 601 307 610 307 q 593 310 593 307 q 549 399 593 367 q 424 432 506 432 l 310 432 l 310 118 q 325 58 310 78 q 374 39 340 39 l 419 39 q 593 83 528 39 q 689 221 658 128 m 415 904 q 408 901 415 901 q 399 904 400 901 q 396 935 396 926 q 417 1021 396 974 q 426 1048 418 1025 q 435 1096 435 1071 q 396 1146 435 1146 q 346 1132 376 1146 l 343 1132 q 335 1136 339 1132 q 336 1143 332 1140 q 450 1182 383 1182 q 521 1163 494 1182 q 547 1110 547 1143 q 529 1056 547 1081 q 475 996 511 1032 q 429 944 443 963 q 415 904 415 925 z "},"Ē":{"ha":767,"x_min":53,"x_max":706,"o":"m 689 221 q 694 224 689 224 q 702 222 699 224 q 706 218 706 219 q 692 21 692 110 q 688 5 692 10 q 671 0 683 0 l 57 0 q 53 8 53 0 q 57 17 53 17 q 122 24 101 17 q 149 51 142 31 q 156 113 156 71 l 156 756 q 149 817 156 797 q 121 844 142 836 q 57 851 100 851 q 53 860 53 851 q 57 868 53 868 l 646 868 q 660 856 660 868 l 663 671 q 655 667 663 668 q 646 669 647 665 q 571 789 624 750 q 432 828 518 828 l 390 828 q 329 810 349 828 q 310 754 310 792 l 310 471 l 425 471 q 549 499 506 471 q 592 576 592 526 q 599 581 592 581 q 607 576 607 581 l 606 451 l 607 385 q 610 310 610 338 q 601 307 610 307 q 593 310 593 307 q 549 399 593 367 q 424 432 506 432 l 310 432 l 310 118 q 325 58 310 78 q 374 39 340 39 l 419 39 q 593 83 528 39 q 689 221 658 128 m 239 990 q 229 998 233 990 q 225 1017 225 1006 q 229 1034 225 1026 q 239 1042 233 1042 l 588 1042 q 599 1034 594 1042 q 603 1017 603 1026 q 599 998 603 1006 q 588 990 594 990 l 239 990 z "},"Ę":{"ha":767,"x_min":53,"x_max":713,"o":"m 701 -308 q 709 -312 706 -308 q 708 -319 713 -317 q 553 -382 632 -382 q 435 -337 482 -382 q 389 -229 389 -293 q 554 0 389 -118 l 57 0 q 53 8 53 0 q 57 17 53 17 q 122 24 101 17 q 149 51 142 31 q 156 113 156 71 l 156 756 q 149 817 156 797 q 121 844 142 836 q 57 851 100 851 q 53 860 53 851 q 57 868 53 868 l 646 868 q 660 856 660 868 l 663 671 q 655 667 663 668 q 646 669 647 665 q 571 789 624 750 q 432 828 518 828 l 390 828 q 329 810 349 828 q 310 754 310 792 l 310 471 l 425 471 q 549 499 506 471 q 592 576 592 526 q 599 581 592 581 q 607 576 607 581 l 606 451 l 607 385 q 610 310 610 338 q 601 307 610 307 q 593 310 593 307 q 549 399 593 367 q 424 432 506 432 l 310 432 l 310 118 q 325 58 310 78 q 374 39 340 39 l 419 39 q 593 83 528 39 q 689 221 658 128 q 694 224 689 224 q 702 222 699 224 q 706 218 706 219 q 692 21 692 110 q 688 5 692 10 q 671 0 683 0 l 585 0 q 523 -79 542 -43 q 504 -162 504 -115 q 540 -279 504 -235 q 639 -324 576 -324 q 672 -319 654 -324 q 699 -308 690 -314 l 701 -308 z "},"Ẽ":{"ha":767,"x_min":53,"x_max":706,"o":"m 689 221 q 694 224 689 224 q 702 222 699 224 q 706 218 706 219 q 692 21 692 110 q 688 5 692 10 q 671 0 683 0 l 57 0 q 53 8 53 0 q 57 17 53 17 q 122 24 101 17 q 149 51 142 31 q 156 113 156 71 l 156 756 q 149 817 156 797 q 121 844 142 836 q 57 851 100 851 q 53 860 53 851 q 57 868 53 868 l 646 868 q 660 856 660 868 l 663 671 q 655 667 663 668 q 646 669 647 665 q 571 789 624 750 q 432 828 518 828 l 390 828 q 329 810 349 828 q 310 754 310 792 l 310 471 l 425 471 q 549 499 506 471 q 592 576 592 526 q 599 581 592 581 q 607 576 607 581 l 606 451 l 607 385 q 610 310 610 338 q 601 307 610 307 q 593 310 593 307 q 549 399 593 367 q 424 432 506 432 l 310 432 l 310 118 q 325 58 310 78 q 374 39 340 39 l 419 39 q 593 83 528 39 q 689 221 658 128 m 526 1057 q 565 1065 550 1057 q 597 1094 579 1074 l 599 1094 q 606 1091 603 1094 q 607 1085 610 1088 q 547 995 571 1018 q 492 972 522 972 q 414 988 465 972 q 377 997 408 989 q 318 1006 346 1006 q 281 999 292 1006 q 247 968 269 992 l 246 968 q 238 972 242 968 q 236 978 235 975 q 292 1058 263 1025 q 358 1090 322 1090 q 422 1076 372 1090 q 464 1066 431 1075 q 526 1057 497 1057 z "},"F":{"ha":725,"x_min":43,"x_max":663,"o":"m 663 671 q 655 667 663 668 q 646 669 647 665 q 571 789 624 750 q 432 828 518 828 l 390 828 q 329 810 349 828 q 310 754 310 792 l 310 454 l 410 454 q 533 483 490 454 q 575 561 575 511 q 583 564 575 564 q 592 561 592 564 l 590 435 q 592 368 590 390 l 593 294 q 585 290 593 290 q 576 294 576 290 q 533 383 576 350 q 408 415 489 415 l 310 415 l 310 118 q 321 54 310 75 q 363 25 332 33 q 458 17 393 17 q 461 8 461 17 q 458 0 461 0 q 369 1 401 0 l 228 3 l 124 1 q 47 0 96 0 q 43 8 43 0 q 47 17 43 17 q 118 24 96 17 q 148 51 140 31 q 156 113 156 71 l 156 756 q 149 817 156 797 q 121 844 142 836 q 57 851 100 851 q 53 860 53 851 q 57 868 53 868 l 646 868 q 660 856 660 868 l 663 671 z "},"G":{"ha":999,"x_min":68,"x_max":954,"o":"m 568 -17 q 301 42 415 -17 q 128 201 188 100 q 68 425 68 301 q 137 663 68 558 q 326 826 206 768 q 594 883 446 883 q 726 873 660 883 q 833 846 793 863 q 849 835 846 842 q 854 814 853 829 l 872 621 q 865 615 872 617 q 856 619 858 614 q 722 786 807 726 q 526 846 636 846 q 310 747 385 846 q 236 478 236 649 q 283 233 236 340 q 415 66 331 125 q 603 7 499 7 q 690 19 660 7 q 735 68 721 32 q 749 175 749 104 q 740 276 749 247 q 705 314 732 304 q 611 324 678 324 q 603 335 603 324 q 605 342 603 339 q 610 346 607 346 q 800 339 728 339 q 947 343 871 339 q 952 340 950 343 q 954 333 954 336 q 947 324 954 324 q 913 315 922 325 q 900 273 903 304 q 897 161 897 242 q 902 72 897 99 q 907 39 907 46 q 903 28 907 31 q 890 22 900 25 q 568 -17 711 -17 z "},"Ğ":{"ha":999,"x_min":68,"x_max":954,"o":"m 568 -17 q 301 42 415 -17 q 128 201 188 100 q 68 425 68 301 q 137 663 68 558 q 326 826 206 768 q 594 883 446 883 q 726 873 660 883 q 833 846 793 863 q 849 835 846 842 q 854 814 853 829 l 872 621 q 865 615 872 617 q 856 619 858 614 q 722 786 807 726 q 526 846 636 846 q 310 747 385 846 q 236 478 236 649 q 283 233 236 340 q 415 66 331 125 q 603 7 499 7 q 690 19 660 7 q 735 68 721 32 q 749 175 749 104 q 740 276 749 247 q 705 314 732 304 q 611 324 678 324 q 603 335 603 324 q 605 342 603 339 q 610 346 607 346 q 800 339 728 339 q 947 343 871 339 q 952 340 950 343 q 954 333 954 336 q 947 324 954 324 q 913 315 922 325 q 900 273 903 304 q 897 161 897 242 q 902 72 897 99 q 907 39 907 46 q 903 28 907 31 q 890 22 900 25 q 568 -17 711 -17 m 547 958 q 441 1003 478 958 q 404 1135 404 1049 q 412 1139 404 1139 q 419 1136 419 1139 q 457 1089 419 1111 q 547 1067 494 1067 q 636 1089 599 1067 q 674 1136 674 1111 q 681 1139 674 1139 q 689 1135 689 1139 q 653 1003 689 1049 q 547 958 617 958 z "},"Ǧ":{"ha":999,"x_min":68,"x_max":954,"o":"m 568 -17 q 301 42 415 -17 q 128 201 188 100 q 68 425 68 301 q 137 663 68 558 q 326 826 206 768 q 594 883 446 883 q 726 873 660 883 q 833 846 793 863 q 849 835 846 842 q 854 814 853 829 l 872 621 q 865 615 872 617 q 856 619 858 614 q 722 786 807 726 q 526 846 636 846 q 310 747 385 846 q 236 478 236 649 q 283 233 236 340 q 415 66 331 125 q 603 7 499 7 q 690 19 660 7 q 735 68 721 32 q 749 175 749 104 q 740 276 749 247 q 705 314 732 304 q 611 324 678 324 q 603 335 603 324 q 605 342 603 339 q 610 346 607 346 q 800 339 728 339 q 947 343 871 339 q 952 340 950 343 q 954 333 954 336 q 947 324 954 324 q 913 315 922 325 q 900 273 903 304 q 897 161 897 242 q 902 72 897 99 q 907 39 907 46 q 903 28 907 31 q 890 22 900 25 q 568 -17 711 -17 m 388 1114 l 388 1117 q 391 1122 388 1119 q 396 1124 394 1125 l 547 1071 l 697 1126 l 699 1126 q 705 1123 703 1126 q 704 1117 707 1119 l 563 954 q 547 949 557 949 q 531 954 536 949 l 388 1114 z "},"Ĝ":{"ha":999,"x_min":68,"x_max":954,"o":"m 568 -17 q 301 42 415 -17 q 128 201 188 100 q 68 425 68 301 q 137 663 68 558 q 326 826 206 768 q 594 883 446 883 q 726 873 660 883 q 833 846 793 863 q 849 835 846 842 q 854 814 853 829 l 872 621 q 865 615 872 617 q 856 619 858 614 q 722 786 807 726 q 526 846 636 846 q 310 747 385 846 q 236 478 236 649 q 283 233 236 340 q 415 66 331 125 q 603 7 499 7 q 690 19 660 7 q 735 68 721 32 q 749 175 749 104 q 740 276 749 247 q 705 314 732 304 q 611 324 678 324 q 603 335 603 324 q 605 342 603 339 q 610 346 607 346 q 800 339 728 339 q 947 343 871 339 q 952 340 950 343 q 954 333 954 336 q 947 324 954 324 q 913 315 922 325 q 900 273 903 304 q 897 161 897 242 q 902 72 897 99 q 907 39 907 46 q 903 28 907 31 q 890 22 900 25 q 568 -17 711 -17 m 532 1136 q 549 1143 539 1143 q 564 1136 557 1143 l 706 975 q 707 972 707 975 q 703 967 707 969 q 699 965 700 964 l 549 1019 l 397 965 q 390 969 394 964 q 389 975 386 974 l 532 1136 z "},"Ģ":{"ha":999,"x_min":68,"x_max":954,"o":"m 568 -17 q 301 42 415 -17 q 128 201 188 100 q 68 425 68 301 q 137 663 68 558 q 326 826 206 768 q 594 883 446 883 q 726 873 660 883 q 833 846 793 863 q 849 835 846 842 q 854 814 853 829 l 872 621 q 865 615 872 617 q 856 619 858 614 q 722 786 807 726 q 526 846 636 846 q 310 747 385 846 q 236 478 236 649 q 283 233 236 340 q 415 66 331 125 q 603 7 499 7 q 690 19 660 7 q 735 68 721 32 q 749 175 749 104 q 740 276 749 247 q 705 314 732 304 q 611 324 678 324 q 603 335 603 324 q 605 342 603 339 q 610 346 607 346 q 800 339 728 339 q 947 343 871 339 q 952 340 950 343 q 954 333 954 336 q 947 324 954 324 q 913 315 922 325 q 900 273 903 304 q 897 161 897 242 q 902 72 897 99 q 907 39 907 46 q 903 28 907 31 q 890 22 900 25 q 568 -17 711 -17 m 574 -96 q 646 -126 621 -96 q 671 -208 671 -157 q 643 -304 671 -262 q 565 -382 615 -346 l 563 -383 q 554 -377 557 -383 q 556 -368 551 -371 q 604 -323 586 -346 q 622 -275 622 -300 q 608 -229 622 -243 q 551 -256 594 -256 q 503 -233 522 -256 q 483 -176 483 -211 q 510 -117 483 -139 q 574 -96 536 -96 z "},"Ġ":{"ha":999,"x_min":68,"x_max":954,"o":"m 568 -17 q 301 42 415 -17 q 128 201 188 100 q 68 425 68 301 q 137 663 68 558 q 326 826 206 768 q 594 883 446 883 q 726 873 660 883 q 833 846 793 863 q 849 835 846 842 q 854 814 853 829 l 872 621 q 865 615 872 617 q 856 619 858 614 q 722 786 807 726 q 526 846 636 846 q 310 747 385 846 q 236 478 236 649 q 283 233 236 340 q 415 66 331 125 q 603 7 499 7 q 690 19 660 7 q 735 68 721 32 q 749 175 749 104 q 740 276 749 247 q 705 314 732 304 q 611 324 678 324 q 603 335 603 324 q 605 342 603 339 q 610 346 607 346 q 800 339 728 339 q 947 343 871 339 q 952 340 950 343 q 954 333 954 336 q 947 324 954 324 q 913 315 922 325 q 900 273 903 304 q 897 161 897 242 q 902 72 897 99 q 907 39 907 46 q 903 28 907 31 q 890 22 900 25 q 568 -17 711 -17 m 549 990 q 486 1013 508 990 q 464 1075 464 1036 q 487 1133 464 1111 q 549 1156 510 1156 q 608 1134 586 1156 q 629 1075 629 1113 q 608 1013 629 1035 q 549 990 588 990 z "},"Ḡ":{"ha":999,"x_min":68,"x_max":954,"o":"m 568 -17 q 301 42 415 -17 q 128 201 188 100 q 68 425 68 301 q 137 663 68 558 q 326 826 206 768 q 594 883 446 883 q 726 873 660 883 q 833 846 793 863 q 849 835 846 842 q 854 814 853 829 l 872 621 q 865 615 872 617 q 856 619 858 614 q 722 786 807 726 q 526 846 636 846 q 310 747 385 846 q 236 478 236 649 q 283 233 236 340 q 415 66 331 125 q 603 7 499 7 q 690 19 660 7 q 735 68 721 32 q 749 175 749 104 q 740 276 749 247 q 705 314 732 304 q 611 324 678 324 q 603 335 603 324 q 605 342 603 339 q 610 346 607 346 q 800 339 728 339 q 947 343 871 339 q 952 340 950 343 q 954 333 954 336 q 947 324 954 324 q 913 315 922 325 q 900 273 903 304 q 897 161 897 242 q 902 72 897 99 q 907 39 907 46 q 903 28 907 31 q 890 22 900 25 q 568 -17 711 -17 m 372 990 q 358 1017 358 990 q 362 1034 358 1026 q 372 1042 365 1042 l 721 1042 q 731 1034 728 1042 q 735 1017 735 1026 q 721 990 735 990 l 372 990 z "},"H":{"ha":1061,"x_min":39,"x_max":1021,"o":"m 1017 17 q 1021 8 1021 17 q 1017 0 1021 0 q 939 1 968 0 l 832 3 l 707 1 q 639 0 682 0 q 635 8 635 0 q 639 17 635 17 q 714 24 690 17 q 746 50 738 31 q 754 113 754 69 l 754 432 l 306 432 l 306 113 q 314 51 306 71 q 346 24 322 31 q 421 17 369 17 q 424 8 424 17 q 421 0 424 0 q 343 1 372 0 l 222 3 l 118 1 q 42 0 90 0 q 39 8 39 0 q 42 17 39 17 q 113 24 90 17 q 143 51 135 31 q 151 113 151 71 l 151 756 q 143 817 151 797 q 113 844 135 836 q 44 851 92 851 q 40 860 40 851 q 44 868 40 868 l 119 867 q 222 864 183 864 q 344 867 275 864 l 421 868 q 424 860 424 868 q 421 851 424 851 q 347 843 371 851 q 315 815 324 835 q 306 753 306 794 l 306 471 l 754 471 l 754 753 q 746 815 754 794 q 714 843 738 835 q 639 851 690 851 q 635 860 635 851 q 639 868 635 868 l 707 867 q 832 864 776 864 q 939 867 869 864 l 1017 868 q 1021 860 1021 868 q 1017 851 1021 851 q 947 844 969 851 q 916 817 924 836 q 908 756 908 797 l 908 113 q 916 51 908 71 q 946 24 924 31 q 1017 17 968 17 z "},"Ħ":{"ha":1061,"x_min":39,"x_max":1021,"o":"m 1017 17 q 1021 8 1021 17 q 1017 0 1021 0 q 939 1 968 0 l 832 3 l 707 1 q 639 0 682 0 q 635 8 635 0 q 639 17 635 17 q 714 24 690 17 q 746 50 738 31 q 754 113 754 69 l 754 303 l 306 303 l 306 113 q 314 51 306 71 q 346 24 322 31 q 421 17 369 17 q 424 8 424 17 q 421 0 424 0 q 343 1 372 0 l 222 3 l 118 1 q 42 0 90 0 q 39 8 39 0 q 42 17 39 17 q 113 24 90 17 q 143 51 135 31 q 151 113 151 71 l 151 756 q 143 817 151 797 q 113 844 135 836 q 44 851 92 851 q 40 860 40 851 q 44 868 40 868 l 119 867 q 222 864 183 864 q 344 867 275 864 l 421 868 q 424 860 424 868 q 421 851 424 851 q 347 843 371 851 q 315 815 324 835 q 306 753 306 794 l 306 601 l 754 601 l 754 753 q 746 815 754 794 q 714 843 738 835 q 639 851 690 851 q 635 860 635 851 q 639 868 635 868 l 707 867 q 832 864 776 864 q 939 867 869 864 l 1017 868 q 1021 860 1021 868 q 1017 851 1021 851 q 947 844 969 851 q 916 817 924 836 q 908 756 908 797 l 908 113 q 916 51 908 71 q 946 24 924 31 q 1017 17 968 17 m 306 342 l 754 342 l 754 563 l 306 563 l 306 342 z "},"Ḫ":{"ha":1061,"x_min":39,"x_max":1021,"o":"m 1017 17 q 1021 8 1021 17 q 1017 0 1021 0 q 939 1 968 0 l 832 3 l 707 1 q 639 0 682 0 q 635 8 635 0 q 639 17 635 17 q 714 24 690 17 q 746 50 738 31 q 754 113 754 69 l 754 432 l 306 432 l 306 113 q 314 51 306 71 q 346 24 322 31 q 421 17 369 17 q 424 8 424 17 q 421 0 424 0 q 343 1 372 0 l 222 3 l 118 1 q 42 0 90 0 q 39 8 39 0 q 42 17 39 17 q 113 24 90 17 q 143 51 135 31 q 151 113 151 71 l 151 756 q 143 817 151 797 q 113 844 135 836 q 44 851 92 851 q 40 860 40 851 q 44 868 40 868 l 119 867 q 222 864 183 864 q 344 867 275 864 l 421 868 q 424 860 424 868 q 421 851 424 851 q 347 843 371 851 q 315 815 324 835 q 306 753 306 794 l 306 471 l 754 471 l 754 753 q 746 815 754 794 q 714 843 738 835 q 639 851 690 851 q 635 860 635 851 q 639 868 635 868 l 707 867 q 832 864 776 864 q 939 867 869 864 l 1017 868 q 1021 860 1021 868 q 1017 851 1021 851 q 947 844 969 851 q 916 817 924 836 q 908 756 908 797 l 908 113 q 916 51 908 71 q 946 24 924 31 q 1017 17 968 17 m 388 -107 q 395 -103 388 -103 q 403 -106 403 -103 q 440 -183 403 -150 q 531 -217 476 -217 q 620 -183 583 -217 q 657 -106 657 -149 q 665 -103 657 -103 q 672 -107 672 -103 q 636 -274 672 -217 q 531 -332 600 -332 q 424 -274 461 -332 q 388 -107 388 -217 z "},"Ĥ":{"ha":1061,"x_min":39,"x_max":1021,"o":"m 1017 17 q 1021 8 1021 17 q 1017 0 1021 0 q 939 1 968 0 l 832 3 l 707 1 q 639 0 682 0 q 635 8 635 0 q 639 17 635 17 q 714 24 690 17 q 746 50 738 31 q 754 113 754 69 l 754 432 l 306 432 l 306 113 q 314 51 306 71 q 346 24 322 31 q 421 17 369 17 q 424 8 424 17 q 421 0 424 0 q 343 1 372 0 l 222 3 l 118 1 q 42 0 90 0 q 39 8 39 0 q 42 17 39 17 q 113 24 90 17 q 143 51 135 31 q 151 113 151 71 l 151 756 q 143 817 151 797 q 113 844 135 836 q 44 851 92 851 q 40 860 40 851 q 44 868 40 868 l 119 867 q 222 864 183 864 q 344 867 275 864 l 421 868 q 424 860 424 868 q 421 851 424 851 q 347 843 371 851 q 315 815 324 835 q 306 753 306 794 l 306 471 l 754 471 l 754 753 q 746 815 754 794 q 714 843 738 835 q 639 851 690 851 q 635 860 635 851 q 639 868 635 868 l 707 867 q 832 864 776 864 q 939 867 869 864 l 1017 868 q 1021 860 1021 868 q 1017 851 1021 851 q 947 844 969 851 q 916 817 924 836 q 908 756 908 797 l 908 113 q 916 51 908 71 q 946 24 924 31 q 1017 17 968 17 m 519 1136 q 536 1143 526 1143 q 551 1136 544 1143 l 693 975 q 694 972 694 975 q 691 967 694 969 q 686 965 688 964 l 536 1019 l 385 965 q 378 969 382 964 q 376 975 374 974 l 519 1136 z "},"Ḥ":{"ha":1061,"x_min":39,"x_max":1021,"o":"m 1017 17 q 1021 8 1021 17 q 1017 0 1021 0 q 939 1 968 0 l 832 3 l 707 1 q 639 0 682 0 q 635 8 635 0 q 639 17 635 17 q 714 24 690 17 q 746 50 738 31 q 754 113 754 69 l 754 432 l 306 432 l 306 113 q 314 51 306 71 q 346 24 322 31 q 421 17 369 17 q 424 8 424 17 q 421 0 424 0 q 343 1 372 0 l 222 3 l 118 1 q 42 0 90 0 q 39 8 39 0 q 42 17 39 17 q 113 24 90 17 q 143 51 135 31 q 151 113 151 71 l 151 756 q 143 817 151 797 q 113 844 135 836 q 44 851 92 851 q 40 860 40 851 q 44 868 40 868 l 119 867 q 222 864 183 864 q 344 867 275 864 l 421 868 q 424 860 424 868 q 421 851 424 851 q 347 843 371 851 q 315 815 324 835 q 306 753 306 794 l 306 471 l 754 471 l 754 753 q 746 815 754 794 q 714 843 738 835 q 639 851 690 851 q 635 860 635 851 q 639 868 635 868 l 707 867 q 832 864 776 864 q 939 867 869 864 l 1017 868 q 1021 860 1021 868 q 1017 851 1021 851 q 947 844 969 851 q 916 817 924 836 q 908 756 908 797 l 908 113 q 916 51 908 71 q 946 24 924 31 q 1017 17 968 17 m 532 -287 q 469 -265 492 -287 q 447 -203 447 -243 q 470 -145 447 -167 q 532 -124 493 -124 q 591 -145 569 -124 q 613 -203 613 -167 q 592 -265 613 -243 q 532 -287 571 -287 z "},"I":{"ha":475,"x_min":56,"x_max":418,"o":"m 315 113 q 322 50 315 69 q 349 24 329 31 q 414 17 369 17 q 418 8 418 17 q 414 0 418 0 q 342 1 368 0 l 236 3 l 133 1 q 58 0 106 0 q 56 8 56 0 q 58 17 56 17 q 124 24 103 17 q 152 51 144 31 q 160 113 160 71 l 160 756 q 152 817 160 797 q 124 844 144 836 q 58 851 103 851 q 56 860 56 851 q 58 868 56 868 l 133 867 q 236 864 197 864 q 343 867 279 864 l 414 868 q 418 860 418 868 q 414 851 418 851 q 350 843 371 851 q 322 815 329 835 q 315 753 315 794 l 315 113 z "},"Ĳ":{"ha":971,"x_min":49,"x_max":935,"o":"m 307 486 q 314 424 307 443 q 342 397 321 404 q 408 390 363 390 q 411 382 411 390 q 408 374 411 374 q 335 375 361 374 l 229 376 l 128 375 q 51 374 100 374 q 49 382 49 374 q 51 390 49 390 q 117 397 96 390 q 145 424 138 404 q 153 486 153 444 l 153 756 q 145 817 153 797 q 117 844 138 836 q 51 851 96 851 q 49 860 49 851 q 51 868 49 868 l 128 867 q 229 864 192 864 q 336 867 272 864 l 408 868 q 411 860 411 868 q 408 851 411 851 q 343 843 364 851 q 315 815 322 835 q 307 753 307 794 l 307 486 m 931 868 q 935 860 935 868 q 931 851 935 851 q 877 843 894 851 q 854 815 860 835 q 849 753 849 794 l 849 358 q 748 81 849 179 q 479 -18 647 -18 q 308 10 386 -18 q 185 85 231 39 q 140 181 140 131 q 163 239 140 215 q 226 263 185 263 q 288 237 271 263 q 315 158 304 211 q 339 82 325 111 q 386 32 353 53 q 481 11 419 11 q 692 278 692 11 l 692 756 q 683 817 692 797 q 650 844 674 836 q 575 851 626 851 q 572 860 572 851 q 575 868 572 868 l 661 867 q 768 864 728 864 q 865 867 807 864 l 931 868 z "},"Í":{"ha":475,"x_min":56,"x_max":418,"o":"m 315 113 q 322 50 315 69 q 349 24 329 31 q 414 17 369 17 q 418 8 418 17 q 414 0 418 0 q 342 1 368 0 l 236 3 l 133 1 q 58 0 106 0 q 56 8 56 0 q 58 17 56 17 q 124 24 103 17 q 152 51 144 31 q 160 113 160 71 l 160 756 q 152 817 160 797 q 124 844 144 836 q 58 851 103 851 q 56 860 56 851 q 58 868 56 868 l 133 867 q 236 864 197 864 q 343 867 279 864 l 414 868 q 418 860 418 868 q 414 851 418 851 q 350 843 371 851 q 322 815 329 835 q 315 753 315 794 l 315 113 m 100 942 q 93 948 94 942 q 96 957 92 954 q 208 1049 136 986 q 271 1101 250 1085 q 320 1097 278 1108 q 395 1069 363 1085 q 411 1050 428 1053 q 253 1003 325 1029 q 103 943 182 978 l 100 942 z "},"Ĭ":{"ha":475,"x_min":56,"x_max":418,"o":"m 315 113 q 322 50 315 69 q 349 24 329 31 q 414 17 369 17 q 418 8 418 17 q 414 0 418 0 q 342 1 368 0 l 236 3 l 133 1 q 58 0 106 0 q 56 8 56 0 q 58 17 56 17 q 124 24 103 17 q 152 51 144 31 q 160 113 160 71 l 160 756 q 152 817 160 797 q 124 844 144 836 q 58 851 103 851 q 56 860 56 851 q 58 868 56 868 l 133 867 q 236 864 197 864 q 343 867 279 864 l 414 868 q 418 860 418 868 q 414 851 418 851 q 350 843 371 851 q 322 815 329 835 q 315 753 315 794 l 315 113 m 238 958 q 131 1003 168 958 q 94 1135 94 1049 q 102 1139 94 1139 q 110 1136 110 1139 q 147 1089 110 1111 q 238 1067 185 1067 q 326 1089 289 1067 q 364 1136 364 1111 q 372 1139 364 1139 q 379 1135 379 1139 q 343 1003 379 1049 q 238 958 307 958 z "},"Ǐ":{"ha":475,"x_min":56,"x_max":418,"o":"m 315 113 q 322 50 315 69 q 349 24 329 31 q 414 17 369 17 q 418 8 418 17 q 414 0 418 0 q 342 1 368 0 l 236 3 l 133 1 q 58 0 106 0 q 56 8 56 0 q 58 17 56 17 q 124 24 103 17 q 152 51 144 31 q 160 113 160 71 l 160 756 q 152 817 160 797 q 124 844 144 836 q 58 851 103 851 q 56 860 56 851 q 58 868 56 868 l 133 867 q 236 864 197 864 q 343 867 279 864 l 414 868 q 418 860 418 868 q 414 851 418 851 q 350 843 371 851 q 322 815 329 835 q 315 753 315 794 l 315 113 m 78 1114 l 78 1117 q 81 1122 78 1119 q 86 1124 85 1125 l 238 1071 l 388 1126 l 389 1126 q 395 1123 393 1126 q 394 1117 397 1119 l 253 954 q 238 949 247 949 q 221 954 226 949 l 78 1114 z "},"Î":{"ha":475,"x_min":56,"x_max":418,"o":"m 315 113 q 322 50 315 69 q 349 24 329 31 q 414 17 369 17 q 418 8 418 17 q 414 0 418 0 q 342 1 368 0 l 236 3 l 133 1 q 58 0 106 0 q 56 8 56 0 q 58 17 56 17 q 124 24 103 17 q 152 51 144 31 q 160 113 160 71 l 160 756 q 152 817 160 797 q 124 844 144 836 q 58 851 103 851 q 56 860 56 851 q 58 868 56 868 l 133 867 q 236 864 197 864 q 343 867 279 864 l 414 868 q 418 860 418 868 q 414 851 418 851 q 350 843 371 851 q 322 815 329 835 q 315 753 315 794 l 315 113 m 222 1136 q 239 1143 229 1143 q 254 1136 247 1143 l 396 975 q 397 972 397 975 q 394 967 397 969 q 389 965 390 964 l 239 1019 l 88 965 q 81 969 85 964 q 79 975 76 974 l 222 1136 z "},"Ï":{"ha":475,"x_min":56,"x_max":418,"o":"m 315 113 q 322 50 315 69 q 349 24 329 31 q 414 17 369 17 q 418 8 418 17 q 414 0 418 0 q 342 1 368 0 l 236 3 l 133 1 q 58 0 106 0 q 56 8 56 0 q 58 17 56 17 q 124 24 103 17 q 152 51 144 31 q 160 113 160 71 l 160 756 q 152 817 160 797 q 124 844 144 836 q 58 851 103 851 q 56 860 56 851 q 58 868 56 868 l 133 867 q 236 864 197 864 q 343 867 279 864 l 414 868 q 418 860 418 868 q 414 851 418 851 q 350 843 371 851 q 322 815 329 835 q 315 753 315 794 l 315 113 m 132 976 q 76 997 96 976 q 56 1053 56 1017 q 76 1106 56 1086 q 132 1125 97 1125 q 186 1106 167 1125 q 206 1053 206 1086 q 186 997 206 1017 q 132 976 167 976 m 343 976 q 289 997 308 976 q 269 1053 269 1017 q 289 1105 269 1086 q 343 1124 308 1124 q 397 1105 378 1124 q 415 1053 415 1086 q 397 997 415 1017 q 343 976 378 976 z "},"İ":{"ha":475,"x_min":56,"x_max":418,"o":"m 315 113 q 322 50 315 69 q 349 24 329 31 q 414 17 369 17 q 418 8 418 17 q 414 0 418 0 q 342 1 368 0 l 236 3 l 133 1 q 58 0 106 0 q 56 8 56 0 q 58 17 56 17 q 124 24 103 17 q 152 51 144 31 q 160 113 160 71 l 160 756 q 152 817 160 797 q 124 844 144 836 q 58 851 103 851 q 56 860 56 851 q 58 868 56 868 l 133 867 q 236 864 197 864 q 343 867 279 864 l 414 868 q 418 860 418 868 q 414 851 418 851 q 350 843 371 851 q 322 815 329 835 q 315 753 315 794 l 315 113 m 239 990 q 176 1013 199 990 q 154 1075 154 1036 q 177 1133 154 1111 q 239 1156 200 1156 q 298 1134 276 1156 q 319 1075 319 1113 q 299 1013 319 1035 q 239 990 278 990 z "},"Ị":{"ha":475,"x_min":56,"x_max":418,"o":"m 315 113 q 322 50 315 69 q 349 24 329 31 q 414 17 369 17 q 418 8 418 17 q 414 0 418 0 q 342 1 368 0 l 236 3 l 133 1 q 58 0 106 0 q 56 8 56 0 q 58 17 56 17 q 124 24 103 17 q 152 51 144 31 q 160 113 160 71 l 160 756 q 152 817 160 797 q 124 844 144 836 q 58 851 103 851 q 56 860 56 851 q 58 868 56 868 l 133 867 q 236 864 197 864 q 343 867 279 864 l 414 868 q 418 860 418 868 q 414 851 418 851 q 350 843 371 851 q 322 815 329 835 q 315 753 315 794 l 315 113 m 239 -287 q 176 -265 199 -287 q 154 -203 154 -243 q 177 -145 154 -167 q 239 -124 200 -124 q 298 -145 276 -124 q 319 -203 319 -167 q 299 -265 319 -243 q 239 -287 278 -287 z "},"Ì":{"ha":475,"x_min":56,"x_max":418,"o":"m 315 113 q 322 50 315 69 q 349 24 329 31 q 414 17 369 17 q 418 8 418 17 q 414 0 418 0 q 342 1 368 0 l 236 3 l 133 1 q 58 0 106 0 q 56 8 56 0 q 58 17 56 17 q 124 24 103 17 q 152 51 144 31 q 160 113 160 71 l 160 756 q 152 817 160 797 q 124 844 144 836 q 58 851 103 851 q 56 860 56 851 q 58 868 56 868 l 133 867 q 236 864 197 864 q 343 867 279 864 l 414 868 q 418 860 418 868 q 414 851 418 851 q 350 843 371 851 q 322 815 329 835 q 315 753 315 794 l 315 113 m 376 943 q 68 1050 221 1013 q 84 1069 51 1053 q 159 1097 117 1085 q 208 1101 201 1108 l 274 1046 q 382 957 335 993 q 386 951 386 956 q 383 944 386 947 q 376 943 381 942 z "},"Ỉ":{"ha":475,"x_min":56,"x_max":418,"o":"m 315 113 q 322 50 315 69 q 349 24 329 31 q 414 17 369 17 q 418 8 418 17 q 414 0 418 0 q 342 1 368 0 l 236 3 l 133 1 q 58 0 106 0 q 56 8 56 0 q 58 17 56 17 q 124 24 103 17 q 152 51 144 31 q 160 113 160 71 l 160 756 q 152 817 160 797 q 124 844 144 836 q 58 851 103 851 q 56 860 56 851 q 58 868 56 868 l 133 867 q 236 864 197 864 q 343 867 279 864 l 414 868 q 418 860 418 868 q 414 851 418 851 q 350 843 371 851 q 322 815 329 835 q 315 753 315 794 l 315 113 m 239 904 q 231 901 239 901 q 222 904 224 901 q 219 935 219 926 q 240 1021 219 974 q 250 1048 242 1025 q 258 1096 258 1071 q 219 1146 258 1146 q 169 1132 200 1146 l 167 1132 q 159 1136 163 1132 q 160 1143 156 1140 q 274 1182 207 1182 q 344 1163 318 1182 q 371 1110 371 1143 q 353 1056 371 1081 q 299 996 335 1032 q 253 944 267 963 q 239 904 239 925 z "},"Ī":{"ha":475,"x_min":49,"x_max":426,"o":"m 315 113 q 322 50 315 69 q 349 24 329 31 q 414 17 369 17 q 418 8 418 17 q 414 0 418 0 q 342 1 368 0 l 236 3 l 133 1 q 58 0 106 0 q 56 8 56 0 q 58 17 56 17 q 124 24 103 17 q 152 51 144 31 q 160 113 160 71 l 160 756 q 152 817 160 797 q 124 844 144 836 q 58 851 103 851 q 56 860 56 851 q 58 868 56 868 l 133 867 q 236 864 197 864 q 343 867 279 864 l 414 868 q 418 860 418 868 q 414 851 418 851 q 350 843 371 851 q 322 815 329 835 q 315 753 315 794 l 315 113 m 63 990 q 53 998 57 990 q 49 1017 49 1006 q 53 1034 49 1026 q 63 1042 57 1042 l 411 1042 q 422 1034 418 1042 q 426 1017 426 1026 q 422 998 426 1006 q 411 990 418 990 l 63 990 z "},"Į":{"ha":475,"x_min":56,"x_max":418,"o":"m 414 17 q 418 8 418 17 q 414 0 418 0 q 346 1 369 0 l 247 3 q 221 -126 221 -56 q 237 -222 221 -178 q 281 -292 253 -265 q 340 -318 308 -318 q 383 -308 367 -318 l 386 -308 q 394 -312 390 -308 q 393 -319 397 -317 q 327 -367 360 -353 q 250 -382 294 -382 q 144 -342 182 -382 q 106 -233 106 -303 q 222 3 106 -118 l 129 1 q 58 0 103 0 q 56 8 56 0 q 58 17 56 17 q 124 24 103 17 q 152 51 144 31 q 160 113 160 71 l 160 756 q 152 817 160 797 q 124 844 144 836 q 58 851 103 851 q 56 860 56 851 q 58 868 56 868 l 133 867 q 236 864 197 864 q 343 867 279 864 l 414 868 q 418 860 418 868 q 414 851 418 851 q 350 843 371 851 q 322 815 329 835 q 315 753 315 794 l 315 113 q 322 50 315 69 q 349 24 329 31 q 414 17 369 17 z "},"Ĩ":{"ha":475,"x_min":56,"x_max":426,"o":"m 315 113 q 322 50 315 69 q 349 24 329 31 q 414 17 369 17 q 418 8 418 17 q 414 0 418 0 q 342 1 368 0 l 236 3 l 133 1 q 58 0 106 0 q 56 8 56 0 q 58 17 56 17 q 124 24 103 17 q 152 51 144 31 q 160 113 160 71 l 160 756 q 152 817 160 797 q 124 844 144 836 q 58 851 103 851 q 56 860 56 851 q 58 868 56 868 l 133 867 q 236 864 197 864 q 343 867 279 864 l 414 868 q 418 860 418 868 q 414 851 418 851 q 350 843 371 851 q 322 815 329 835 q 315 753 315 794 l 315 113 m 64 968 q 58 972 61 968 q 56 978 54 975 q 178 1090 115 1090 q 214 1084 192 1090 q 243 1076 236 1078 q 344 1057 307 1057 q 383 1065 368 1057 q 417 1094 397 1072 l 418 1094 q 425 1091 422 1094 q 426 1085 428 1088 q 365 994 389 1017 q 311 972 342 972 q 232 988 283 972 q 183 1000 208 994 q 136 1006 158 1006 q 99 999 110 1006 q 65 968 88 992 l 64 968 z "},"J":{"ha":471,"x_min":-79,"x_max":418,"o":"m 414 868 q 418 860 418 868 q 414 851 418 851 q 360 843 378 851 q 338 815 343 835 q 332 753 332 794 l 332 -6 q 255 -249 332 -161 q 40 -336 178 -336 q -46 -314 -12 -336 q -79 -253 -79 -292 q -61 -203 -79 -225 q -7 -182 -43 -182 q 47 -203 28 -182 q 81 -261 65 -224 q 97 -295 89 -283 q 118 -307 106 -307 q 161 -260 147 -307 q 175 -103 175 -212 l 175 756 q 166 817 175 797 q 133 844 157 836 q 58 851 110 851 q 56 860 56 851 q 58 868 56 868 l 144 867 q 251 864 211 864 q 349 867 290 864 l 414 868 z "},"Ĵ":{"ha":471,"x_min":-79,"x_max":418,"o":"m 414 868 q 418 860 418 868 q 414 851 418 851 q 360 843 378 851 q 338 815 343 835 q 332 753 332 794 l 332 -6 q 255 -249 332 -161 q 40 -336 178 -336 q -46 -314 -12 -336 q -79 -253 -79 -292 q -61 -203 -79 -225 q -7 -182 -43 -182 q 47 -203 28 -182 q 81 -261 65 -224 q 97 -295 89 -283 q 118 -307 106 -307 q 161 -260 147 -307 q 175 -103 175 -212 l 175 756 q 166 817 175 797 q 133 844 157 836 q 58 851 110 851 q 56 860 56 851 q 58 868 56 868 l 144 867 q 251 864 211 864 q 349 867 290 864 l 414 868 m 228 1136 q 244 1143 235 1143 q 260 1136 253 1143 l 401 975 q 403 972 403 975 q 399 967 403 969 q 394 965 396 964 l 244 1019 l 93 965 q 86 969 90 964 q 85 975 82 974 l 228 1136 z "},"K":{"ha":910,"x_min":39,"x_max":926,"o":"m 922 17 q 926 8 926 17 q 922 0 926 0 l 767 0 q 729 -1 744 0 q 704 -3 714 -3 q 666 8 682 -3 q 627 46 650 18 q 546 153 604 74 q 530 174 539 163 q 510 201 521 186 l 328 446 l 297 415 l 297 113 q 304 50 297 69 q 331 24 311 31 q 396 17 351 17 q 401 8 401 17 q 396 0 401 0 q 324 1 350 0 l 219 3 l 117 1 q 42 0 89 0 q 39 8 39 0 q 42 17 39 17 q 107 24 86 17 q 135 51 128 31 q 143 113 143 71 l 143 756 q 135 817 143 797 q 108 844 128 836 q 44 851 88 851 q 40 860 40 851 q 44 868 40 868 l 118 867 q 219 864 182 864 q 325 867 261 864 l 396 868 q 400 860 400 868 q 396 851 400 851 q 333 843 353 851 q 305 815 313 835 q 297 753 297 794 l 297 458 l 558 725 q 599 799 599 765 q 576 838 599 824 q 514 851 554 851 q 510 860 510 851 q 514 868 510 868 l 579 867 q 693 864 640 864 q 811 867 750 864 l 874 868 q 878 860 878 868 q 874 851 878 851 q 733 815 810 851 q 594 717 657 778 l 438 557 l 643 279 q 778 97 733 150 q 851 30 824 43 q 922 17 879 17 z "},"Ḱ":{"ha":910,"x_min":39,"x_max":926,"o":"m 922 17 q 926 8 926 17 q 922 0 926 0 l 767 0 q 729 -1 744 0 q 704 -3 714 -3 q 666 8 682 -3 q 627 46 650 18 q 546 153 604 74 q 530 174 539 163 q 510 201 521 186 l 328 446 l 297 415 l 297 113 q 304 50 297 69 q 331 24 311 31 q 396 17 351 17 q 401 8 401 17 q 396 0 401 0 q 324 1 350 0 l 219 3 l 117 1 q 42 0 89 0 q 39 8 39 0 q 42 17 39 17 q 107 24 86 17 q 135 51 128 31 q 143 113 143 71 l 143 756 q 135 817 143 797 q 108 844 128 836 q 44 851 88 851 q 40 860 40 851 q 44 868 40 868 l 118 867 q 219 864 182 864 q 325 867 261 864 l 396 868 q 400 860 400 868 q 396 851 400 851 q 333 843 353 851 q 305 815 313 835 q 297 753 297 794 l 297 458 l 558 725 q 599 799 599 765 q 576 838 599 824 q 514 851 554 851 q 510 860 510 851 q 514 868 510 868 l 579 867 q 693 864 640 864 q 811 867 750 864 l 874 868 q 878 860 878 868 q 874 851 878 851 q 733 815 810 851 q 594 717 657 778 l 438 557 l 643 279 q 778 97 733 150 q 851 30 824 43 q 922 17 879 17 m 322 942 q 315 948 317 942 q 318 957 314 954 q 431 1049 358 986 q 493 1101 472 1085 q 542 1097 500 1108 q 617 1069 585 1085 q 633 1050 650 1053 q 476 1003 547 1029 q 325 943 404 978 l 322 942 z "},"Ǩ":{"ha":910,"x_min":39,"x_max":926,"o":"m 922 17 q 926 8 926 17 q 922 0 926 0 l 767 0 q 729 -1 744 0 q 704 -3 714 -3 q 666 8 682 -3 q 627 46 650 18 q 546 153 604 74 q 530 174 539 163 q 510 201 521 186 l 328 446 l 297 415 l 297 113 q 304 50 297 69 q 331 24 311 31 q 396 17 351 17 q 401 8 401 17 q 396 0 401 0 q 324 1 350 0 l 219 3 l 117 1 q 42 0 89 0 q 39 8 39 0 q 42 17 39 17 q 107 24 86 17 q 135 51 128 31 q 143 113 143 71 l 143 756 q 135 817 143 797 q 108 844 128 836 q 44 851 88 851 q 40 860 40 851 q 44 868 40 868 l 118 867 q 219 864 182 864 q 325 867 261 864 l 396 868 q 400 860 400 868 q 396 851 400 851 q 333 843 353 851 q 305 815 313 835 q 297 753 297 794 l 297 458 l 558 725 q 599 799 599 765 q 576 838 599 824 q 514 851 554 851 q 510 860 510 851 q 514 868 510 868 l 579 867 q 693 864 640 864 q 811 867 750 864 l 874 868 q 878 860 878 868 q 874 851 878 851 q 733 815 810 851 q 594 717 657 778 l 438 557 l 643 279 q 778 97 733 150 q 851 30 824 43 q 922 17 879 17 m 300 1114 l 300 1117 q 303 1122 300 1119 q 308 1124 307 1125 l 460 1071 l 610 1126 l 611 1126 q 617 1123 615 1126 q 617 1117 619 1119 l 475 954 q 460 949 469 949 q 443 954 449 949 l 300 1114 z "},"Ķ":{"ha":910,"x_min":39,"x_max":926,"o":"m 922 17 q 926 8 926 17 q 922 0 926 0 l 767 0 q 729 -1 744 0 q 704 -3 714 -3 q 666 8 682 -3 q 627 46 650 18 q 546 153 604 74 q 530 174 539 163 q 510 201 521 186 l 328 446 l 297 415 l 297 113 q 304 50 297 69 q 331 24 311 31 q 396 17 351 17 q 401 8 401 17 q 396 0 401 0 q 324 1 350 0 l 219 3 l 117 1 q 42 0 89 0 q 39 8 39 0 q 42 17 39 17 q 107 24 86 17 q 135 51 128 31 q 143 113 143 71 l 143 756 q 135 817 143 797 q 108 844 128 836 q 44 851 88 851 q 40 860 40 851 q 44 868 40 868 l 118 867 q 219 864 182 864 q 325 867 261 864 l 396 868 q 400 860 400 868 q 396 851 400 851 q 333 843 353 851 q 305 815 313 835 q 297 753 297 794 l 297 458 l 558 725 q 599 799 599 765 q 576 838 599 824 q 514 851 554 851 q 510 860 510 851 q 514 868 510 868 l 579 867 q 693 864 640 864 q 811 867 750 864 l 874 868 q 878 860 878 868 q 874 851 878 851 q 733 815 810 851 q 594 717 657 778 l 438 557 l 643 279 q 778 97 733 150 q 851 30 824 43 q 922 17 879 17 m 479 -96 q 551 -126 526 -96 q 576 -208 576 -157 q 549 -304 576 -262 q 471 -382 521 -346 l 468 -383 q 460 -377 463 -383 q 461 -368 457 -371 q 510 -323 492 -346 q 528 -275 528 -300 q 514 -229 528 -243 q 457 -256 500 -256 q 408 -233 428 -256 q 389 -176 389 -211 q 415 -117 389 -139 q 479 -96 442 -96 z "},"L":{"ha":757,"x_min":39,"x_max":731,"o":"m 296 118 q 301 66 296 82 q 323 44 307 50 q 375 39 339 39 l 422 39 q 610 97 531 39 q 715 253 689 154 q 721 256 715 256 q 727 253 724 256 q 731 250 731 251 q 718 21 718 113 q 713 5 718 10 q 697 0 708 0 l 42 0 q 39 8 39 0 q 42 17 39 17 q 106 24 86 17 q 134 51 126 31 q 142 113 142 71 l 142 756 q 134 817 142 797 q 106 844 126 836 q 42 851 85 851 q 39 860 39 851 q 42 868 39 868 l 113 867 q 218 864 176 864 q 324 867 260 864 l 394 868 q 399 860 399 868 q 394 851 399 851 q 331 844 351 851 q 303 816 310 836 q 296 754 296 796 l 296 118 z "},"Ĺ":{"ha":757,"x_min":39,"x_max":731,"o":"m 296 118 q 301 66 296 82 q 323 44 307 50 q 375 39 339 39 l 422 39 q 610 97 531 39 q 715 253 689 154 q 721 256 715 256 q 727 253 724 256 q 731 250 731 251 q 718 21 718 113 q 713 5 718 10 q 697 0 708 0 l 42 0 q 39 8 39 0 q 42 17 39 17 q 106 24 86 17 q 134 51 126 31 q 142 113 142 71 l 142 756 q 134 817 142 797 q 106 844 126 836 q 42 851 85 851 q 39 860 39 851 q 42 868 39 868 l 113 867 q 218 864 176 864 q 324 867 260 864 l 394 868 q 399 860 399 868 q 394 851 399 851 q 331 844 351 851 q 303 816 310 836 q 296 754 296 796 l 296 118 m 89 942 q 82 948 83 942 q 85 957 81 954 q 197 1049 125 986 q 260 1101 239 1085 q 309 1097 267 1108 q 384 1069 351 1085 q 400 1050 417 1053 q 242 1003 314 1029 q 92 943 171 978 l 89 942 z "},"Ľ":{"ha":757,"x_min":39,"x_max":731,"o":"m 296 118 q 301 66 296 82 q 323 44 307 50 q 375 39 339 39 l 422 39 q 610 97 531 39 q 715 253 689 154 q 721 256 715 256 q 727 253 724 256 q 731 250 731 251 q 718 21 718 113 q 713 5 718 10 q 697 0 708 0 l 42 0 q 39 8 39 0 q 42 17 39 17 q 106 24 86 17 q 134 51 126 31 q 142 113 142 71 l 142 756 q 134 817 142 797 q 106 844 126 836 q 42 851 85 851 q 39 860 39 851 q 42 868 39 868 l 113 867 q 218 864 176 864 q 324 867 260 864 l 394 868 q 399 860 399 868 q 394 851 399 851 q 331 844 351 851 q 303 816 310 836 q 296 754 296 796 l 296 118 m 490 868 q 519 866 490 875 q 575 842 549 857 q 599 817 601 828 l 517 489 q 508 487 515 486 q 501 490 501 488 l 490 868 z "},"Ļ":{"ha":757,"x_min":39,"x_max":731,"o":"m 296 118 q 301 66 296 82 q 323 44 307 50 q 375 39 339 39 l 422 39 q 610 97 531 39 q 715 253 689 154 q 721 256 715 256 q 727 253 724 256 q 731 250 731 251 q 718 21 718 113 q 713 5 718 10 q 697 0 708 0 l 42 0 q 39 8 39 0 q 42 17 39 17 q 106 24 86 17 q 134 51 126 31 q 142 113 142 71 l 142 756 q 134 817 142 797 q 106 844 126 836 q 42 851 85 851 q 39 860 39 851 q 42 868 39 868 l 113 867 q 218 864 176 864 q 324 867 260 864 l 394 868 q 399 860 399 868 q 394 851 399 851 q 331 844 351 851 q 303 816 310 836 q 296 754 296 796 l 296 118 m 399 -96 q 471 -126 446 -96 q 496 -208 496 -157 q 468 -304 496 -262 q 390 -382 440 -346 l 388 -383 q 379 -377 382 -383 q 381 -368 376 -371 q 429 -323 411 -346 q 447 -275 447 -300 q 433 -229 447 -243 q 376 -256 419 -256 q 328 -233 347 -256 q 308 -176 308 -211 q 335 -117 308 -139 q 399 -96 361 -96 z "},"Ŀ":{"ha":757,"x_min":39,"x_max":731,"o":"m 296 118 q 301 66 296 82 q 323 44 307 50 q 375 39 339 39 l 422 39 q 610 97 531 39 q 715 253 689 154 q 721 256 715 256 q 727 253 724 256 q 731 250 731 251 q 718 21 718 113 q 713 5 718 10 q 697 0 708 0 l 42 0 q 39 8 39 0 q 42 17 39 17 q 106 24 86 17 q 134 51 126 31 q 142 113 142 71 l 142 756 q 134 817 142 797 q 106 844 126 836 q 42 851 85 851 q 39 860 39 851 q 42 868 39 868 l 113 867 q 218 864 176 864 q 324 867 260 864 l 394 868 q 399 860 399 868 q 394 851 399 851 q 331 844 351 851 q 303 816 310 836 q 296 754 296 796 l 296 118 m 594 356 q 533 378 556 356 q 510 440 510 401 q 533 499 510 476 q 594 521 556 521 q 655 499 633 521 q 676 440 676 478 q 655 378 676 400 q 594 356 633 356 z "},"Ḷ":{"ha":757,"x_min":39,"x_max":731,"o":"m 296 118 q 301 66 296 82 q 323 44 307 50 q 375 39 339 39 l 422 39 q 610 97 531 39 q 715 253 689 154 q 721 256 715 256 q 727 253 724 256 q 731 250 731 251 q 718 21 718 113 q 713 5 718 10 q 697 0 708 0 l 42 0 q 39 8 39 0 q 42 17 39 17 q 106 24 86 17 q 134 51 126 31 q 142 113 142 71 l 142 756 q 134 817 142 797 q 106 844 126 836 q 42 851 85 851 q 39 860 39 851 q 42 868 39 868 l 113 867 q 218 864 176 864 q 324 867 260 864 l 394 868 q 399 860 399 868 q 394 851 399 851 q 331 844 351 851 q 303 816 310 836 q 296 754 296 796 l 296 118 m 407 -287 q 344 -265 367 -287 q 322 -203 322 -243 q 345 -145 322 -167 q 407 -124 368 -124 q 466 -145 444 -124 q 488 -203 488 -167 q 467 -265 488 -243 q 407 -287 446 -287 z "},"Ḹ":{"ha":757,"x_min":38,"x_max":731,"o":"m 296 118 q 301 66 296 82 q 323 44 307 50 q 375 39 339 39 l 422 39 q 610 97 531 39 q 715 253 689 154 q 721 256 715 256 q 727 253 724 256 q 731 250 731 251 q 718 21 718 113 q 713 5 718 10 q 697 0 708 0 l 42 0 q 39 8 39 0 q 42 17 39 17 q 106 24 86 17 q 134 51 126 31 q 142 113 142 71 l 142 756 q 134 817 142 797 q 106 844 126 836 q 42 851 85 851 q 39 860 39 851 q 42 868 39 868 l 113 867 q 218 864 176 864 q 324 867 260 864 l 394 868 q 399 860 399 868 q 394 851 399 851 q 331 844 351 851 q 303 816 310 836 q 296 754 296 796 l 296 118 m 407 -287 q 344 -265 367 -287 q 322 -203 322 -243 q 345 -145 322 -167 q 407 -124 368 -124 q 466 -145 444 -124 q 488 -203 488 -167 q 467 -265 488 -243 q 407 -287 446 -287 m 51 990 q 38 1017 38 990 q 41 1034 38 1026 q 51 1042 44 1042 l 400 1042 q 410 1034 407 1042 q 414 1017 414 1026 q 400 990 414 990 l 51 990 z "},"Ḻ":{"ha":757,"x_min":39,"x_max":731,"o":"m 296 118 q 301 66 296 82 q 323 44 307 50 q 375 39 339 39 l 422 39 q 610 97 531 39 q 715 253 689 154 q 721 256 715 256 q 727 253 724 256 q 731 250 731 251 q 718 21 718 113 q 713 5 718 10 q 697 0 708 0 l 42 0 q 39 8 39 0 q 42 17 39 17 q 106 24 86 17 q 134 51 126 31 q 142 113 142 71 l 142 756 q 134 817 142 797 q 106 844 126 836 q 42 851 85 851 q 39 860 39 851 q 42 868 39 868 l 113 867 q 218 864 176 864 q 324 867 260 864 l 394 868 q 399 860 399 868 q 394 851 399 851 q 331 844 351 851 q 303 816 310 836 q 296 754 296 796 l 296 118 m 231 -169 q 220 -162 224 -169 q 217 -144 217 -154 q 231 -118 217 -118 l 579 -118 q 593 -144 593 -118 q 590 -162 593 -154 q 579 -169 586 -169 l 231 -169 z "},"Ł":{"ha":757,"x_min":39,"x_max":731,"o":"m 715 253 q 721 256 715 256 q 727 253 724 256 q 731 250 731 251 q 718 21 718 113 q 713 5 718 10 q 697 0 708 0 l 42 0 q 39 8 39 0 q 42 17 39 17 q 106 24 86 17 q 134 51 126 31 q 142 113 142 71 l 142 342 l 68 299 q 53 313 63 296 q 49 333 43 331 l 142 388 l 142 756 q 134 817 142 797 q 106 844 126 836 q 42 851 85 851 q 39 860 39 851 q 42 868 39 868 l 113 867 q 218 864 176 864 q 324 867 260 864 l 394 868 q 399 860 399 868 q 394 851 399 851 q 331 844 351 851 q 303 816 310 836 q 296 754 296 796 l 296 476 l 451 565 q 465 551 456 568 q 469 531 475 533 l 296 431 l 296 118 q 301 66 296 82 q 323 44 307 50 q 375 39 339 39 l 422 39 q 610 97 531 39 q 715 253 689 154 z "},"M":{"ha":1190,"x_min":33,"x_max":1160,"o":"m 1157 17 q 1160 8 1160 17 q 1157 0 1160 0 q 1082 1 1110 0 l 979 3 l 875 1 q 803 0 849 0 q 799 8 799 0 q 803 17 799 17 q 882 31 861 17 q 903 89 903 44 l 901 113 l 872 681 l 586 10 q 575 4 583 4 q 564 10 567 4 l 213 678 l 201 176 q 231 59 200 101 q 319 17 263 17 q 324 8 324 17 q 319 0 324 0 q 261 1 282 0 l 185 3 l 97 1 q 38 0 75 0 q 33 8 33 0 q 38 17 33 17 q 128 60 94 17 q 163 176 161 103 l 175 751 l 174 753 q 116 828 146 804 q 47 851 86 851 q 43 860 43 851 q 47 868 43 868 l 113 867 q 163 865 132 865 l 236 867 q 268 868 249 868 q 296 856 286 868 q 332 796 306 843 l 635 228 l 899 833 q 916 860 907 853 q 940 868 925 868 q 969 867 953 868 q 1006 865 985 865 l 1088 867 q 1143 868 1107 868 q 1147 860 1147 868 q 1143 851 1147 851 q 1049 825 1078 851 q 1022 743 1019 799 l 1056 113 q 1066 50 1058 69 q 1094 24 1074 31 q 1157 17 1114 17 z "},"Ṁ":{"ha":1190,"x_min":33,"x_max":1160,"o":"m 1157 17 q 1160 8 1160 17 q 1157 0 1160 0 q 1082 1 1110 0 l 979 3 l 875 1 q 803 0 849 0 q 799 8 799 0 q 803 17 799 17 q 882 31 861 17 q 903 89 903 44 l 901 113 l 872 681 l 586 10 q 575 4 583 4 q 564 10 567 4 l 213 678 l 201 176 q 231 59 200 101 q 319 17 263 17 q 324 8 324 17 q 319 0 324 0 q 261 1 282 0 l 185 3 l 97 1 q 38 0 75 0 q 33 8 33 0 q 38 17 33 17 q 128 60 94 17 q 163 176 161 103 l 175 751 l 174 753 q 116 828 146 804 q 47 851 86 851 q 43 860 43 851 q 47 868 43 868 l 113 867 q 163 865 132 865 l 236 867 q 268 868 249 868 q 296 856 286 868 q 332 796 306 843 l 635 228 l 899 833 q 916 860 907 853 q 940 868 925 868 q 969 867 953 868 q 1006 865 985 865 l 1088 867 q 1143 868 1107 868 q 1147 860 1147 868 q 1143 851 1147 851 q 1049 825 1078 851 q 1022 743 1019 799 l 1056 113 q 1066 50 1058 69 q 1094 24 1074 31 q 1157 17 1114 17 m 597 990 q 535 1013 557 990 q 513 1075 513 1036 q 535 1133 513 1111 q 597 1156 558 1156 q 656 1134 635 1156 q 678 1075 678 1113 q 657 1013 678 1035 q 597 990 636 990 z "},"Ṃ":{"ha":1190,"x_min":33,"x_max":1160,"o":"m 1157 17 q 1160 8 1160 17 q 1157 0 1160 0 q 1082 1 1110 0 l 979 3 l 875 1 q 803 0 849 0 q 799 8 799 0 q 803 17 799 17 q 882 31 861 17 q 903 89 903 44 l 901 113 l 872 681 l 586 10 q 575 4 583 4 q 564 10 567 4 l 213 678 l 201 176 q 231 59 200 101 q 319 17 263 17 q 324 8 324 17 q 319 0 324 0 q 261 1 282 0 l 185 3 l 97 1 q 38 0 75 0 q 33 8 33 0 q 38 17 33 17 q 128 60 94 17 q 163 176 161 103 l 175 751 l 174 753 q 116 828 146 804 q 47 851 86 851 q 43 860 43 851 q 47 868 43 868 l 113 867 q 163 865 132 865 l 236 867 q 268 868 249 868 q 296 856 286 868 q 332 796 306 843 l 635 228 l 899 833 q 916 860 907 853 q 940 868 925 868 q 969 867 953 868 q 1006 865 985 865 l 1088 867 q 1143 868 1107 868 q 1147 860 1147 868 q 1143 851 1147 851 q 1049 825 1078 851 q 1022 743 1019 799 l 1056 113 q 1066 50 1058 69 q 1094 24 1074 31 q 1157 17 1114 17 m 582 -287 q 519 -265 542 -287 q 497 -203 497 -243 q 520 -145 497 -167 q 582 -124 543 -124 q 641 -145 619 -124 q 663 -203 663 -167 q 642 -265 663 -243 q 582 -287 621 -287 z "},"N":{"ha":1021,"x_min":28,"x_max":1007,"o":"m 1004 868 q 1007 860 1007 868 q 1004 851 1007 851 q 917 808 949 851 q 885 690 885 764 l 885 -21 q 878 -26 885 -25 q 869 -25 872 -28 l 218 717 l 218 176 q 249 60 218 103 q 333 17 279 17 q 336 8 336 17 q 333 0 336 0 q 274 1 294 0 l 199 3 l 113 1 q 44 0 89 0 q 40 8 40 0 q 44 17 40 17 q 141 60 106 17 q 176 176 176 103 l 176 764 q 98 833 131 814 q 31 851 65 851 q 28 860 28 851 q 31 868 28 868 l 89 867 q 142 865 107 865 l 247 867 q 294 868 267 868 q 311 863 306 868 q 331 839 317 857 q 364 796 354 807 l 844 242 l 844 690 q 814 808 844 765 q 729 851 783 851 q 726 860 726 851 q 729 868 726 868 l 789 867 q 864 864 833 864 q 942 867 892 864 l 1004 868 z "},"Ń":{"ha":1021,"x_min":28,"x_max":1007,"o":"m 1004 868 q 1007 860 1007 868 q 1004 851 1007 851 q 917 808 949 851 q 885 690 885 764 l 885 -21 q 878 -26 885 -25 q 869 -25 872 -28 l 218 717 l 218 176 q 249 60 218 103 q 333 17 279 17 q 336 8 336 17 q 333 0 336 0 q 274 1 294 0 l 199 3 l 113 1 q 44 0 89 0 q 40 8 40 0 q 44 17 40 17 q 141 60 106 17 q 176 176 176 103 l 176 764 q 98 833 131 814 q 31 851 65 851 q 28 860 28 851 q 31 868 28 868 l 89 867 q 142 865 107 865 l 247 867 q 294 868 267 868 q 311 863 306 868 q 331 839 317 857 q 364 796 354 807 l 844 242 l 844 690 q 814 808 844 765 q 729 851 783 851 q 726 860 726 851 q 729 868 726 868 l 789 867 q 864 864 833 864 q 942 867 892 864 l 1004 868 m 393 942 q 386 948 388 942 q 389 957 385 954 q 501 1049 429 986 q 564 1101 543 1085 q 613 1097 571 1108 q 688 1069 656 1085 q 704 1050 721 1053 q 547 1003 618 1029 q 396 943 475 978 l 393 942 z "},"Ň":{"ha":1021,"x_min":28,"x_max":1007,"o":"m 1004 868 q 1007 860 1007 868 q 1004 851 1007 851 q 917 808 949 851 q 885 690 885 764 l 885 -21 q 878 -26 885 -25 q 869 -25 872 -28 l 218 717 l 218 176 q 249 60 218 103 q 333 17 279 17 q 336 8 336 17 q 333 0 336 0 q 274 1 294 0 l 199 3 l 113 1 q 44 0 89 0 q 40 8 40 0 q 44 17 40 17 q 141 60 106 17 q 176 176 176 103 l 176 764 q 98 833 131 814 q 31 851 65 851 q 28 860 28 851 q 31 868 28 868 l 89 867 q 142 865 107 865 l 247 867 q 294 868 267 868 q 311 863 306 868 q 331 839 317 857 q 364 796 354 807 l 844 242 l 844 690 q 814 808 844 765 q 729 851 783 851 q 726 860 726 851 q 729 868 726 868 l 789 867 q 864 864 833 864 q 942 867 892 864 l 1004 868 m 371 1114 l 371 1117 q 374 1122 371 1119 q 379 1124 378 1125 l 531 1071 l 681 1126 l 682 1126 q 688 1123 686 1126 q 688 1117 690 1119 l 546 954 q 531 949 540 949 q 514 954 519 949 l 371 1114 z "},"Ņ":{"ha":1021,"x_min":28,"x_max":1007,"o":"m 1004 868 q 1007 860 1007 868 q 1004 851 1007 851 q 917 808 949 851 q 885 690 885 764 l 885 -21 q 878 -26 885 -25 q 869 -25 872 -28 l 218 717 l 218 176 q 249 60 218 103 q 333 17 279 17 q 336 8 336 17 q 333 0 336 0 q 274 1 294 0 l 199 3 l 113 1 q 44 0 89 0 q 40 8 40 0 q 44 17 40 17 q 141 60 106 17 q 176 176 176 103 l 176 764 q 98 833 131 814 q 31 851 65 851 q 28 860 28 851 q 31 868 28 868 l 89 867 q 142 865 107 865 l 247 867 q 294 868 267 868 q 311 863 306 868 q 331 839 317 857 q 364 796 354 807 l 844 242 l 844 690 q 814 808 844 765 q 729 851 783 851 q 726 860 726 851 q 729 868 726 868 l 789 867 q 864 864 833 864 q 942 867 892 864 l 1004 868 m 513 -96 q 585 -126 560 -96 q 610 -208 610 -157 q 582 -304 610 -262 q 504 -382 554 -346 l 501 -383 q 493 -377 496 -383 q 494 -368 490 -371 q 543 -323 525 -346 q 561 -275 561 -300 q 547 -229 561 -243 q 490 -256 533 -256 q 442 -233 461 -256 q 422 -176 422 -211 q 449 -117 422 -139 q 513 -96 475 -96 z "},"Ṅ":{"ha":1021,"x_min":28,"x_max":1007,"o":"m 1004 868 q 1007 860 1007 868 q 1004 851 1007 851 q 917 808 949 851 q 885 690 885 764 l 885 -21 q 878 -26 885 -25 q 869 -25 872 -28 l 218 717 l 218 176 q 249 60 218 103 q 333 17 279 17 q 336 8 336 17 q 333 0 336 0 q 274 1 294 0 l 199 3 l 113 1 q 44 0 89 0 q 40 8 40 0 q 44 17 40 17 q 141 60 106 17 q 176 176 176 103 l 176 764 q 98 833 131 814 q 31 851 65 851 q 28 860 28 851 q 31 868 28 868 l 89 867 q 142 865 107 865 l 247 867 q 294 868 267 868 q 311 863 306 868 q 331 839 317 857 q 364 796 354 807 l 844 242 l 844 690 q 814 808 844 765 q 729 851 783 851 q 726 860 726 851 q 729 868 726 868 l 789 867 q 864 864 833 864 q 942 867 892 864 l 1004 868 m 532 990 q 469 1013 492 990 q 447 1075 447 1036 q 470 1133 447 1111 q 532 1156 493 1156 q 591 1134 569 1156 q 613 1075 613 1113 q 592 1013 613 1035 q 532 990 571 990 z "},"Ṇ":{"ha":1021,"x_min":28,"x_max":1007,"o":"m 1004 868 q 1007 860 1007 868 q 1004 851 1007 851 q 917 808 949 851 q 885 690 885 764 l 885 -21 q 878 -26 885 -25 q 869 -25 872 -28 l 218 717 l 218 176 q 249 60 218 103 q 333 17 279 17 q 336 8 336 17 q 333 0 336 0 q 274 1 294 0 l 199 3 l 113 1 q 44 0 89 0 q 40 8 40 0 q 44 17 40 17 q 141 60 106 17 q 176 176 176 103 l 176 764 q 98 833 131 814 q 31 851 65 851 q 28 860 28 851 q 31 868 28 868 l 89 867 q 142 865 107 865 l 247 867 q 294 868 267 868 q 311 863 306 868 q 331 839 317 857 q 364 796 354 807 l 844 242 l 844 690 q 814 808 844 765 q 729 851 783 851 q 726 860 726 851 q 729 868 726 868 l 789 867 q 864 864 833 864 q 942 867 892 864 l 1004 868 m 521 -287 q 458 -265 481 -287 q 436 -203 436 -243 q 459 -145 436 -167 q 521 -124 482 -124 q 580 -145 558 -124 q 601 -203 601 -167 q 581 -265 601 -243 q 521 -287 560 -287 z "},"Ŋ":{"ha":1021,"x_min":28,"x_max":1007,"o":"m 1004 868 q 1007 860 1007 868 q 1004 851 1007 851 q 917 808 949 851 q 885 690 885 764 l 885 -21 q 835 -199 885 -133 q 700 -265 785 -265 q 594 -240 635 -265 q 554 -175 554 -215 q 574 -123 554 -144 q 626 -101 594 -101 q 680 -121 667 -101 q 697 -175 693 -140 q 707 -215 700 -201 q 736 -228 714 -228 q 815 -172 786 -228 q 844 -22 844 -115 l 844 3 l 218 717 l 218 176 q 249 60 218 103 q 333 17 279 17 q 336 8 336 17 q 333 0 336 0 q 274 1 294 0 l 199 3 l 113 1 q 44 0 89 0 q 40 8 40 0 q 44 17 40 17 q 141 60 106 17 q 176 176 176 103 l 176 764 q 98 833 131 814 q 31 851 65 851 q 28 860 28 851 q 31 868 28 868 l 89 867 q 142 865 107 865 l 247 867 q 294 868 267 868 q 311 863 306 868 q 331 839 317 857 q 364 796 354 807 l 844 242 l 844 690 q 814 808 844 765 q 729 851 783 851 q 726 860 726 851 q 729 868 726 868 l 789 867 q 864 864 833 864 q 942 867 892 864 l 1004 868 z "},"Ṉ":{"ha":1021,"x_min":28,"x_max":1007,"o":"m 1004 868 q 1007 860 1007 868 q 1004 851 1007 851 q 917 808 949 851 q 885 690 885 764 l 885 -21 q 878 -26 885 -25 q 869 -25 872 -28 l 218 717 l 218 176 q 249 60 218 103 q 333 17 279 17 q 336 8 336 17 q 333 0 336 0 q 274 1 294 0 l 199 3 l 113 1 q 44 0 89 0 q 40 8 40 0 q 44 17 40 17 q 141 60 106 17 q 176 176 176 103 l 176 764 q 98 833 131 814 q 31 851 65 851 q 28 860 28 851 q 31 868 28 868 l 89 867 q 142 865 107 865 l 247 867 q 294 868 267 868 q 311 863 306 868 q 331 839 317 857 q 364 796 354 807 l 844 242 l 844 690 q 814 808 844 765 q 729 851 783 851 q 726 860 726 851 q 729 868 726 868 l 789 867 q 864 864 833 864 q 942 867 892 864 l 1004 868 m 344 -169 q 334 -162 338 -169 q 331 -144 331 -154 q 344 -118 331 -118 l 693 -118 q 707 -144 707 -118 q 703 -162 707 -154 q 693 -169 700 -169 l 344 -169 z "},"Ñ":{"ha":1021,"x_min":28,"x_max":1007,"o":"m 1004 868 q 1007 860 1007 868 q 1004 851 1007 851 q 917 808 949 851 q 885 690 885 764 l 885 -21 q 878 -26 885 -25 q 869 -25 872 -28 l 218 717 l 218 176 q 249 60 218 103 q 333 17 279 17 q 336 8 336 17 q 333 0 336 0 q 274 1 294 0 l 199 3 l 113 1 q 44 0 89 0 q 40 8 40 0 q 44 17 40 17 q 141 60 106 17 q 176 176 176 103 l 176 764 q 98 833 131 814 q 31 851 65 851 q 28 860 28 851 q 31 868 28 868 l 89 867 q 142 865 107 865 l 247 867 q 294 868 267 868 q 311 863 306 868 q 331 839 317 857 q 364 796 354 807 l 844 242 l 844 690 q 814 808 844 765 q 729 851 783 851 q 726 860 726 851 q 729 868 726 868 l 789 867 q 864 864 833 864 q 942 867 892 864 l 1004 868 m 643 1057 q 681 1065 667 1057 q 714 1094 696 1074 l 715 1094 q 723 1091 719 1094 q 724 1085 726 1088 q 663 995 688 1018 q 608 972 639 972 q 531 988 582 972 q 494 997 525 989 q 435 1006 463 1006 q 397 999 408 1006 q 364 968 386 992 l 363 968 q 355 972 358 968 q 353 978 351 975 q 409 1058 379 1025 q 475 1090 439 1090 q 539 1076 489 1090 q 581 1066 547 1075 q 643 1057 614 1057 z "},"O":{"ha":1064,"x_min":68,"x_max":996,"o":"m 508 -17 q 278 44 379 -17 q 123 208 178 104 q 68 433 68 311 q 140 678 68 576 q 326 832 213 781 q 557 883 439 883 q 789 822 689 883 q 942 658 889 760 q 996 443 996 557 q 929 211 996 317 q 751 44 863 106 q 508 -17 639 -17 m 554 18 q 694 63 632 18 q 790 195 756 108 q 825 403 825 282 q 786 631 825 531 q 674 789 747 732 q 501 846 600 846 q 307 751 375 846 q 239 485 239 656 q 280 244 239 350 q 392 78 321 138 q 554 18 464 18 z "},"Ó":{"ha":1064,"x_min":68,"x_max":996,"o":"m 508 -17 q 278 44 379 -17 q 123 208 178 104 q 68 433 68 311 q 140 678 68 576 q 326 832 213 781 q 557 883 439 883 q 789 822 689 883 q 942 658 889 760 q 996 443 996 557 q 929 211 996 317 q 751 44 863 106 q 508 -17 639 -17 m 554 18 q 694 63 632 18 q 790 195 756 108 q 825 403 825 282 q 786 631 825 531 q 674 789 747 732 q 501 846 600 846 q 307 751 375 846 q 239 485 239 656 q 280 244 239 350 q 392 78 321 138 q 554 18 464 18 m 401 942 q 394 948 396 942 q 397 957 393 954 q 510 1049 438 986 q 572 1101 551 1085 q 622 1097 579 1108 q 697 1069 664 1085 q 713 1050 729 1053 q 555 1003 626 1029 q 404 943 483 978 l 401 942 z "},"Ŏ":{"ha":1064,"x_min":68,"x_max":996,"o":"m 508 -17 q 278 44 379 -17 q 123 208 178 104 q 68 433 68 311 q 140 678 68 576 q 326 832 213 781 q 557 883 439 883 q 789 822 689 883 q 942 658 889 760 q 996 443 996 557 q 929 211 996 317 q 751 44 863 106 q 508 -17 639 -17 m 554 18 q 694 63 632 18 q 790 195 756 108 q 825 403 825 282 q 786 631 825 531 q 674 789 747 732 q 501 846 600 846 q 307 751 375 846 q 239 485 239 656 q 280 244 239 350 q 392 78 321 138 q 554 18 464 18 m 539 958 q 433 1003 469 958 q 396 1135 396 1049 q 403 1139 396 1139 q 411 1136 411 1139 q 449 1089 411 1111 q 539 1067 486 1067 q 628 1089 590 1067 q 665 1136 665 1111 q 673 1139 665 1139 q 681 1135 681 1139 q 644 1003 681 1049 q 539 958 608 958 z "},"Ǒ":{"ha":1064,"x_min":68,"x_max":996,"o":"m 508 -17 q 278 44 379 -17 q 123 208 178 104 q 68 433 68 311 q 140 678 68 576 q 326 832 213 781 q 557 883 439 883 q 789 822 689 883 q 942 658 889 760 q 996 443 996 557 q 929 211 996 317 q 751 44 863 106 q 508 -17 639 -17 m 554 18 q 694 63 632 18 q 790 195 756 108 q 825 403 825 282 q 786 631 825 531 q 674 789 747 732 q 501 846 600 846 q 307 751 375 846 q 239 485 239 656 q 280 244 239 350 q 392 78 321 138 q 554 18 464 18 m 379 1114 l 379 1117 q 383 1122 379 1119 q 388 1124 386 1125 l 539 1071 l 689 1126 l 690 1126 q 697 1123 694 1126 q 696 1117 699 1119 l 554 954 q 539 949 549 949 q 522 954 528 949 l 379 1114 z "},"Ô":{"ha":1064,"x_min":68,"x_max":996,"o":"m 508 -17 q 278 44 379 -17 q 123 208 178 104 q 68 433 68 311 q 140 678 68 576 q 326 832 213 781 q 557 883 439 883 q 789 822 689 883 q 942 658 889 760 q 996 443 996 557 q 929 211 996 317 q 751 44 863 106 q 508 -17 639 -17 m 554 18 q 694 63 632 18 q 790 195 756 108 q 825 403 825 282 q 786 631 825 531 q 674 789 747 732 q 501 846 600 846 q 307 751 375 846 q 239 485 239 656 q 280 244 239 350 q 392 78 321 138 q 554 18 464 18 m 524 1136 q 540 1143 531 1143 q 556 1136 549 1143 l 697 975 q 699 972 699 975 q 695 967 699 969 q 690 965 692 964 l 540 1019 l 389 965 q 382 969 386 964 q 381 975 378 974 l 524 1136 z "},"Ố":{"ha":1064,"x_min":68,"x_max":996,"o":"m 508 -17 q 278 44 379 -17 q 123 208 178 104 q 68 433 68 311 q 140 678 68 576 q 326 832 213 781 q 557 883 439 883 q 789 822 689 883 q 942 658 889 760 q 996 443 996 557 q 929 211 996 317 q 751 44 863 106 q 508 -17 639 -17 m 554 18 q 694 63 632 18 q 790 195 756 108 q 825 403 825 282 q 786 631 825 531 q 674 789 747 732 q 501 846 600 846 q 307 751 375 846 q 239 485 239 656 q 280 244 239 350 q 392 78 321 138 q 554 18 464 18 m 522 1071 q 538 1078 529 1078 q 554 1071 547 1078 l 696 910 q 697 907 697 910 q 694 901 697 904 q 689 900 690 899 l 539 954 l 388 900 q 381 903 385 899 q 379 910 376 908 l 522 1071 m 626 1038 q 619 1044 622 1038 q 618 1053 615 1050 q 699 1197 671 1139 q 710 1201 701 1201 q 767 1190 729 1201 q 830 1165 806 1178 q 840 1146 854 1151 q 733 1099 782 1125 q 629 1039 685 1074 l 626 1038 z "},"Ộ":{"ha":1064,"x_min":68,"x_max":996,"o":"m 508 -17 q 278 44 379 -17 q 123 208 178 104 q 68 433 68 311 q 140 678 68 576 q 326 832 213 781 q 557 883 439 883 q 789 822 689 883 q 942 658 889 760 q 996 443 996 557 q 929 211 996 317 q 751 44 863 106 q 508 -17 639 -17 m 554 18 q 694 63 632 18 q 790 195 756 108 q 825 403 825 282 q 786 631 825 531 q 674 789 747 732 q 501 846 600 846 q 307 751 375 846 q 239 485 239 656 q 280 244 239 350 q 392 78 321 138 q 554 18 464 18 m 550 -287 q 488 -265 510 -287 q 465 -203 465 -243 q 488 -145 465 -167 q 550 -124 511 -124 q 609 -145 588 -124 q 631 -203 631 -167 q 610 -265 631 -243 q 550 -287 589 -287 m 522 1071 q 538 1078 529 1078 q 554 1071 547 1078 l 696 910 q 697 907 697 910 q 694 901 697 904 q 689 900 690 899 l 539 954 l 388 900 q 381 903 385 899 q 379 910 376 908 l 522 1071 z "},"Ồ":{"ha":1064,"x_min":68,"x_max":996,"o":"m 508 -17 q 278 44 379 -17 q 123 208 178 104 q 68 433 68 311 q 140 678 68 576 q 326 832 213 781 q 557 883 439 883 q 789 822 689 883 q 942 658 889 760 q 996 443 996 557 q 929 211 996 317 q 751 44 863 106 q 508 -17 639 -17 m 554 18 q 694 63 632 18 q 790 195 756 108 q 825 403 825 282 q 786 631 825 531 q 674 789 747 732 q 501 846 600 846 q 307 751 375 846 q 239 485 239 656 q 280 244 239 350 q 392 78 321 138 q 554 18 464 18 m 522 1071 q 538 1078 529 1078 q 554 1071 547 1078 l 696 910 q 697 907 697 910 q 694 901 697 904 q 689 900 690 899 l 539 954 l 388 900 q 381 903 385 899 q 379 910 376 908 l 522 1071 m 751 1011 q 650 1072 696 1047 q 546 1118 604 1096 q 556 1137 532 1124 q 617 1162 579 1150 q 675 1174 656 1174 q 686 1169 685 1174 q 715 1111 692 1158 q 763 1025 738 1064 q 764 1021 764 1024 q 760 1013 764 1017 q 751 1011 757 1010 z "},"Ổ":{"ha":1064,"x_min":68,"x_max":996,"o":"m 508 -17 q 278 44 379 -17 q 123 208 178 104 q 68 433 68 311 q 140 678 68 576 q 326 832 213 781 q 557 883 439 883 q 789 822 689 883 q 942 658 889 760 q 996 443 996 557 q 929 211 996 317 q 751 44 863 106 q 508 -17 639 -17 m 554 18 q 694 63 632 18 q 790 195 756 108 q 825 403 825 282 q 786 631 825 531 q 674 789 747 732 q 501 846 600 846 q 307 751 375 846 q 239 485 239 656 q 280 244 239 350 q 392 78 321 138 q 554 18 464 18 m 522 1071 q 538 1078 529 1078 q 554 1071 547 1078 l 696 910 q 697 907 697 910 q 694 901 697 904 q 689 900 690 899 l 539 954 l 388 900 q 381 903 385 899 q 379 910 376 908 l 522 1071 m 663 1013 q 660 1032 660 1026 q 674 1085 660 1051 q 686 1133 686 1119 q 674 1166 686 1156 q 644 1176 661 1176 q 619 1172 629 1176 l 617 1171 q 610 1176 613 1171 q 610 1183 607 1181 q 694 1208 650 1208 q 751 1191 729 1208 q 772 1149 772 1174 q 760 1113 772 1129 q 722 1075 747 1097 q 689 1043 700 1057 q 678 1013 678 1029 q 671 1009 678 1010 q 663 1013 664 1008 z "},"Ỗ":{"ha":1064,"x_min":68,"x_max":996,"o":"m 508 -17 q 278 44 379 -17 q 123 208 178 104 q 68 433 68 311 q 140 678 68 576 q 326 832 213 781 q 557 883 439 883 q 789 822 689 883 q 942 658 889 760 q 996 443 996 557 q 929 211 996 317 q 751 44 863 106 q 508 -17 639 -17 m 554 18 q 694 63 632 18 q 790 195 756 108 q 825 403 825 282 q 786 631 825 531 q 674 789 747 732 q 501 846 600 846 q 307 751 375 846 q 239 485 239 656 q 280 244 239 350 q 392 78 321 138 q 554 18 464 18 m 522 1071 q 538 1078 529 1078 q 554 1071 547 1078 l 696 910 q 697 907 697 910 q 694 901 697 904 q 689 900 690 899 l 539 954 l 388 900 q 381 903 385 899 q 379 910 376 908 l 522 1071 m 654 1185 q 692 1193 678 1185 q 725 1222 707 1201 l 728 1224 q 733 1219 731 1224 q 735 1213 736 1215 q 674 1124 697 1146 q 619 1101 651 1101 q 542 1117 593 1101 q 493 1129 518 1124 q 446 1135 468 1135 q 408 1128 419 1135 q 375 1097 397 1121 l 374 1097 q 366 1101 369 1097 q 365 1107 363 1104 q 486 1219 428 1219 q 551 1206 501 1219 q 604 1191 576 1197 q 654 1185 632 1185 z "},"Ö":{"ha":1064,"x_min":68,"x_max":996,"o":"m 508 -17 q 278 44 379 -17 q 123 208 178 104 q 68 433 68 311 q 140 678 68 576 q 326 832 213 781 q 557 883 439 883 q 789 822 689 883 q 942 658 889 760 q 996 443 996 557 q 929 211 996 317 q 751 44 863 106 q 508 -17 639 -17 m 554 18 q 694 63 632 18 q 790 195 756 108 q 825 403 825 282 q 786 631 825 531 q 674 789 747 732 q 501 846 600 846 q 307 751 375 846 q 239 485 239 656 q 280 244 239 350 q 392 78 321 138 q 554 18 464 18 m 419 976 q 363 997 383 976 q 343 1053 343 1017 q 364 1106 343 1086 q 419 1125 385 1125 q 473 1106 454 1125 q 492 1053 492 1086 q 473 997 492 1017 q 419 976 454 976 m 661 976 q 606 997 625 976 q 586 1053 586 1017 q 606 1105 586 1086 q 661 1124 626 1124 q 715 1105 696 1124 q 733 1053 733 1086 q 715 997 733 1017 q 661 976 696 976 z "},"Ọ":{"ha":1064,"x_min":68,"x_max":996,"o":"m 508 -17 q 278 44 379 -17 q 123 208 178 104 q 68 433 68 311 q 140 678 68 576 q 326 832 213 781 q 557 883 439 883 q 789 822 689 883 q 942 658 889 760 q 996 443 996 557 q 929 211 996 317 q 751 44 863 106 q 508 -17 639 -17 m 554 18 q 694 63 632 18 q 790 195 756 108 q 825 403 825 282 q 786 631 825 531 q 674 789 747 732 q 501 846 600 846 q 307 751 375 846 q 239 485 239 656 q 280 244 239 350 q 392 78 321 138 q 554 18 464 18 m 550 -287 q 488 -265 510 -287 q 465 -203 465 -243 q 488 -145 465 -167 q 550 -124 511 -124 q 609 -145 588 -124 q 631 -203 631 -167 q 610 -265 631 -243 q 550 -287 589 -287 z "},"Ò":{"ha":1064,"x_min":68,"x_max":996,"o":"m 508 -17 q 278 44 379 -17 q 123 208 178 104 q 68 433 68 311 q 140 678 68 576 q 326 832 213 781 q 557 883 439 883 q 789 822 689 883 q 942 658 889 760 q 996 443 996 557 q 929 211 996 317 q 751 44 863 106 q 508 -17 639 -17 m 554 18 q 694 63 632 18 q 790 195 756 108 q 825 403 825 282 q 786 631 825 531 q 674 789 747 732 q 501 846 600 846 q 307 751 375 846 q 239 485 239 656 q 280 244 239 350 q 392 78 321 138 q 554 18 464 18 m 678 943 q 369 1050 522 1013 q 385 1069 353 1053 q 460 1097 418 1085 q 510 1101 503 1108 l 575 1046 q 683 957 636 993 q 688 951 688 956 q 685 944 688 947 q 678 943 682 942 z "},"Ỏ":{"ha":1064,"x_min":68,"x_max":996,"o":"m 508 -17 q 278 44 379 -17 q 123 208 178 104 q 68 433 68 311 q 140 678 68 576 q 326 832 213 781 q 557 883 439 883 q 789 822 689 883 q 942 658 889 760 q 996 443 996 557 q 929 211 996 317 q 751 44 863 106 q 508 -17 639 -17 m 554 18 q 694 63 632 18 q 790 195 756 108 q 825 403 825 282 q 786 631 825 531 q 674 789 747 732 q 501 846 600 846 q 307 751 375 846 q 239 485 239 656 q 280 244 239 350 q 392 78 321 138 q 554 18 464 18 m 540 904 q 533 901 540 901 q 524 904 525 901 q 521 935 521 926 q 542 1021 521 974 q 551 1048 543 1025 q 560 1096 560 1071 q 521 1146 560 1146 q 471 1132 501 1146 l 468 1132 q 460 1136 464 1132 q 461 1143 457 1140 q 575 1182 508 1182 q 646 1163 619 1182 q 672 1110 672 1143 q 654 1056 672 1081 q 600 996 636 1032 q 554 944 568 963 q 540 904 540 925 z "},"Ơ":{"ha":1064,"x_min":68,"x_max":1036,"o":"m 1036 919 q 992 825 1036 864 q 871 756 947 786 q 963 612 931 693 q 996 443 996 531 q 929 211 996 317 q 751 44 863 106 q 508 -17 639 -17 q 278 44 379 -17 q 123 208 178 104 q 68 433 68 311 q 140 678 68 576 q 326 832 213 781 q 557 883 439 883 q 723 853 647 883 q 856 771 799 824 q 928 843 928 804 q 915 872 928 857 q 901 896 906 886 q 897 921 897 906 q 919 973 897 954 q 969 992 940 992 q 1019 970 1001 992 q 1036 919 1036 949 m 554 18 q 694 63 632 18 q 790 195 756 108 q 825 403 825 282 q 786 631 825 531 q 674 789 747 732 q 501 846 600 846 q 307 751 375 846 q 239 485 239 656 q 280 244 239 350 q 392 78 321 138 q 554 18 464 18 z "},"Ớ":{"ha":1064,"x_min":68,"x_max":1036,"o":"m 1036 919 q 992 825 1036 864 q 871 756 947 786 q 963 612 931 693 q 996 443 996 531 q 929 211 996 317 q 751 44 863 106 q 508 -17 639 -17 q 278 44 379 -17 q 123 208 178 104 q 68 433 68 311 q 140 678 68 576 q 326 832 213 781 q 557 883 439 883 q 723 853 647 883 q 856 771 799 824 q 928 843 928 804 q 915 872 928 857 q 901 896 906 886 q 897 921 897 906 q 919 973 897 954 q 969 992 940 992 q 1019 970 1001 992 q 1036 919 1036 949 m 554 18 q 694 63 632 18 q 790 195 756 108 q 825 403 825 282 q 786 631 825 531 q 674 789 747 732 q 501 846 600 846 q 307 751 375 846 q 239 485 239 656 q 280 244 239 350 q 392 78 321 138 q 554 18 464 18 m 397 942 q 390 948 392 942 q 392 957 388 954 q 513 1054 435 988 q 567 1101 531 1071 q 616 1095 574 1107 q 691 1068 658 1083 q 707 1050 724 1053 q 399 942 543 1008 l 397 942 z "},"Ợ":{"ha":1064,"x_min":68,"x_max":1036,"o":"m 1036 919 q 992 825 1036 864 q 871 756 947 786 q 963 612 931 693 q 996 443 996 531 q 929 211 996 317 q 751 44 863 106 q 508 -17 639 -17 q 278 44 379 -17 q 123 208 178 104 q 68 433 68 311 q 140 678 68 576 q 326 832 213 781 q 557 883 439 883 q 723 853 647 883 q 856 771 799 824 q 928 843 928 804 q 915 872 928 857 q 901 896 906 886 q 897 921 897 906 q 919 973 897 954 q 969 992 940 992 q 1019 970 1001 992 q 1036 919 1036 949 m 554 18 q 694 63 632 18 q 790 195 756 108 q 825 403 825 282 q 786 631 825 531 q 674 789 747 732 q 501 846 600 846 q 307 751 375 846 q 239 485 239 656 q 280 244 239 350 q 392 78 321 138 q 554 18 464 18 m 535 -287 q 472 -265 494 -287 q 450 -203 450 -243 q 473 -145 450 -167 q 535 -124 496 -124 q 594 -145 572 -124 q 615 -203 615 -167 q 594 -265 615 -243 q 535 -287 574 -287 z "},"Ờ":{"ha":1064,"x_min":68,"x_max":1036,"o":"m 1036 919 q 992 825 1036 864 q 871 756 947 786 q 963 612 931 693 q 996 443 996 531 q 929 211 996 317 q 751 44 863 106 q 508 -17 639 -17 q 278 44 379 -17 q 123 208 178 104 q 68 433 68 311 q 140 678 68 576 q 326 832 213 781 q 557 883 439 883 q 723 853 647 883 q 856 771 799 824 q 928 843 928 804 q 915 872 928 857 q 901 896 906 886 q 897 921 897 906 q 919 973 897 954 q 969 992 940 992 q 1019 970 1001 992 q 1036 919 1036 949 m 554 18 q 694 63 632 18 q 790 195 756 108 q 825 403 825 282 q 786 631 825 531 q 674 789 747 732 q 501 846 600 846 q 307 751 375 846 q 239 485 239 656 q 280 244 239 350 q 392 78 321 138 q 554 18 464 18 m 672 943 q 364 1050 517 1013 q 380 1069 347 1053 q 455 1097 413 1085 q 504 1101 497 1108 l 569 1046 q 678 957 631 993 q 682 951 682 956 q 679 944 682 947 q 672 943 676 942 z "},"Ở":{"ha":1064,"x_min":68,"x_max":1036,"o":"m 1036 919 q 992 825 1036 864 q 871 756 947 786 q 963 612 931 693 q 996 443 996 531 q 929 211 996 317 q 751 44 863 106 q 508 -17 639 -17 q 278 44 379 -17 q 123 208 178 104 q 68 433 68 311 q 140 678 68 576 q 326 832 213 781 q 557 883 439 883 q 723 853 647 883 q 856 771 799 824 q 928 843 928 804 q 915 872 928 857 q 901 896 906 886 q 897 921 897 906 q 919 973 897 954 q 969 992 940 992 q 1019 970 1001 992 q 1036 919 1036 949 m 554 18 q 694 63 632 18 q 790 195 756 108 q 825 403 825 282 q 786 631 825 531 q 674 789 747 732 q 501 846 600 846 q 307 751 375 846 q 239 485 239 656 q 280 244 239 350 q 392 78 321 138 q 554 18 464 18 m 536 918 q 528 915 536 915 q 519 918 521 914 q 517 950 517 929 q 538 1035 517 988 q 547 1062 539 1039 q 556 1110 556 1085 q 517 1158 556 1158 q 465 1146 497 1158 l 463 1144 q 457 1149 460 1144 q 456 1157 454 1154 q 569 1196 507 1196 q 640 1176 614 1196 q 667 1122 667 1157 q 649 1069 667 1094 q 596 1010 631 1044 q 549 958 564 978 q 536 918 535 939 z "},"Ỡ":{"ha":1064,"x_min":68,"x_max":1036,"o":"m 1036 919 q 992 825 1036 864 q 871 756 947 786 q 963 612 931 693 q 996 443 996 531 q 929 211 996 317 q 751 44 863 106 q 508 -17 639 -17 q 278 44 379 -17 q 123 208 178 104 q 68 433 68 311 q 140 678 68 576 q 326 832 213 781 q 557 883 439 883 q 723 853 647 883 q 856 771 799 824 q 928 843 928 804 q 915 872 928 857 q 901 896 906 886 q 897 921 897 906 q 919 973 897 954 q 969 992 940 992 q 1019 970 1001 992 q 1036 919 1036 949 m 554 18 q 694 63 632 18 q 790 195 756 108 q 825 403 825 282 q 786 631 825 531 q 674 789 747 732 q 501 846 600 846 q 307 751 375 846 q 239 485 239 656 q 280 244 239 350 q 392 78 321 138 q 554 18 464 18 m 638 1072 q 676 1081 661 1072 q 708 1110 690 1089 l 711 1111 q 717 1107 714 1111 q 718 1100 719 1103 q 658 1011 681 1033 q 603 989 635 989 q 525 1004 576 989 q 476 1017 501 1011 q 429 1022 451 1022 q 392 1015 403 1022 q 358 985 381 1008 l 357 985 q 349 988 353 985 q 349 994 346 992 q 469 1107 411 1107 q 535 1093 485 1107 q 588 1078 560 1085 q 638 1072 615 1072 z "},"Ő":{"ha":1064,"x_min":68,"x_max":996,"o":"m 508 -17 q 278 44 379 -17 q 123 208 178 104 q 68 433 68 311 q 140 678 68 576 q 326 832 213 781 q 557 883 439 883 q 789 822 689 883 q 942 658 889 760 q 996 443 996 557 q 929 211 996 317 q 751 44 863 106 q 508 -17 639 -17 m 554 18 q 694 63 632 18 q 790 195 756 108 q 825 403 825 282 q 786 631 825 531 q 674 789 747 732 q 501 846 600 846 q 307 751 375 846 q 239 485 239 656 q 280 244 239 350 q 392 78 321 138 q 554 18 464 18 m 381 926 q 373 932 375 926 q 374 942 371 938 q 499 1118 449 1035 q 510 1122 501 1122 q 560 1110 526 1122 q 614 1085 593 1099 q 624 1067 635 1072 q 385 928 497 1010 l 381 926 m 592 926 q 585 932 588 926 q 585 942 582 938 q 710 1118 636 1001 q 721 1122 713 1122 q 771 1110 738 1122 q 825 1085 804 1099 q 835 1067 846 1072 q 596 928 708 1010 l 592 926 z "},"Ō":{"ha":1064,"x_min":68,"x_max":996,"o":"m 508 -17 q 278 44 379 -17 q 123 208 178 104 q 68 433 68 311 q 140 678 68 576 q 326 832 213 781 q 557 883 439 883 q 789 822 689 883 q 942 658 889 760 q 996 443 996 557 q 929 211 996 317 q 751 44 863 106 q 508 -17 639 -17 m 554 18 q 694 63 632 18 q 790 195 756 108 q 825 403 825 282 q 786 631 825 531 q 674 789 747 732 q 501 846 600 846 q 307 751 375 846 q 239 485 239 656 q 280 244 239 350 q 392 78 321 138 q 554 18 464 18 m 364 990 q 354 998 358 990 q 350 1017 350 1006 q 354 1034 350 1026 q 364 1042 358 1042 l 713 1042 q 724 1034 719 1042 q 728 1017 728 1026 q 724 998 728 1006 q 713 990 719 990 l 364 990 z "},"Ǫ":{"ha":1064,"x_min":68,"x_max":996,"o":"m 996 443 q 945 239 996 333 q 807 81 894 144 q 613 -6 719 17 q 555 -81 572 -46 q 538 -162 538 -117 q 574 -279 538 -235 q 672 -324 610 -324 q 706 -319 688 -324 q 732 -308 724 -314 l 735 -308 q 742 -312 739 -308 q 742 -319 746 -317 q 586 -382 665 -382 q 469 -337 515 -382 q 422 -229 422 -293 q 571 -12 422 -125 q 508 -17 540 -17 q 278 44 379 -17 q 123 208 178 104 q 68 433 68 311 q 140 678 68 576 q 326 832 213 781 q 557 883 439 883 q 789 822 689 883 q 942 658 889 760 q 996 443 996 557 m 239 485 q 280 244 239 350 q 392 78 321 138 q 554 18 464 18 q 694 63 632 18 q 790 195 756 108 q 825 403 825 282 q 786 631 825 531 q 674 789 747 732 q 501 846 600 846 q 307 751 375 846 q 239 485 239 656 z "},"Ø":{"ha":1096,"x_min":68,"x_max":996,"o":"m 876 750 q 965 608 935 689 q 996 443 996 528 q 929 211 996 317 q 751 44 863 106 q 508 -17 639 -17 q 221 85 343 -17 l 125 -12 l 124 -14 q 106 -2 117 -14 q 99 15 94 10 l 193 111 q 101 257 133 174 q 68 433 68 340 q 140 678 68 576 q 326 832 213 781 q 557 883 439 883 q 718 856 644 883 q 849 776 792 828 l 950 879 l 951 879 q 970 868 958 879 q 978 853 982 857 l 876 750 m 239 485 q 293 213 239 329 l 760 686 q 651 804 717 763 q 501 846 585 846 q 307 751 375 846 q 239 485 239 656 m 554 18 q 694 63 632 18 q 790 195 756 108 q 825 403 825 282 q 778 650 825 543 l 311 176 q 417 60 354 101 q 554 18 481 18 z "},"Ǿ":{"ha":1096,"x_min":68,"x_max":996,"o":"m 876 750 q 965 608 935 689 q 996 443 996 528 q 929 211 996 317 q 751 44 863 106 q 508 -17 639 -17 q 221 85 343 -17 l 125 -12 l 124 -14 q 106 -2 117 -14 q 99 15 94 10 l 193 111 q 101 257 133 174 q 68 433 68 340 q 140 678 68 576 q 326 832 213 781 q 557 883 439 883 q 718 856 644 883 q 849 776 792 828 l 950 879 l 951 879 q 970 868 958 879 q 978 853 982 857 l 876 750 m 239 485 q 293 213 239 329 l 760 686 q 651 804 717 763 q 501 846 585 846 q 307 751 375 846 q 239 485 239 656 m 554 18 q 694 63 632 18 q 790 195 756 108 q 825 403 825 282 q 778 650 825 543 l 311 176 q 417 60 354 101 q 554 18 481 18 m 424 942 q 417 948 418 942 q 419 957 415 954 q 532 1049 460 986 q 594 1101 574 1085 q 644 1097 601 1108 q 719 1069 686 1085 q 735 1050 751 1053 q 577 1003 649 1029 q 426 943 506 978 l 424 942 z "},"Õ":{"ha":1064,"x_min":68,"x_max":996,"o":"m 508 -17 q 278 44 379 -17 q 123 208 178 104 q 68 433 68 311 q 140 678 68 576 q 326 832 213 781 q 557 883 439 883 q 789 822 689 883 q 942 658 889 760 q 996 443 996 557 q 929 211 996 317 q 751 44 863 106 q 508 -17 639 -17 m 554 18 q 694 63 632 18 q 790 195 756 108 q 825 403 825 282 q 786 631 825 531 q 674 789 747 732 q 501 846 600 846 q 307 751 375 846 q 239 485 239 656 q 280 244 239 350 q 392 78 321 138 q 554 18 464 18 m 651 1057 q 690 1065 675 1057 q 722 1094 704 1074 l 724 1094 q 731 1091 728 1094 q 732 1085 735 1088 q 672 995 696 1018 q 617 972 647 972 q 539 988 590 972 q 502 997 533 989 q 443 1006 471 1006 q 406 999 417 1006 q 372 968 394 992 l 371 968 q 363 972 367 968 q 361 978 360 975 q 417 1058 388 1025 q 483 1090 447 1090 q 547 1076 497 1090 q 589 1066 556 1075 q 651 1057 622 1057 z "},"Œ":{"ha":1294,"x_min":68,"x_max":1233,"o":"m 1217 221 q 1222 224 1217 224 q 1230 222 1226 224 q 1233 218 1233 219 q 1219 21 1219 110 q 1215 5 1219 10 q 1199 0 1211 0 l 756 0 q 667 -3 728 0 q 578 -6 608 -6 q 312 50 428 -6 q 132 202 196 106 q 68 418 68 299 q 135 656 68 553 q 313 815 201 758 q 558 871 425 871 q 663 869 628 871 l 769 868 l 1175 868 q 1188 856 1188 868 l 1190 671 q 1183 667 1190 668 q 1175 669 1176 665 q 1137 740 1167 703 q 1065 804 1107 778 q 976 831 1022 831 l 918 831 q 858 812 876 831 q 839 754 839 793 l 839 471 l 954 471 q 1077 499 1035 471 q 1119 576 1119 526 q 1128 581 1119 581 q 1136 576 1136 581 l 1135 499 q 1133 451 1133 482 l 1135 385 q 1138 310 1138 338 q 1129 307 1138 307 q 1121 310 1121 307 q 1077 399 1121 367 q 951 432 1033 432 l 839 432 l 839 118 q 901 39 839 39 l 964 39 q 1069 64 1015 39 q 1162 131 1122 89 q 1217 221 1201 174 m 683 756 q 676 810 683 793 q 645 835 668 828 q 574 842 622 842 q 399 796 475 842 q 281 661 324 750 q 239 449 239 572 q 279 233 239 329 q 394 81 319 136 q 565 25 468 25 q 642 32 618 25 q 675 56 667 39 q 683 113 683 74 l 683 756 z "},"P":{"ha":768,"x_min":43,"x_max":717,"o":"m 300 118 q 310 53 300 74 q 347 25 319 33 q 433 17 374 17 q 438 8 438 17 q 433 0 438 0 q 344 1 376 0 l 224 3 l 122 1 q 47 0 94 0 q 43 8 43 0 q 47 17 43 17 q 112 24 92 17 q 139 51 132 31 q 146 113 146 71 l 146 756 q 139 817 146 797 q 111 844 132 836 q 47 851 90 851 q 43 860 43 851 q 47 868 43 868 l 121 867 q 222 864 185 864 q 301 868 256 864 q 347 871 319 869 q 411 872 375 872 q 635 813 553 872 q 717 631 717 754 q 672 485 717 544 q 558 394 628 425 q 414 364 488 364 q 349 371 376 364 q 346 378 346 371 q 348 386 346 382 q 353 389 350 390 q 400 383 374 383 q 506 443 464 383 q 549 613 549 503 q 502 782 549 722 q 367 842 456 842 q 314 824 328 842 q 300 753 300 806 l 300 118 z "},"Þ":{"ha":763,"x_min":53,"x_max":718,"o":"m 413 204 q 510 265 471 204 q 550 439 550 325 q 505 606 550 549 q 383 663 460 663 q 294 656 343 663 l 294 118 q 304 53 294 74 q 341 25 314 33 q 428 17 368 17 q 431 8 431 17 q 428 0 431 0 q 338 1 369 0 l 218 3 l 125 1 q 57 0 100 0 q 53 8 53 0 q 57 17 53 17 q 110 24 93 17 q 134 51 128 31 q 140 113 140 71 l 140 756 q 134 817 140 797 q 110 844 128 836 q 57 851 93 851 q 53 860 53 851 q 57 868 53 868 l 125 867 q 218 864 183 864 q 338 867 263 864 l 428 868 q 431 860 431 868 q 428 851 431 851 q 341 843 368 851 q 304 814 314 835 q 294 749 294 793 l 294 686 q 418 693 351 693 q 636 638 554 693 q 718 460 718 582 q 674 307 718 369 q 564 215 631 244 q 428 185 497 185 q 358 192 396 185 q 356 199 356 192 q 358 207 356 203 q 363 210 360 211 q 413 204 396 204 z "},"Q":{"ha":1064,"x_min":68,"x_max":1043,"o":"m 1035 -249 q 1041 -254 1039 -247 q 1040 -262 1043 -261 q 928 -279 983 -279 q 707 -210 821 -279 q 511 -17 593 -140 l 508 -17 q 278 44 379 -17 q 123 208 178 104 q 68 433 68 311 q 140 678 68 576 q 326 832 213 781 q 557 883 439 883 q 789 822 689 883 q 942 658 889 760 q 996 443 996 557 q 909 181 996 297 q 683 14 822 64 q 823 -177 738 -103 q 986 -251 908 -251 q 1035 -249 1010 -251 m 239 485 q 280 244 239 350 q 392 78 321 138 q 554 18 464 18 q 694 63 632 18 q 790 195 756 108 q 825 403 825 282 q 786 631 825 531 q 674 789 747 732 q 501 846 600 846 q 307 751 375 846 q 239 485 239 656 z "},"R":{"ha":969,"x_min":53,"x_max":986,"o":"m 983 17 q 986 8 986 17 q 983 0 986 0 l 736 0 q 622 115 706 0 q 421 435 539 229 q 389 433 410 433 q 313 435 335 433 l 313 113 q 319 50 313 69 q 347 24 326 31 q 411 17 367 17 q 414 8 414 17 q 411 0 414 0 q 339 1 365 0 l 233 3 l 132 1 q 57 0 104 0 q 53 8 53 0 q 57 17 53 17 q 122 24 101 17 q 149 51 142 31 q 157 113 157 71 l 157 756 q 150 817 157 797 q 122 844 143 836 q 58 851 101 851 q 56 860 56 851 q 58 868 56 868 l 132 867 q 233 864 196 864 q 322 868 274 864 q 362 871 338 869 q 419 872 386 872 q 617 826 547 872 q 688 696 688 779 q 649 574 688 632 q 547 479 610 515 q 734 206 658 304 q 869 62 810 107 q 983 17 928 17 m 313 475 q 393 469 346 469 q 472 485 443 469 q 515 538 501 500 q 528 643 528 575 q 494 800 528 757 q 399 843 461 843 q 332 822 351 843 q 313 753 313 801 l 313 475 z "},"Ŕ":{"ha":969,"x_min":53,"x_max":986,"o":"m 983 17 q 986 8 986 17 q 983 0 986 0 l 736 0 q 622 115 706 0 q 421 435 539 229 q 389 433 410 433 q 313 435 335 433 l 313 113 q 319 50 313 69 q 347 24 326 31 q 411 17 367 17 q 414 8 414 17 q 411 0 414 0 q 339 1 365 0 l 233 3 l 132 1 q 57 0 104 0 q 53 8 53 0 q 57 17 53 17 q 122 24 101 17 q 149 51 142 31 q 157 113 157 71 l 157 756 q 150 817 157 797 q 122 844 143 836 q 58 851 101 851 q 56 860 56 851 q 58 868 56 868 l 132 867 q 233 864 196 864 q 322 868 274 864 q 362 871 338 869 q 419 872 386 872 q 617 826 547 872 q 688 696 688 779 q 649 574 688 632 q 547 479 610 515 q 734 206 658 304 q 869 62 810 107 q 983 17 928 17 m 313 475 q 393 469 346 469 q 472 485 443 469 q 515 538 501 500 q 528 643 528 575 q 494 800 528 757 q 399 843 461 843 q 332 822 351 843 q 313 753 313 801 l 313 475 m 219 942 q 213 948 214 942 q 215 957 211 954 q 328 1049 256 986 q 390 1101 369 1085 q 440 1097 397 1108 q 515 1069 482 1085 q 531 1050 547 1053 q 373 1003 444 1029 q 222 943 301 978 l 219 942 z "},"Ř":{"ha":969,"x_min":53,"x_max":986,"o":"m 983 17 q 986 8 986 17 q 983 0 986 0 l 736 0 q 622 115 706 0 q 421 435 539 229 q 389 433 410 433 q 313 435 335 433 l 313 113 q 319 50 313 69 q 347 24 326 31 q 411 17 367 17 q 414 8 414 17 q 411 0 414 0 q 339 1 365 0 l 233 3 l 132 1 q 57 0 104 0 q 53 8 53 0 q 57 17 53 17 q 122 24 101 17 q 149 51 142 31 q 157 113 157 71 l 157 756 q 150 817 157 797 q 122 844 143 836 q 58 851 101 851 q 56 860 56 851 q 58 868 56 868 l 132 867 q 233 864 196 864 q 322 868 274 864 q 362 871 338 869 q 419 872 386 872 q 617 826 547 872 q 688 696 688 779 q 649 574 688 632 q 547 479 610 515 q 734 206 658 304 q 869 62 810 107 q 983 17 928 17 m 313 475 q 393 469 346 469 q 472 485 443 469 q 515 538 501 500 q 528 643 528 575 q 494 800 528 757 q 399 843 461 843 q 332 822 351 843 q 313 753 313 801 l 313 475 m 197 1114 l 197 1117 q 201 1122 197 1119 q 206 1124 204 1125 l 357 1071 l 507 1126 l 508 1126 q 515 1123 513 1126 q 514 1117 517 1119 l 372 954 q 357 949 367 949 q 340 954 346 949 l 197 1114 z "},"Ŗ":{"ha":969,"x_min":53,"x_max":986,"o":"m 983 17 q 986 8 986 17 q 983 0 986 0 l 736 0 q 622 115 706 0 q 421 435 539 229 q 389 433 410 433 q 313 435 335 433 l 313 113 q 319 50 313 69 q 347 24 326 31 q 411 17 367 17 q 414 8 414 17 q 411 0 414 0 q 339 1 365 0 l 233 3 l 132 1 q 57 0 104 0 q 53 8 53 0 q 57 17 53 17 q 122 24 101 17 q 149 51 142 31 q 157 113 157 71 l 157 756 q 150 817 157 797 q 122 844 143 836 q 58 851 101 851 q 56 860 56 851 q 58 868 56 868 l 132 867 q 233 864 196 864 q 322 868 274 864 q 362 871 338 869 q 419 872 386 872 q 617 826 547 872 q 688 696 688 779 q 649 574 688 632 q 547 479 610 515 q 734 206 658 304 q 869 62 810 107 q 983 17 928 17 m 313 475 q 393 469 346 469 q 472 485 443 469 q 515 538 501 500 q 528 643 528 575 q 494 800 528 757 q 399 843 461 843 q 332 822 351 843 q 313 753 313 801 l 313 475 m 472 -96 q 544 -126 519 -96 q 569 -208 569 -157 q 542 -304 569 -262 q 464 -382 514 -346 l 461 -383 q 453 -377 456 -383 q 454 -368 450 -371 q 503 -323 485 -346 q 521 -275 521 -300 q 507 -229 521 -243 q 450 -256 493 -256 q 401 -233 421 -256 q 382 -176 382 -211 q 408 -117 382 -139 q 472 -96 435 -96 z "},"Ṛ":{"ha":969,"x_min":53,"x_max":986,"o":"m 983 17 q 986 8 986 17 q 983 0 986 0 l 736 0 q 622 115 706 0 q 421 435 539 229 q 389 433 410 433 q 313 435 335 433 l 313 113 q 319 50 313 69 q 347 24 326 31 q 411 17 367 17 q 414 8 414 17 q 411 0 414 0 q 339 1 365 0 l 233 3 l 132 1 q 57 0 104 0 q 53 8 53 0 q 57 17 53 17 q 122 24 101 17 q 149 51 142 31 q 157 113 157 71 l 157 756 q 150 817 157 797 q 122 844 143 836 q 58 851 101 851 q 56 860 56 851 q 58 868 56 868 l 132 867 q 233 864 196 864 q 322 868 274 864 q 362 871 338 869 q 419 872 386 872 q 617 826 547 872 q 688 696 688 779 q 649 574 688 632 q 547 479 610 515 q 734 206 658 304 q 869 62 810 107 q 983 17 928 17 m 313 475 q 393 469 346 469 q 472 485 443 469 q 515 538 501 500 q 528 643 528 575 q 494 800 528 757 q 399 843 461 843 q 332 822 351 843 q 313 753 313 801 l 313 475 m 481 -287 q 418 -265 440 -287 q 396 -203 396 -243 q 419 -145 396 -167 q 481 -124 442 -124 q 540 -145 518 -124 q 561 -203 561 -167 q 540 -265 561 -243 q 481 -287 519 -287 z "},"Ṝ":{"ha":969,"x_min":53,"x_max":986,"o":"m 983 17 q 986 8 986 17 q 983 0 986 0 l 736 0 q 622 115 706 0 q 421 435 539 229 q 389 433 410 433 q 313 435 335 433 l 313 113 q 319 50 313 69 q 347 24 326 31 q 411 17 367 17 q 414 8 414 17 q 411 0 414 0 q 339 1 365 0 l 233 3 l 132 1 q 57 0 104 0 q 53 8 53 0 q 57 17 53 17 q 122 24 101 17 q 149 51 142 31 q 157 113 157 71 l 157 756 q 150 817 157 797 q 122 844 143 836 q 58 851 101 851 q 56 860 56 851 q 58 868 56 868 l 132 867 q 233 864 196 864 q 322 868 274 864 q 362 871 338 869 q 419 872 386 872 q 617 826 547 872 q 688 696 688 779 q 649 574 688 632 q 547 479 610 515 q 734 206 658 304 q 869 62 810 107 q 983 17 928 17 m 313 475 q 393 469 346 469 q 472 485 443 469 q 515 538 501 500 q 528 643 528 575 q 494 800 528 757 q 399 843 461 843 q 332 822 351 843 q 313 753 313 801 l 313 475 m 481 -287 q 418 -265 440 -287 q 396 -203 396 -243 q 419 -145 396 -167 q 481 -124 442 -124 q 540 -145 518 -124 q 561 -203 561 -167 q 540 -265 561 -243 q 481 -287 519 -287 m 182 990 q 168 1017 168 990 q 172 1034 168 1026 q 182 1042 175 1042 l 531 1042 q 541 1034 538 1042 q 544 1017 544 1026 q 531 990 544 990 l 182 990 z "},"Ṟ":{"ha":969,"x_min":53,"x_max":986,"o":"m 983 17 q 986 8 986 17 q 983 0 986 0 l 736 0 q 622 115 706 0 q 421 435 539 229 q 389 433 410 433 q 313 435 335 433 l 313 113 q 319 50 313 69 q 347 24 326 31 q 411 17 367 17 q 414 8 414 17 q 411 0 414 0 q 339 1 365 0 l 233 3 l 132 1 q 57 0 104 0 q 53 8 53 0 q 57 17 53 17 q 122 24 101 17 q 149 51 142 31 q 157 113 157 71 l 157 756 q 150 817 157 797 q 122 844 143 836 q 58 851 101 851 q 56 860 56 851 q 58 868 56 868 l 132 867 q 233 864 196 864 q 322 868 274 864 q 362 871 338 869 q 419 872 386 872 q 617 826 547 872 q 688 696 688 779 q 649 574 688 632 q 547 479 610 515 q 734 206 658 304 q 869 62 810 107 q 983 17 928 17 m 313 475 q 393 469 346 469 q 472 485 443 469 q 515 538 501 500 q 528 643 528 575 q 494 800 528 757 q 399 843 461 843 q 332 822 351 843 q 313 753 313 801 l 313 475 m 304 -169 q 294 -162 297 -169 q 290 -144 290 -154 q 304 -118 290 -118 l 653 -118 q 667 -144 667 -118 q 663 -162 667 -154 q 653 -169 660 -169 l 304 -169 z "},"S":{"ha":715,"x_min":103,"x_max":643,"o":"m 242 728 q 267 639 242 678 q 331 571 293 600 q 432 500 368 542 q 543 422 501 456 q 614 341 585 389 q 643 231 643 293 q 604 102 643 158 q 497 15 565 46 q 343 -17 428 -17 q 213 1 281 -17 q 121 39 144 18 q 110 49 114 44 q 107 65 107 54 l 103 286 l 103 288 q 110 294 103 293 q 118 289 117 294 q 191 151 160 204 q 270 58 222 99 q 379 18 318 18 q 471 48 435 18 q 507 150 507 78 q 480 257 507 211 q 414 335 453 303 q 307 411 375 367 q 203 485 240 454 q 140 558 167 515 q 114 660 114 601 q 156 784 114 733 q 265 859 199 835 q 406 883 332 883 q 504 874 454 883 q 585 853 554 865 q 601 841 597 847 q 606 825 606 835 l 606 621 q 599 615 606 617 q 590 617 592 613 l 579 643 q 498 792 544 731 q 368 853 451 853 q 277 821 313 853 q 242 728 242 789 z "},"Ś":{"ha":715,"x_min":103,"x_max":643,"o":"m 242 728 q 267 639 242 678 q 331 571 293 600 q 432 500 368 542 q 543 422 501 456 q 614 341 585 389 q 643 231 643 293 q 604 102 643 158 q 497 15 565 46 q 343 -17 428 -17 q 213 1 281 -17 q 121 39 144 18 q 110 49 114 44 q 107 65 107 54 l 103 286 l 103 288 q 110 294 103 293 q 118 289 117 294 q 191 151 160 204 q 270 58 222 99 q 379 18 318 18 q 471 48 435 18 q 507 150 507 78 q 480 257 507 211 q 414 335 453 303 q 307 411 375 367 q 203 485 240 454 q 140 558 167 515 q 114 660 114 601 q 156 784 114 733 q 265 859 199 835 q 406 883 332 883 q 504 874 454 883 q 585 853 554 865 q 601 841 597 847 q 606 825 606 835 l 606 621 q 599 615 606 617 q 590 617 592 613 l 579 643 q 498 792 544 731 q 368 853 451 853 q 277 821 313 853 q 242 728 242 789 m 239 942 q 232 948 233 942 q 235 957 231 954 q 347 1049 275 986 q 410 1101 389 1085 q 459 1097 417 1108 q 534 1069 501 1085 q 550 1050 567 1053 q 392 1003 464 1029 q 242 943 321 978 l 239 942 z "},"Š":{"ha":715,"x_min":103,"x_max":643,"o":"m 242 728 q 267 639 242 678 q 331 571 293 600 q 432 500 368 542 q 543 422 501 456 q 614 341 585 389 q 643 231 643 293 q 604 102 643 158 q 497 15 565 46 q 343 -17 428 -17 q 213 1 281 -17 q 121 39 144 18 q 110 49 114 44 q 107 65 107 54 l 103 286 l 103 288 q 110 294 103 293 q 118 289 117 294 q 191 151 160 204 q 270 58 222 99 q 379 18 318 18 q 471 48 435 18 q 507 150 507 78 q 480 257 507 211 q 414 335 453 303 q 307 411 375 367 q 203 485 240 454 q 140 558 167 515 q 114 660 114 601 q 156 784 114 733 q 265 859 199 835 q 406 883 332 883 q 504 874 454 883 q 585 853 554 865 q 601 841 597 847 q 606 825 606 835 l 606 621 q 599 615 606 617 q 590 617 592 613 l 579 643 q 498 792 544 731 q 368 853 451 853 q 277 821 313 853 q 242 728 242 789 m 217 1114 l 217 1117 q 220 1122 217 1119 q 225 1124 224 1125 l 376 1071 l 526 1126 l 528 1126 q 534 1123 532 1126 q 533 1117 536 1119 l 392 954 q 376 949 386 949 q 360 954 365 949 l 217 1114 z "},"Ş":{"ha":715,"x_min":103,"x_max":643,"o":"m 643 231 q 571 63 643 131 q 385 -15 499 -4 q 382 -44 382 -37 q 395 -92 382 -72 q 438 -128 408 -111 q 494 -174 474 -150 q 514 -236 514 -199 q 472 -338 514 -294 q 344 -382 429 -382 q 240 -315 240 -382 q 257 -278 240 -294 q 296 -261 274 -261 q 333 -273 322 -261 q 351 -307 344 -285 q 367 -338 358 -328 q 400 -349 376 -349 q 431 -315 431 -349 q 405 -250 431 -279 q 315 -185 379 -221 q 303 -168 303 -181 q 308 -146 303 -158 q 358 -17 331 -94 l 343 -17 q 213 1 281 -17 q 121 39 144 18 q 110 49 114 44 q 107 65 107 54 l 103 286 l 103 288 q 110 294 103 293 q 118 289 117 294 q 191 151 160 204 q 270 58 222 99 q 379 18 318 18 q 471 48 435 18 q 507 150 507 78 q 480 257 507 211 q 414 335 453 303 q 307 411 375 367 q 203 485 240 454 q 140 558 167 515 q 114 660 114 601 q 156 784 114 733 q 265 859 199 835 q 406 883 332 883 q 504 874 454 883 q 585 853 554 865 q 601 841 597 847 q 606 825 606 835 l 606 621 q 599 615 606 617 q 590 617 592 613 l 579 643 q 498 792 544 731 q 368 853 451 853 q 277 821 313 853 q 242 728 242 789 q 267 639 242 678 q 331 571 293 600 q 432 500 368 542 q 543 422 501 456 q 614 341 585 389 q 643 231 643 293 z "},"Ŝ":{"ha":715,"x_min":103,"x_max":643,"o":"m 242 728 q 267 639 242 678 q 331 571 293 600 q 432 500 368 542 q 543 422 501 456 q 614 341 585 389 q 643 231 643 293 q 604 102 643 158 q 497 15 565 46 q 343 -17 428 -17 q 213 1 281 -17 q 121 39 144 18 q 110 49 114 44 q 107 65 107 54 l 103 286 l 103 288 q 110 294 103 293 q 118 289 117 294 q 191 151 160 204 q 270 58 222 99 q 379 18 318 18 q 471 48 435 18 q 507 150 507 78 q 480 257 507 211 q 414 335 453 303 q 307 411 375 367 q 203 485 240 454 q 140 558 167 515 q 114 660 114 601 q 156 784 114 733 q 265 859 199 835 q 406 883 332 883 q 504 874 454 883 q 585 853 554 865 q 601 841 597 847 q 606 825 606 835 l 606 621 q 599 615 606 617 q 590 617 592 613 l 579 643 q 498 792 544 731 q 368 853 451 853 q 277 821 313 853 q 242 728 242 789 m 361 1136 q 378 1143 368 1143 q 393 1136 386 1143 l 535 975 q 536 972 536 975 q 533 967 536 969 q 528 965 529 964 l 378 1019 l 226 965 q 219 969 224 964 q 218 975 215 974 l 361 1136 z "},"Ș":{"ha":715,"x_min":103,"x_max":643,"o":"m 242 728 q 267 639 242 678 q 331 571 293 600 q 432 500 368 542 q 543 422 501 456 q 614 341 585 389 q 643 231 643 293 q 604 102 643 158 q 497 15 565 46 q 343 -17 428 -17 q 213 1 281 -17 q 121 39 144 18 q 110 49 114 44 q 107 65 107 54 l 103 286 l 103 288 q 110 294 103 293 q 118 289 117 294 q 191 151 160 204 q 270 58 222 99 q 379 18 318 18 q 471 48 435 18 q 507 150 507 78 q 480 257 507 211 q 414 335 453 303 q 307 411 375 367 q 203 485 240 454 q 140 558 167 515 q 114 660 114 601 q 156 784 114 733 q 265 859 199 835 q 406 883 332 883 q 504 874 454 883 q 585 853 554 865 q 601 841 597 847 q 606 825 606 835 l 606 621 q 599 615 606 617 q 590 617 592 613 l 579 643 q 498 792 544 731 q 368 853 451 853 q 277 821 313 853 q 242 728 242 789 m 375 -96 q 447 -126 422 -96 q 472 -208 472 -157 q 444 -304 472 -262 q 367 -382 417 -346 l 364 -383 q 356 -377 358 -383 q 357 -368 353 -371 q 406 -323 388 -346 q 424 -275 424 -300 q 410 -229 424 -243 q 353 -256 396 -256 q 304 -233 324 -256 q 285 -176 285 -211 q 311 -117 285 -139 q 375 -96 338 -96 z "},"Ṡ":{"ha":715,"x_min":103,"x_max":643,"o":"m 242 728 q 267 639 242 678 q 331 571 293 600 q 432 500 368 542 q 543 422 501 456 q 614 341 585 389 q 643 231 643 293 q 604 102 643 158 q 497 15 565 46 q 343 -17 428 -17 q 213 1 281 -17 q 121 39 144 18 q 110 49 114 44 q 107 65 107 54 l 103 286 l 103 288 q 110 294 103 293 q 118 289 117 294 q 191 151 160 204 q 270 58 222 99 q 379 18 318 18 q 471 48 435 18 q 507 150 507 78 q 480 257 507 211 q 414 335 453 303 q 307 411 375 367 q 203 485 240 454 q 140 558 167 515 q 114 660 114 601 q 156 784 114 733 q 265 859 199 835 q 406 883 332 883 q 504 874 454 883 q 585 853 554 865 q 601 841 597 847 q 606 825 606 835 l 606 621 q 599 615 606 617 q 590 617 592 613 l 579 643 q 498 792 544 731 q 368 853 451 853 q 277 821 313 853 q 242 728 242 789 m 378 990 q 315 1013 338 990 q 293 1075 293 1036 q 316 1133 293 1111 q 378 1156 339 1156 q 437 1134 415 1156 q 458 1075 458 1113 q 438 1013 458 1035 q 378 990 417 990 z "},"Ṣ":{"ha":715,"x_min":103,"x_max":643,"o":"m 242 728 q 267 639 242 678 q 331 571 293 600 q 432 500 368 542 q 543 422 501 456 q 614 341 585 389 q 643 231 643 293 q 604 102 643 158 q 497 15 565 46 q 343 -17 428 -17 q 213 1 281 -17 q 121 39 144 18 q 110 49 114 44 q 107 65 107 54 l 103 286 l 103 288 q 110 294 103 293 q 118 289 117 294 q 191 151 160 204 q 270 58 222 99 q 379 18 318 18 q 471 48 435 18 q 507 150 507 78 q 480 257 507 211 q 414 335 453 303 q 307 411 375 367 q 203 485 240 454 q 140 558 167 515 q 114 660 114 601 q 156 784 114 733 q 265 859 199 835 q 406 883 332 883 q 504 874 454 883 q 585 853 554 865 q 601 841 597 847 q 606 825 606 835 l 606 621 q 599 615 606 617 q 590 617 592 613 l 579 643 q 498 792 544 731 q 368 853 451 853 q 277 821 313 853 q 242 728 242 789 m 383 -287 q 321 -265 343 -287 q 299 -203 299 -243 q 322 -145 299 -167 q 383 -124 344 -124 q 442 -145 421 -124 q 464 -203 464 -167 q 443 -265 464 -243 q 383 -287 422 -287 z "},"ẞ":{"ha":981,"x_min":32,"x_max":913,"o":"m 700 19 q 765 46 742 19 q 789 126 789 72 q 763 239 789 188 q 688 340 738 290 q 554 457 639 389 q 549 478 542 464 l 689 710 q 532 788 614 760 q 385 817 450 817 q 320 799 339 817 q 295 728 301 782 q 289 544 289 675 l 289 113 q 294 50 289 69 q 317 24 300 31 q 374 17 335 17 q 378 8 378 17 q 374 0 378 0 l 210 1 l 36 0 q 32 8 32 0 q 36 17 32 17 q 99 24 78 17 q 127 51 119 32 q 135 113 135 71 l 135 499 q 174 685 135 597 q 299 828 213 772 q 515 883 385 883 q 738 842 601 883 q 749 840 740 840 q 778 849 763 840 q 804 874 793 857 q 808 875 806 875 q 816 872 813 875 q 818 868 819 869 l 642 574 q 843 385 774 471 q 913 224 913 299 q 885 117 913 172 q 797 22 857 61 q 649 -17 738 -17 q 558 -10 593 -17 q 486 15 524 -3 q 474 24 478 19 q 471 40 471 28 l 467 238 q 474 244 467 243 q 482 240 481 246 q 572 88 510 156 q 700 19 633 19 z "},"Ə":{"ha":888,"x_min":46,"x_max":818,"o":"m 376 883 q 718 758 618 883 q 818 450 818 632 q 758 200 818 306 q 594 39 697 94 q 367 -17 492 -17 q 186 22 258 -17 q 80 117 114 61 q 46 226 46 174 q 49 240 46 236 q 61 243 53 243 l 638 246 q 651 400 651 311 q 579 726 651 600 q 365 851 507 851 q 198 795 272 851 q 89 633 124 739 q 83 631 89 631 q 76 633 79 631 q 74 636 72 635 l 138 900 q 147 904 139 906 q 153 899 154 903 q 151 883 151 893 q 174 857 151 857 q 190 860 179 857 q 376 883 279 883 m 415 10 q 553 64 499 10 q 632 218 607 118 l 213 213 q 277 65 221 121 q 415 10 333 10 z "},"T":{"ha":893,"x_min":56,"x_max":842,"o":"m 308 836 q 71 621 143 836 q 63 617 69 617 q 56 622 56 618 q 68 766 61 678 q 75 899 75 854 q 83 906 75 906 q 90 899 90 906 q 169 868 90 868 q 449 864 289 864 q 622 867 531 864 l 717 868 q 794 875 769 868 q 825 903 818 882 q 834 908 826 908 q 842 903 842 908 q 833 769 838 861 q 828 622 828 678 q 821 618 828 618 q 813 622 814 618 q 735 783 792 729 q 594 836 678 836 q 541 819 554 836 q 528 753 528 801 l 528 113 q 536 50 528 69 q 568 24 544 31 q 643 17 592 17 q 647 8 647 17 q 643 0 647 0 q 564 1 593 0 l 449 3 l 336 1 q 256 0 307 0 q 251 8 251 0 q 256 17 251 17 q 330 24 306 17 q 363 51 354 31 q 372 113 372 71 l 372 756 q 360 819 372 803 q 308 836 347 836 z "},"Ŧ":{"ha":878,"x_min":56,"x_max":842,"o":"m 825 903 q 834 908 826 908 q 842 903 842 908 q 833 769 838 861 q 828 622 828 678 q 821 618 828 618 q 813 622 814 618 q 735 783 792 729 q 594 836 678 836 q 541 819 554 836 q 528 753 528 801 l 528 468 l 653 468 q 658 462 656 468 q 660 449 660 456 q 658 435 660 442 q 653 429 656 429 l 528 429 l 528 113 q 536 50 528 69 q 568 24 544 31 q 643 17 592 17 q 647 8 647 17 q 643 0 647 0 q 564 1 593 0 l 449 3 l 336 1 q 256 0 307 0 q 251 8 251 0 q 256 17 251 17 q 330 24 306 17 q 363 51 354 31 q 372 113 372 71 l 372 429 l 246 429 q 240 449 240 429 q 246 468 240 468 l 372 468 l 372 756 q 360 819 372 803 q 308 836 347 836 q 71 621 143 836 q 63 617 69 617 q 56 622 56 618 q 68 766 61 678 q 75 899 75 854 q 83 906 75 906 q 90 899 90 906 q 169 868 90 868 q 449 864 289 864 q 622 867 531 864 l 717 868 q 794 875 769 868 q 825 903 818 882 z "},"Ť":{"ha":893,"x_min":56,"x_max":842,"o":"m 308 836 q 71 621 143 836 q 63 617 69 617 q 56 622 56 618 q 68 766 61 678 q 75 899 75 854 q 83 906 75 906 q 90 899 90 906 q 169 868 90 868 q 449 864 289 864 q 622 867 531 864 l 717 868 q 794 875 769 868 q 825 903 818 882 q 834 908 826 908 q 842 903 842 908 q 833 769 838 861 q 828 622 828 678 q 821 618 828 618 q 813 622 814 618 q 735 783 792 729 q 594 836 678 836 q 541 819 554 836 q 528 753 528 801 l 528 113 q 536 50 528 69 q 568 24 544 31 q 643 17 592 17 q 647 8 647 17 q 643 0 647 0 q 564 1 593 0 l 449 3 l 336 1 q 256 0 307 0 q 251 8 251 0 q 256 17 251 17 q 330 24 306 17 q 363 51 354 31 q 372 113 372 71 l 372 756 q 360 819 372 803 q 308 836 347 836 m 288 1114 l 288 1117 q 291 1122 288 1119 q 296 1124 294 1125 l 447 1071 l 597 1126 l 599 1126 q 605 1123 603 1126 q 604 1117 607 1119 l 463 954 q 447 949 457 949 q 431 954 436 949 l 288 1114 z "},"Ţ":{"ha":893,"x_min":56,"x_max":842,"o":"m 825 903 q 834 908 826 908 q 842 903 842 908 q 833 769 838 861 q 828 622 828 678 q 821 618 828 618 q 813 622 814 618 q 735 783 792 729 q 594 836 678 836 q 541 819 554 836 q 528 753 528 801 l 528 113 q 536 50 528 69 q 568 24 544 31 q 643 17 592 17 q 647 8 647 17 q 643 0 647 0 q 568 1 596 0 l 463 3 q 454 -53 454 -31 q 466 -95 454 -79 q 506 -128 478 -111 q 562 -174 542 -150 q 582 -236 582 -199 q 540 -338 582 -294 q 413 -382 497 -382 q 308 -315 308 -382 q 325 -278 308 -294 q 364 -261 342 -261 q 401 -273 390 -261 q 419 -307 413 -285 q 435 -338 426 -328 q 468 -349 444 -349 q 499 -315 499 -349 q 473 -250 499 -279 q 383 -185 447 -221 q 371 -168 371 -181 q 376 -146 371 -158 q 435 3 411 -67 l 332 1 q 256 0 304 0 q 251 8 251 0 q 256 17 251 17 q 330 24 306 17 q 363 51 354 31 q 372 113 372 71 l 372 756 q 360 819 372 803 q 308 836 347 836 q 71 621 143 836 q 63 617 69 617 q 56 622 56 618 q 68 766 61 678 q 75 899 75 854 q 83 906 75 906 q 90 899 90 906 q 169 868 90 868 q 449 864 289 864 q 622 867 531 864 l 717 868 q 794 875 769 868 q 825 903 818 882 z "},"Ț":{"ha":893,"x_min":56,"x_max":842,"o":"m 308 836 q 71 621 143 836 q 63 617 69 617 q 56 622 56 618 q 68 766 61 678 q 75 899 75 854 q 83 906 75 906 q 90 899 90 906 q 169 868 90 868 q 449 864 289 864 q 622 867 531 864 l 717 868 q 794 875 769 868 q 825 903 818 882 q 834 908 826 908 q 842 903 842 908 q 833 769 838 861 q 828 622 828 678 q 821 618 828 618 q 813 622 814 618 q 735 783 792 729 q 594 836 678 836 q 541 819 554 836 q 528 753 528 801 l 528 113 q 536 50 528 69 q 568 24 544 31 q 643 17 592 17 q 647 8 647 17 q 643 0 647 0 q 564 1 593 0 l 449 3 l 336 1 q 256 0 307 0 q 251 8 251 0 q 256 17 251 17 q 330 24 306 17 q 363 51 354 31 q 372 113 372 71 l 372 756 q 360 819 372 803 q 308 836 347 836 m 447 -96 q 519 -126 494 -96 q 544 -208 544 -157 q 517 -304 544 -262 q 439 -382 489 -346 l 436 -383 q 428 -377 431 -383 q 429 -368 425 -371 q 478 -323 460 -346 q 496 -275 496 -300 q 482 -229 496 -243 q 425 -256 468 -256 q 376 -233 396 -256 q 357 -176 357 -211 q 383 -117 357 -139 q 447 -96 410 -96 z "},"Ṭ":{"ha":893,"x_min":56,"x_max":842,"o":"m 308 836 q 71 621 143 836 q 63 617 69 617 q 56 622 56 618 q 68 766 61 678 q 75 899 75 854 q 83 906 75 906 q 90 899 90 906 q 169 868 90 868 q 449 864 289 864 q 622 867 531 864 l 717 868 q 794 875 769 868 q 825 903 818 882 q 834 908 826 908 q 842 903 842 908 q 833 769 838 861 q 828 622 828 678 q 821 618 828 618 q 813 622 814 618 q 735 783 792 729 q 594 836 678 836 q 541 819 554 836 q 528 753 528 801 l 528 113 q 536 50 528 69 q 568 24 544 31 q 643 17 592 17 q 647 8 647 17 q 643 0 647 0 q 564 1 593 0 l 449 3 l 336 1 q 256 0 307 0 q 251 8 251 0 q 256 17 251 17 q 330 24 306 17 q 363 51 354 31 q 372 113 372 71 l 372 756 q 360 819 372 803 q 308 836 347 836 m 456 -287 q 393 -265 415 -287 q 371 -203 371 -243 q 394 -145 371 -167 q 456 -124 417 -124 q 515 -145 493 -124 q 536 -203 536 -167 q 515 -265 536 -243 q 456 -287 494 -287 z "},"Ṯ":{"ha":893,"x_min":56,"x_max":842,"o":"m 308 836 q 71 621 143 836 q 63 617 69 617 q 56 622 56 618 q 68 766 61 678 q 75 899 75 854 q 83 906 75 906 q 90 899 90 906 q 169 868 90 868 q 449 864 289 864 q 622 867 531 864 l 717 868 q 794 875 769 868 q 825 903 818 882 q 834 908 826 908 q 842 903 842 908 q 833 769 838 861 q 828 622 828 678 q 821 618 828 618 q 813 622 814 618 q 735 783 792 729 q 594 836 678 836 q 541 819 554 836 q 528 753 528 801 l 528 113 q 536 50 528 69 q 568 24 544 31 q 643 17 592 17 q 647 8 647 17 q 643 0 647 0 q 564 1 593 0 l 449 3 l 336 1 q 256 0 307 0 q 251 8 251 0 q 256 17 251 17 q 330 24 306 17 q 363 51 354 31 q 372 113 372 71 l 372 756 q 360 819 372 803 q 308 836 347 836 m 279 -169 q 269 -162 272 -169 q 265 -144 265 -154 q 279 -118 265 -118 l 628 -118 q 642 -144 642 -118 q 638 -162 642 -154 q 628 -169 635 -169 l 279 -169 z "},"U":{"ha":976,"x_min":40,"x_max":958,"o":"m 793 690 q 759 808 793 765 q 664 851 725 851 q 661 860 661 851 q 664 868 661 868 l 731 867 q 815 864 783 864 q 892 867 842 864 l 956 868 q 958 860 958 868 q 956 851 958 851 q 871 808 901 851 q 840 690 840 765 l 840 304 q 797 133 840 207 q 676 20 754 60 q 494 -19 597 -19 q 313 19 392 -19 q 188 133 233 58 q 143 307 143 207 l 143 756 q 135 817 143 797 q 108 844 128 836 q 44 851 88 851 q 40 860 40 851 q 44 868 40 868 l 118 867 q 219 864 182 864 q 325 867 261 864 l 396 868 q 400 860 400 868 q 396 851 400 851 q 333 843 353 851 q 305 815 313 835 q 297 753 297 794 l 297 356 q 363 111 297 190 q 547 32 428 32 q 728 102 663 32 q 793 303 793 172 l 793 690 z "},"Ú":{"ha":976,"x_min":40,"x_max":958,"o":"m 793 690 q 759 808 793 765 q 664 851 725 851 q 661 860 661 851 q 664 868 661 868 l 731 867 q 815 864 783 864 q 892 867 842 864 l 956 868 q 958 860 958 868 q 956 851 958 851 q 871 808 901 851 q 840 690 840 765 l 840 304 q 797 133 840 207 q 676 20 754 60 q 494 -19 597 -19 q 313 19 392 -19 q 188 133 233 58 q 143 307 143 207 l 143 756 q 135 817 143 797 q 108 844 128 836 q 44 851 88 851 q 40 860 40 851 q 44 868 40 868 l 118 867 q 219 864 182 864 q 325 867 261 864 l 396 868 q 400 860 400 868 q 396 851 400 851 q 333 843 353 851 q 305 815 313 835 q 297 753 297 794 l 297 356 q 363 111 297 190 q 547 32 428 32 q 728 102 663 32 q 793 303 793 172 l 793 690 m 381 942 q 374 948 375 942 q 376 957 372 954 q 489 1049 417 986 q 551 1101 531 1085 q 601 1097 558 1108 q 676 1069 643 1085 q 692 1050 708 1053 q 534 1003 606 1029 q 383 943 463 978 l 381 942 z "},"Ŭ":{"ha":976,"x_min":40,"x_max":958,"o":"m 793 690 q 759 808 793 765 q 664 851 725 851 q 661 860 661 851 q 664 868 661 868 l 731 867 q 815 864 783 864 q 892 867 842 864 l 956 868 q 958 860 958 868 q 956 851 958 851 q 871 808 901 851 q 840 690 840 765 l 840 304 q 797 133 840 207 q 676 20 754 60 q 494 -19 597 -19 q 313 19 392 -19 q 188 133 233 58 q 143 307 143 207 l 143 756 q 135 817 143 797 q 108 844 128 836 q 44 851 88 851 q 40 860 40 851 q 44 868 40 868 l 118 867 q 219 864 182 864 q 325 867 261 864 l 396 868 q 400 860 400 868 q 396 851 400 851 q 333 843 353 851 q 305 815 313 835 q 297 753 297 794 l 297 356 q 363 111 297 190 q 547 32 428 32 q 728 102 663 32 q 793 303 793 172 l 793 690 m 518 958 q 412 1003 449 958 q 375 1135 375 1049 q 383 1139 375 1139 q 390 1136 390 1139 q 428 1089 390 1111 q 518 1067 465 1067 q 607 1089 569 1067 q 644 1136 644 1111 q 652 1139 644 1139 q 660 1135 660 1139 q 624 1003 660 1049 q 518 958 588 958 z "},"Ǔ":{"ha":976,"x_min":40,"x_max":958,"o":"m 793 690 q 759 808 793 765 q 664 851 725 851 q 661 860 661 851 q 664 868 661 868 l 731 867 q 815 864 783 864 q 892 867 842 864 l 956 868 q 958 860 958 868 q 956 851 958 851 q 871 808 901 851 q 840 690 840 765 l 840 304 q 797 133 840 207 q 676 20 754 60 q 494 -19 597 -19 q 313 19 392 -19 q 188 133 233 58 q 143 307 143 207 l 143 756 q 135 817 143 797 q 108 844 128 836 q 44 851 88 851 q 40 860 40 851 q 44 868 40 868 l 118 867 q 219 864 182 864 q 325 867 261 864 l 396 868 q 400 860 400 868 q 396 851 400 851 q 333 843 353 851 q 305 815 313 835 q 297 753 297 794 l 297 356 q 363 111 297 190 q 547 32 428 32 q 728 102 663 32 q 793 303 793 172 l 793 690 m 358 1114 l 358 1117 q 362 1122 358 1119 q 367 1124 365 1125 l 518 1071 l 668 1126 l 669 1126 q 676 1123 674 1126 q 675 1117 678 1119 l 533 954 q 518 949 528 949 q 501 954 507 949 l 358 1114 z "},"Û":{"ha":976,"x_min":40,"x_max":958,"o":"m 793 690 q 759 808 793 765 q 664 851 725 851 q 661 860 661 851 q 664 868 661 868 l 731 867 q 815 864 783 864 q 892 867 842 864 l 956 868 q 958 860 958 868 q 956 851 958 851 q 871 808 901 851 q 840 690 840 765 l 840 304 q 797 133 840 207 q 676 20 754 60 q 494 -19 597 -19 q 313 19 392 -19 q 188 133 233 58 q 143 307 143 207 l 143 756 q 135 817 143 797 q 108 844 128 836 q 44 851 88 851 q 40 860 40 851 q 44 868 40 868 l 118 867 q 219 864 182 864 q 325 867 261 864 l 396 868 q 400 860 400 868 q 396 851 400 851 q 333 843 353 851 q 305 815 313 835 q 297 753 297 794 l 297 356 q 363 111 297 190 q 547 32 428 32 q 728 102 663 32 q 793 303 793 172 l 793 690 m 503 1136 q 519 1143 510 1143 q 535 1136 528 1143 l 676 975 q 678 972 678 975 q 674 967 678 969 q 669 965 671 964 l 519 1019 l 368 965 q 361 969 365 964 q 360 975 357 974 l 503 1136 z "},"Ü":{"ha":976,"x_min":40,"x_max":958,"o":"m 793 690 q 759 808 793 765 q 664 851 725 851 q 661 860 661 851 q 664 868 661 868 l 731 867 q 815 864 783 864 q 892 867 842 864 l 956 868 q 958 860 958 868 q 956 851 958 851 q 871 808 901 851 q 840 690 840 765 l 840 304 q 797 133 840 207 q 676 20 754 60 q 494 -19 597 -19 q 313 19 392 -19 q 188 133 233 58 q 143 307 143 207 l 143 756 q 135 817 143 797 q 108 844 128 836 q 44 851 88 851 q 40 860 40 851 q 44 868 40 868 l 118 867 q 219 864 182 864 q 325 867 261 864 l 396 868 q 400 860 400 868 q 396 851 400 851 q 333 843 353 851 q 305 815 313 835 q 297 753 297 794 l 297 356 q 363 111 297 190 q 547 32 428 32 q 728 102 663 32 q 793 303 793 172 l 793 690 m 399 976 q 342 997 363 976 q 322 1053 322 1017 q 343 1106 322 1086 q 399 1125 364 1125 q 452 1106 433 1125 q 471 1053 471 1086 q 452 997 471 1017 q 399 976 433 976 m 640 976 q 585 997 604 976 q 565 1053 565 1017 q 585 1105 565 1086 q 640 1124 606 1124 q 694 1105 675 1124 q 713 1053 713 1086 q 694 997 713 1017 q 640 976 675 976 z "},"Ǘ":{"ha":976,"x_min":40,"x_max":958,"o":"m 793 690 q 759 808 793 765 q 664 851 725 851 q 661 860 661 851 q 664 868 661 868 l 731 867 q 815 864 783 864 q 892 867 842 864 l 956 868 q 958 860 958 868 q 956 851 958 851 q 871 808 901 851 q 840 690 840 765 l 840 304 q 797 133 840 207 q 676 20 754 60 q 494 -19 597 -19 q 313 19 392 -19 q 188 133 233 58 q 143 307 143 207 l 143 756 q 135 817 143 797 q 108 844 128 836 q 44 851 88 851 q 40 860 40 851 q 44 868 40 868 l 118 867 q 219 864 182 864 q 325 867 261 864 l 396 868 q 400 860 400 868 q 396 851 400 851 q 333 843 353 851 q 305 815 313 835 q 297 753 297 794 l 297 356 q 363 111 297 190 q 547 32 428 32 q 728 102 663 32 q 793 303 793 172 l 793 690 m 332 1140 q 324 1147 326 1140 q 326 1156 322 1153 q 515 1263 404 1193 l 574 1297 q 624 1291 582 1303 q 699 1263 667 1279 q 715 1244 732 1247 q 333 1140 497 1201 l 332 1140 m 399 961 q 342 981 363 961 q 322 1038 322 1001 q 343 1089 322 1069 q 399 1108 364 1108 q 452 1090 433 1108 q 471 1038 471 1071 q 452 981 471 1001 q 399 961 433 961 m 640 961 q 585 981 604 961 q 565 1038 565 1001 q 585 1088 565 1069 q 640 1107 606 1107 q 694 1088 675 1107 q 713 1038 713 1069 q 694 981 713 1001 q 640 961 675 961 z "},"Ǚ":{"ha":976,"x_min":40,"x_max":958,"o":"m 793 690 q 759 808 793 765 q 664 851 725 851 q 661 860 661 851 q 664 868 661 868 l 731 867 q 815 864 783 864 q 892 867 842 864 l 956 868 q 958 860 958 868 q 956 851 958 851 q 871 808 901 851 q 840 690 840 765 l 840 304 q 797 133 840 207 q 676 20 754 60 q 494 -19 597 -19 q 313 19 392 -19 q 188 133 233 58 q 143 307 143 207 l 143 756 q 135 817 143 797 q 108 844 128 836 q 44 851 88 851 q 40 860 40 851 q 44 868 40 868 l 118 867 q 219 864 182 864 q 325 867 261 864 l 396 868 q 400 860 400 868 q 396 851 400 851 q 333 843 353 851 q 305 815 313 835 q 297 753 297 794 l 297 356 q 363 111 297 190 q 547 32 428 32 q 728 102 663 32 q 793 303 793 172 l 793 690 m 343 1290 q 342 1291 342 1290 q 342 1292 342 1292 q 345 1298 342 1294 q 351 1300 349 1301 l 524 1231 l 693 1301 l 694 1301 q 701 1299 699 1301 q 700 1292 703 1296 l 538 1129 q 522 1124 533 1124 q 507 1129 513 1124 l 343 1290 m 399 961 q 342 981 363 961 q 322 1038 322 1001 q 343 1089 322 1069 q 399 1108 364 1108 q 452 1090 433 1108 q 471 1038 471 1071 q 452 981 471 1001 q 399 961 433 961 m 640 961 q 585 981 604 961 q 565 1038 565 1001 q 585 1088 565 1069 q 640 1107 606 1107 q 694 1088 675 1107 q 713 1038 713 1069 q 694 981 713 1001 q 640 961 675 961 z "},"Ǜ":{"ha":976,"x_min":40,"x_max":958,"o":"m 793 690 q 759 808 793 765 q 664 851 725 851 q 661 860 661 851 q 664 868 661 868 l 731 867 q 815 864 783 864 q 892 867 842 864 l 956 868 q 958 860 958 868 q 956 851 958 851 q 871 808 901 851 q 840 690 840 765 l 840 304 q 797 133 840 207 q 676 20 754 60 q 494 -19 597 -19 q 313 19 392 -19 q 188 133 233 58 q 143 307 143 207 l 143 756 q 135 817 143 797 q 108 844 128 836 q 44 851 88 851 q 40 860 40 851 q 44 868 40 868 l 118 867 q 219 864 182 864 q 325 867 261 864 l 396 868 q 400 860 400 868 q 396 851 400 851 q 333 843 353 851 q 305 815 313 835 q 297 753 297 794 l 297 356 q 363 111 297 190 q 547 32 428 32 q 728 102 663 32 q 793 303 793 172 l 793 690 m 724 1140 q 342 1244 560 1201 q 358 1263 325 1247 q 433 1291 390 1279 q 483 1297 475 1303 l 546 1260 q 729 1156 653 1194 q 733 1150 733 1154 q 731 1142 733 1146 q 724 1140 728 1139 m 658 961 q 604 981 624 961 q 585 1038 585 1001 q 604 1089 585 1069 q 658 1108 624 1108 q 714 1089 693 1108 q 735 1038 735 1069 q 715 981 735 1001 q 658 961 694 961 m 417 961 q 363 981 382 961 q 344 1038 344 1001 q 363 1088 344 1069 q 417 1107 382 1107 q 471 1088 451 1107 q 490 1038 490 1069 q 471 981 490 1001 q 417 961 451 961 z "},"Ǖ":{"ha":976,"x_min":40,"x_max":958,"o":"m 793 690 q 759 808 793 765 q 664 851 725 851 q 661 860 661 851 q 664 868 661 868 l 731 867 q 815 864 783 864 q 892 867 842 864 l 956 868 q 958 860 958 868 q 956 851 958 851 q 871 808 901 851 q 840 690 840 765 l 840 304 q 797 133 840 207 q 676 20 754 60 q 494 -19 597 -19 q 313 19 392 -19 q 188 133 233 58 q 143 307 143 207 l 143 756 q 135 817 143 797 q 108 844 128 836 q 44 851 88 851 q 40 860 40 851 q 44 868 40 868 l 118 867 q 219 864 182 864 q 325 867 261 864 l 396 868 q 400 860 400 868 q 396 851 400 851 q 333 843 353 851 q 305 815 313 835 q 297 753 297 794 l 297 356 q 363 111 297 190 q 547 32 428 32 q 728 102 663 32 q 793 303 793 172 l 793 690 m 342 1168 q 332 1176 336 1168 q 328 1194 328 1185 q 332 1213 328 1206 q 342 1221 336 1221 l 690 1221 q 701 1213 697 1221 q 706 1194 706 1206 q 701 1176 706 1185 q 690 1168 697 1168 l 342 1168 m 399 961 q 342 981 363 961 q 322 1038 322 1001 q 343 1089 322 1069 q 399 1108 364 1108 q 452 1090 433 1108 q 471 1038 471 1071 q 452 981 471 1001 q 399 961 433 961 m 640 961 q 585 981 604 961 q 565 1038 565 1001 q 585 1088 565 1069 q 640 1107 606 1107 q 694 1088 675 1107 q 713 1038 713 1069 q 694 981 713 1001 q 640 961 675 961 z "},"Ụ":{"ha":976,"x_min":40,"x_max":958,"o":"m 793 690 q 759 808 793 765 q 664 851 725 851 q 661 860 661 851 q 664 868 661 868 l 731 867 q 815 864 783 864 q 892 867 842 864 l 956 868 q 958 860 958 868 q 956 851 958 851 q 871 808 901 851 q 840 690 840 765 l 840 304 q 797 133 840 207 q 676 20 754 60 q 494 -19 597 -19 q 313 19 392 -19 q 188 133 233 58 q 143 307 143 207 l 143 756 q 135 817 143 797 q 108 844 128 836 q 44 851 88 851 q 40 860 40 851 q 44 868 40 868 l 118 867 q 219 864 182 864 q 325 867 261 864 l 396 868 q 400 860 400 868 q 396 851 400 851 q 333 843 353 851 q 305 815 313 835 q 297 753 297 794 l 297 356 q 363 111 297 190 q 547 32 428 32 q 728 102 663 32 q 793 303 793 172 l 793 690 m 490 -287 q 428 -265 450 -287 q 406 -203 406 -243 q 428 -145 406 -167 q 490 -124 451 -124 q 549 -145 528 -124 q 571 -203 571 -167 q 550 -265 571 -243 q 490 -287 529 -287 z "},"Ù":{"ha":976,"x_min":40,"x_max":958,"o":"m 793 690 q 759 808 793 765 q 664 851 725 851 q 661 860 661 851 q 664 868 661 868 l 731 867 q 815 864 783 864 q 892 867 842 864 l 956 868 q 958 860 958 868 q 956 851 958 851 q 871 808 901 851 q 840 690 840 765 l 840 304 q 797 133 840 207 q 676 20 754 60 q 494 -19 597 -19 q 313 19 392 -19 q 188 133 233 58 q 143 307 143 207 l 143 756 q 135 817 143 797 q 108 844 128 836 q 44 851 88 851 q 40 860 40 851 q 44 868 40 868 l 118 867 q 219 864 182 864 q 325 867 261 864 l 396 868 q 400 860 400 868 q 396 851 400 851 q 333 843 353 851 q 305 815 313 835 q 297 753 297 794 l 297 356 q 363 111 297 190 q 547 32 428 32 q 728 102 663 32 q 793 303 793 172 l 793 690 m 657 943 q 349 1050 501 1013 q 365 1069 332 1053 q 440 1097 397 1085 q 489 1101 482 1108 l 554 1046 q 663 957 615 993 q 667 951 667 956 q 664 944 667 947 q 657 943 661 942 z "},"Ủ":{"ha":976,"x_min":40,"x_max":958,"o":"m 793 690 q 759 808 793 765 q 664 851 725 851 q 661 860 661 851 q 664 868 661 868 l 731 867 q 815 864 783 864 q 892 867 842 864 l 956 868 q 958 860 958 868 q 956 851 958 851 q 871 808 901 851 q 840 690 840 765 l 840 304 q 797 133 840 207 q 676 20 754 60 q 494 -19 597 -19 q 313 19 392 -19 q 188 133 233 58 q 143 307 143 207 l 143 756 q 135 817 143 797 q 108 844 128 836 q 44 851 88 851 q 40 860 40 851 q 44 868 40 868 l 118 867 q 219 864 182 864 q 325 867 261 864 l 396 868 q 400 860 400 868 q 396 851 400 851 q 333 843 353 851 q 305 815 313 835 q 297 753 297 794 l 297 356 q 363 111 297 190 q 547 32 428 32 q 728 102 663 32 q 793 303 793 172 l 793 690 m 519 904 q 512 901 519 901 q 503 904 504 901 q 500 935 500 926 q 521 1021 500 974 q 531 1048 522 1025 q 539 1096 539 1071 q 500 1146 539 1146 q 450 1132 481 1146 l 447 1132 q 440 1136 443 1132 q 440 1143 436 1140 q 554 1182 488 1182 q 625 1163 599 1182 q 651 1110 651 1143 q 633 1056 651 1081 q 579 996 615 1032 q 533 944 547 963 q 519 904 519 925 z "},"Ư":{"ha":976,"x_min":40,"x_max":1063,"o":"m 840 271 q 797 118 840 183 q 676 17 754 53 q 497 -19 599 -19 q 240 59 338 -19 q 143 275 143 138 l 143 756 q 135 817 143 797 q 108 844 128 836 q 44 851 88 851 q 40 860 40 851 q 44 868 40 868 l 118 867 q 219 864 182 864 q 325 867 261 864 l 396 868 q 400 860 400 868 q 396 851 400 851 q 333 843 353 851 q 305 815 313 835 q 297 753 297 794 l 297 324 q 363 104 297 176 q 543 32 428 32 q 728 94 663 32 q 793 269 793 156 l 793 690 q 759 808 793 765 q 664 851 725 851 q 661 860 661 851 q 664 868 661 868 l 731 867 q 815 864 783 864 q 921 876 888 864 q 954 917 954 888 q 942 946 954 931 q 927 967 932 957 q 922 994 922 978 q 944 1046 922 1028 q 996 1064 967 1064 q 1045 1042 1028 1064 q 1063 988 1063 1019 q 1023 903 1063 933 q 921 850 983 872 q 862 801 883 835 q 840 690 840 767 l 840 271 z "},"Ứ":{"ha":976,"x_min":40,"x_max":1063,"o":"m 840 271 q 797 118 840 183 q 676 17 754 53 q 497 -19 599 -19 q 240 59 338 -19 q 143 275 143 138 l 143 756 q 135 817 143 797 q 108 844 128 836 q 44 851 88 851 q 40 860 40 851 q 44 868 40 868 l 118 867 q 219 864 182 864 q 325 867 261 864 l 396 868 q 400 860 400 868 q 396 851 400 851 q 333 843 353 851 q 305 815 313 835 q 297 753 297 794 l 297 324 q 363 104 297 176 q 543 32 428 32 q 728 94 663 32 q 793 269 793 156 l 793 690 q 759 808 793 765 q 664 851 725 851 q 661 860 661 851 q 664 868 661 868 l 731 867 q 815 864 783 864 q 921 876 888 864 q 954 917 954 888 q 942 946 954 931 q 927 967 932 957 q 922 994 922 978 q 944 1046 922 1028 q 996 1064 967 1064 q 1045 1042 1028 1064 q 1063 988 1063 1019 q 1023 903 1063 933 q 921 850 983 872 q 862 801 883 835 q 840 690 840 767 l 840 271 m 390 942 q 383 948 385 942 q 385 957 381 954 q 506 1054 428 988 q 560 1101 524 1071 q 609 1095 567 1107 q 684 1068 651 1083 q 700 1050 717 1053 q 392 942 536 1008 l 390 942 z "},"Ự":{"ha":976,"x_min":40,"x_max":1063,"o":"m 840 271 q 797 118 840 183 q 676 17 754 53 q 497 -19 599 -19 q 240 59 338 -19 q 143 275 143 138 l 143 756 q 135 817 143 797 q 108 844 128 836 q 44 851 88 851 q 40 860 40 851 q 44 868 40 868 l 118 867 q 219 864 182 864 q 325 867 261 864 l 396 868 q 400 860 400 868 q 396 851 400 851 q 333 843 353 851 q 305 815 313 835 q 297 753 297 794 l 297 324 q 363 104 297 176 q 543 32 428 32 q 728 94 663 32 q 793 269 793 156 l 793 690 q 759 808 793 765 q 664 851 725 851 q 661 860 661 851 q 664 868 661 868 l 731 867 q 815 864 783 864 q 921 876 888 864 q 954 917 954 888 q 942 946 954 931 q 927 967 932 957 q 922 994 922 978 q 944 1046 922 1028 q 996 1064 967 1064 q 1045 1042 1028 1064 q 1063 988 1063 1019 q 1023 903 1063 933 q 921 850 983 872 q 862 801 883 835 q 840 690 840 767 l 840 271 m 513 -287 q 450 -265 472 -287 q 428 -203 428 -243 q 451 -145 428 -167 q 513 -124 474 -124 q 572 -145 550 -124 q 593 -203 593 -167 q 572 -265 593 -243 q 513 -287 551 -287 z "},"Ừ":{"ha":976,"x_min":40,"x_max":1063,"o":"m 840 271 q 797 118 840 183 q 676 17 754 53 q 497 -19 599 -19 q 240 59 338 -19 q 143 275 143 138 l 143 756 q 135 817 143 797 q 108 844 128 836 q 44 851 88 851 q 40 860 40 851 q 44 868 40 868 l 118 867 q 219 864 182 864 q 325 867 261 864 l 396 868 q 400 860 400 868 q 396 851 400 851 q 333 843 353 851 q 305 815 313 835 q 297 753 297 794 l 297 324 q 363 104 297 176 q 543 32 428 32 q 728 94 663 32 q 793 269 793 156 l 793 690 q 759 808 793 765 q 664 851 725 851 q 661 860 661 851 q 664 868 661 868 l 731 867 q 815 864 783 864 q 921 876 888 864 q 954 917 954 888 q 942 946 954 931 q 927 967 932 957 q 922 994 922 978 q 944 1046 922 1028 q 996 1064 967 1064 q 1045 1042 1028 1064 q 1063 988 1063 1019 q 1023 903 1063 933 q 921 850 983 872 q 862 801 883 835 q 840 690 840 767 l 840 271 m 665 943 q 357 1050 510 1013 q 373 1069 340 1053 q 448 1097 406 1085 q 497 1101 490 1108 l 563 1046 q 671 957 624 993 q 675 951 675 956 q 672 944 675 947 q 665 943 669 942 z "},"Ử":{"ha":976,"x_min":40,"x_max":1063,"o":"m 840 271 q 797 118 840 183 q 676 17 754 53 q 497 -19 599 -19 q 240 59 338 -19 q 143 275 143 138 l 143 756 q 135 817 143 797 q 108 844 128 836 q 44 851 88 851 q 40 860 40 851 q 44 868 40 868 l 118 867 q 219 864 182 864 q 325 867 261 864 l 396 868 q 400 860 400 868 q 396 851 400 851 q 333 843 353 851 q 305 815 313 835 q 297 753 297 794 l 297 324 q 363 104 297 176 q 543 32 428 32 q 728 94 663 32 q 793 269 793 156 l 793 690 q 759 808 793 765 q 664 851 725 851 q 661 860 661 851 q 664 868 661 868 l 731 867 q 815 864 783 864 q 921 876 888 864 q 954 917 954 888 q 942 946 954 931 q 927 967 932 957 q 922 994 922 978 q 944 1046 922 1028 q 996 1064 967 1064 q 1045 1042 1028 1064 q 1063 988 1063 1019 q 1023 903 1063 933 q 921 850 983 872 q 862 801 883 835 q 840 690 840 767 l 840 271 m 528 904 q 520 901 528 901 q 511 904 513 901 q 508 935 508 926 q 529 1021 508 974 q 539 1048 531 1025 q 547 1096 547 1071 q 508 1146 547 1146 q 458 1132 489 1146 l 456 1132 q 448 1136 451 1132 q 449 1143 444 1140 q 563 1182 496 1182 q 633 1163 607 1182 q 660 1110 660 1143 q 642 1056 660 1081 q 588 996 624 1032 q 542 944 556 963 q 528 904 528 925 z "},"Ữ":{"ha":976,"x_min":40,"x_max":1063,"o":"m 840 271 q 797 118 840 183 q 676 17 754 53 q 497 -19 599 -19 q 240 59 338 -19 q 143 275 143 138 l 143 756 q 135 817 143 797 q 108 844 128 836 q 44 851 88 851 q 40 860 40 851 q 44 868 40 868 l 118 867 q 219 864 182 864 q 325 867 261 864 l 396 868 q 400 860 400 868 q 396 851 400 851 q 333 843 353 851 q 305 815 313 835 q 297 753 297 794 l 297 324 q 363 104 297 176 q 543 32 428 32 q 728 94 663 32 q 793 269 793 156 l 793 690 q 759 808 793 765 q 664 851 725 851 q 661 860 661 851 q 664 868 661 868 l 731 867 q 815 864 783 864 q 921 876 888 864 q 954 917 954 888 q 942 946 954 931 q 927 967 932 957 q 922 994 922 978 q 944 1046 922 1028 q 996 1064 967 1064 q 1045 1042 1028 1064 q 1063 988 1063 1019 q 1023 903 1063 933 q 921 850 983 872 q 862 801 883 835 q 840 690 840 767 l 840 271 m 631 1072 q 669 1081 654 1072 q 701 1110 683 1089 l 704 1111 q 710 1107 707 1111 q 711 1100 713 1103 q 651 1011 674 1033 q 596 989 628 989 q 518 1004 569 989 q 469 1017 494 1011 q 422 1022 444 1022 q 385 1015 396 1022 q 351 985 374 1008 l 350 985 q 342 988 346 985 q 342 994 339 992 q 463 1107 404 1107 q 528 1093 478 1107 q 581 1078 553 1085 q 631 1072 608 1072 z "},"Ű":{"ha":976,"x_min":40,"x_max":958,"o":"m 793 690 q 759 808 793 765 q 664 851 725 851 q 661 860 661 851 q 664 868 661 868 l 731 867 q 815 864 783 864 q 892 867 842 864 l 956 868 q 958 860 958 868 q 956 851 958 851 q 871 808 901 851 q 840 690 840 765 l 840 304 q 797 133 840 207 q 676 20 754 60 q 494 -19 597 -19 q 313 19 392 -19 q 188 133 233 58 q 143 307 143 207 l 143 756 q 135 817 143 797 q 108 844 128 836 q 44 851 88 851 q 40 860 40 851 q 44 868 40 868 l 118 867 q 219 864 182 864 q 325 867 261 864 l 396 868 q 400 860 400 868 q 396 851 400 851 q 333 843 353 851 q 305 815 313 835 q 297 753 297 794 l 297 356 q 363 111 297 190 q 547 32 428 32 q 728 102 663 32 q 793 303 793 172 l 793 690 m 360 926 q 352 932 354 926 q 353 942 350 938 q 478 1118 428 1035 q 489 1122 481 1122 q 539 1110 506 1122 q 593 1085 572 1099 q 603 1067 614 1072 q 364 928 476 1010 l 360 926 m 571 926 q 564 932 567 926 q 564 942 561 938 q 689 1118 615 1001 q 700 1122 692 1122 q 750 1110 717 1122 q 804 1085 783 1099 q 814 1067 825 1072 q 575 928 688 1010 l 571 926 z "},"Ū":{"ha":976,"x_min":40,"x_max":958,"o":"m 793 690 q 759 808 793 765 q 664 851 725 851 q 661 860 661 851 q 664 868 661 868 l 731 867 q 815 864 783 864 q 892 867 842 864 l 956 868 q 958 860 958 868 q 956 851 958 851 q 871 808 901 851 q 840 690 840 765 l 840 304 q 797 133 840 207 q 676 20 754 60 q 494 -19 597 -19 q 313 19 392 -19 q 188 133 233 58 q 143 307 143 207 l 143 756 q 135 817 143 797 q 108 844 128 836 q 44 851 88 851 q 40 860 40 851 q 44 868 40 868 l 118 867 q 219 864 182 864 q 325 867 261 864 l 396 868 q 400 860 400 868 q 396 851 400 851 q 333 843 353 851 q 305 815 313 835 q 297 753 297 794 l 297 356 q 363 111 297 190 q 547 32 428 32 q 728 102 663 32 q 793 303 793 172 l 793 690 m 343 990 q 333 998 338 990 q 329 1017 329 1006 q 333 1034 329 1026 q 343 1042 338 1042 l 692 1042 q 703 1034 699 1042 q 707 1017 707 1026 q 703 998 707 1006 q 692 990 699 990 l 343 990 z "},"Ų":{"ha":976,"x_min":40,"x_max":958,"o":"m 956 868 q 958 860 958 868 q 956 851 958 851 q 871 808 901 851 q 840 690 840 765 l 840 304 q 776 103 840 185 q 601 -7 713 21 q 545 -81 563 -46 q 528 -162 528 -117 q 564 -279 528 -235 q 663 -324 600 -324 q 696 -319 678 -324 q 722 -308 714 -314 l 725 -308 q 733 -312 729 -308 q 732 -319 736 -317 q 576 -382 656 -382 q 459 -337 506 -382 q 413 -229 413 -293 q 557 -15 413 -126 q 494 -19 528 -19 q 313 19 392 -19 q 188 133 233 58 q 143 307 143 207 l 143 756 q 135 817 143 797 q 108 844 128 836 q 44 851 88 851 q 40 860 40 851 q 44 868 40 868 l 118 867 q 219 864 182 864 q 325 867 261 864 l 396 868 q 400 860 400 868 q 396 851 400 851 q 333 843 353 851 q 305 815 313 835 q 297 753 297 794 l 297 356 q 363 111 297 190 q 547 32 428 32 q 728 102 663 32 q 793 303 793 172 l 793 690 q 759 808 793 765 q 664 851 725 851 q 661 860 661 851 q 664 868 661 868 l 731 867 q 815 864 783 864 q 892 867 842 864 l 956 868 z "},"Ů":{"ha":976,"x_min":40,"x_max":958,"o":"m 793 690 q 759 808 793 765 q 664 851 725 851 q 661 860 661 851 q 664 868 661 868 l 731 867 q 815 864 783 864 q 892 867 842 864 l 956 868 q 958 860 958 868 q 956 851 958 851 q 871 808 901 851 q 840 690 840 765 l 840 304 q 797 133 840 207 q 676 20 754 60 q 494 -19 597 -19 q 313 19 392 -19 q 188 133 233 58 q 143 307 143 207 l 143 756 q 135 817 143 797 q 108 844 128 836 q 44 851 88 851 q 40 860 40 851 q 44 868 40 868 l 118 867 q 219 864 182 864 q 325 867 261 864 l 396 868 q 400 860 400 868 q 396 851 400 851 q 333 843 353 851 q 305 815 313 835 q 297 753 297 794 l 297 356 q 363 111 297 190 q 547 32 428 32 q 728 102 663 32 q 793 303 793 172 l 793 690 m 506 982 q 399 1015 439 982 q 358 1092 358 1047 q 408 1171 358 1142 q 519 1200 458 1200 q 624 1167 581 1200 q 667 1089 667 1135 q 618 1011 667 1040 q 506 982 569 982 m 528 1001 q 555 1017 546 1001 q 564 1064 564 1032 q 543 1146 564 1111 q 492 1181 522 1181 q 458 1119 458 1181 q 477 1038 458 1074 q 528 1001 496 1001 z "},"Ũ":{"ha":976,"x_min":40,"x_max":958,"o":"m 793 690 q 759 808 793 765 q 664 851 725 851 q 661 860 661 851 q 664 868 661 868 l 731 867 q 815 864 783 864 q 892 867 842 864 l 956 868 q 958 860 958 868 q 956 851 958 851 q 871 808 901 851 q 840 690 840 765 l 840 304 q 797 133 840 207 q 676 20 754 60 q 494 -19 597 -19 q 313 19 392 -19 q 188 133 233 58 q 143 307 143 207 l 143 756 q 135 817 143 797 q 108 844 128 836 q 44 851 88 851 q 40 860 40 851 q 44 868 40 868 l 118 867 q 219 864 182 864 q 325 867 261 864 l 396 868 q 400 860 400 868 q 396 851 400 851 q 333 843 353 851 q 305 815 313 835 q 297 753 297 794 l 297 356 q 363 111 297 190 q 547 32 428 32 q 728 102 663 32 q 793 303 793 172 l 793 690 m 622 1072 q 660 1081 646 1072 q 693 1110 675 1089 l 696 1111 q 701 1107 699 1111 q 703 1100 704 1103 q 642 1011 665 1033 q 588 989 619 989 q 510 1004 561 989 q 461 1017 486 1011 q 414 1022 436 1022 q 376 1015 388 1022 q 343 985 365 1008 l 342 985 q 334 988 338 985 q 333 994 331 992 q 454 1107 396 1107 q 519 1093 469 1107 q 572 1078 544 1085 q 622 1072 600 1072 z "},"V":{"ha":917,"x_min":3,"x_max":928,"o":"m 924 868 q 928 860 928 868 q 924 851 928 851 q 828 807 874 851 q 754 688 782 763 l 497 1 q 482 -4 496 -4 q 467 1 468 -4 l 113 753 q 63 827 88 803 q 7 851 38 851 q 3 860 3 851 q 7 868 3 868 q 36 867 28 868 q 108 864 64 864 q 311 867 228 864 q 367 868 333 868 q 371 860 371 868 q 367 851 371 851 q 302 834 325 851 q 279 785 279 817 q 294 728 279 761 l 535 215 l 715 692 q 729 758 729 731 q 703 826 729 801 q 629 851 678 851 q 625 860 625 851 q 629 868 625 868 l 697 867 q 801 864 756 864 q 867 867 828 864 l 924 868 z "},"W":{"ha":1265,"x_min":3,"x_max":1276,"o":"m 1274 868 q 1276 860 1276 868 q 1274 851 1276 851 q 1177 808 1222 851 q 1103 688 1132 764 l 846 1 q 831 -4 844 -4 q 815 1 817 -4 l 638 378 l 497 1 q 482 -4 496 -4 q 467 1 468 -4 l 113 753 q 78 817 92 797 q 49 844 65 836 q 7 851 33 851 q 3 860 3 851 q 7 868 3 868 q 36 867 28 868 q 108 864 64 864 q 265 867 201 864 q 310 868 283 868 q 314 860 314 868 q 310 851 314 851 q 260 844 275 851 q 246 819 246 838 q 278 728 246 796 l 528 197 l 615 426 l 461 753 q 417 827 438 803 q 372 851 396 851 q 368 860 368 851 q 372 868 368 868 q 405 866 386 868 q 458 864 424 864 q 590 867 538 864 q 626 868 604 868 q 631 860 631 868 q 626 851 631 851 q 598 847 607 851 q 589 829 589 842 q 626 728 589 806 l 688 599 l 722 692 q 753 811 753 771 q 718 851 753 851 q 714 860 714 851 q 718 868 714 868 q 742 866 729 868 q 808 864 756 864 q 865 867 832 864 l 917 868 q 919 860 919 868 q 917 851 919 851 q 763 688 824 851 l 711 550 l 878 199 l 1057 678 q 1074 758 1074 722 q 1052 826 1074 801 q 994 851 1031 851 q 990 860 990 851 q 994 868 990 868 l 1058 867 q 1150 864 1108 864 q 1214 867 1178 864 l 1274 868 z "},"Ẃ":{"ha":1265,"x_min":3,"x_max":1276,"o":"m 1274 868 q 1276 860 1276 868 q 1274 851 1276 851 q 1177 808 1222 851 q 1103 688 1132 764 l 846 1 q 831 -4 844 -4 q 815 1 817 -4 l 638 378 l 497 1 q 482 -4 496 -4 q 467 1 468 -4 l 113 753 q 78 817 92 797 q 49 844 65 836 q 7 851 33 851 q 3 860 3 851 q 7 868 3 868 q 36 867 28 868 q 108 864 64 864 q 265 867 201 864 q 310 868 283 868 q 314 860 314 868 q 310 851 314 851 q 260 844 275 851 q 246 819 246 838 q 278 728 246 796 l 528 197 l 615 426 l 461 753 q 417 827 438 803 q 372 851 396 851 q 368 860 368 851 q 372 868 368 868 q 405 866 386 868 q 458 864 424 864 q 590 867 538 864 q 626 868 604 868 q 631 860 631 868 q 626 851 631 851 q 598 847 607 851 q 589 829 589 842 q 626 728 589 806 l 688 599 l 722 692 q 753 811 753 771 q 718 851 753 851 q 714 860 714 851 q 718 868 714 868 q 742 866 729 868 q 808 864 756 864 q 865 867 832 864 l 917 868 q 919 860 919 868 q 917 851 919 851 q 763 688 824 851 l 711 550 l 878 199 l 1057 678 q 1074 758 1074 722 q 1052 826 1074 801 q 994 851 1031 851 q 990 860 990 851 q 994 868 990 868 l 1058 867 q 1150 864 1108 864 q 1214 867 1178 864 l 1274 868 m 517 942 q 510 948 511 942 q 513 957 508 954 q 625 1049 553 986 q 688 1101 667 1085 q 737 1097 694 1108 q 812 1069 779 1085 q 828 1050 844 1053 q 670 1003 742 1029 q 519 943 599 978 l 517 942 z "},"Ŵ":{"ha":1265,"x_min":3,"x_max":1276,"o":"m 1274 868 q 1276 860 1276 868 q 1274 851 1276 851 q 1177 808 1222 851 q 1103 688 1132 764 l 846 1 q 831 -4 844 -4 q 815 1 817 -4 l 638 378 l 497 1 q 482 -4 496 -4 q 467 1 468 -4 l 113 753 q 78 817 92 797 q 49 844 65 836 q 7 851 33 851 q 3 860 3 851 q 7 868 3 868 q 36 867 28 868 q 108 864 64 864 q 265 867 201 864 q 310 868 283 868 q 314 860 314 868 q 310 851 314 851 q 260 844 275 851 q 246 819 246 838 q 278 728 246 796 l 528 197 l 615 426 l 461 753 q 417 827 438 803 q 372 851 396 851 q 368 860 368 851 q 372 868 368 868 q 405 866 386 868 q 458 864 424 864 q 590 867 538 864 q 626 868 604 868 q 631 860 631 868 q 626 851 631 851 q 598 847 607 851 q 589 829 589 842 q 626 728 589 806 l 688 599 l 722 692 q 753 811 753 771 q 718 851 753 851 q 714 860 714 851 q 718 868 714 868 q 742 866 729 868 q 808 864 756 864 q 865 867 832 864 l 917 868 q 919 860 919 868 q 917 851 919 851 q 763 688 824 851 l 711 550 l 878 199 l 1057 678 q 1074 758 1074 722 q 1052 826 1074 801 q 994 851 1031 851 q 990 860 990 851 q 994 868 990 868 l 1058 867 q 1150 864 1108 864 q 1214 867 1178 864 l 1274 868 m 639 1136 q 656 1143 646 1143 q 671 1136 664 1143 l 813 975 q 814 972 814 975 q 810 967 814 969 q 806 965 807 964 l 656 1019 l 504 965 q 497 969 501 964 q 496 975 493 974 l 639 1136 z "},"Ẅ":{"ha":1265,"x_min":3,"x_max":1276,"o":"m 1274 868 q 1276 860 1276 868 q 1274 851 1276 851 q 1177 808 1222 851 q 1103 688 1132 764 l 846 1 q 831 -4 844 -4 q 815 1 817 -4 l 638 378 l 497 1 q 482 -4 496 -4 q 467 1 468 -4 l 113 753 q 78 817 92 797 q 49 844 65 836 q 7 851 33 851 q 3 860 3 851 q 7 868 3 868 q 36 867 28 868 q 108 864 64 864 q 265 867 201 864 q 310 868 283 868 q 314 860 314 868 q 310 851 314 851 q 260 844 275 851 q 246 819 246 838 q 278 728 246 796 l 528 197 l 615 426 l 461 753 q 417 827 438 803 q 372 851 396 851 q 368 860 368 851 q 372 868 368 868 q 405 866 386 868 q 458 864 424 864 q 590 867 538 864 q 626 868 604 868 q 631 860 631 868 q 626 851 631 851 q 598 847 607 851 q 589 829 589 842 q 626 728 589 806 l 688 599 l 722 692 q 753 811 753 771 q 718 851 753 851 q 714 860 714 851 q 718 868 714 868 q 742 866 729 868 q 808 864 756 864 q 865 867 832 864 l 917 868 q 919 860 919 868 q 917 851 919 851 q 763 688 824 851 l 711 550 l 878 199 l 1057 678 q 1074 758 1074 722 q 1052 826 1074 801 q 994 851 1031 851 q 990 860 990 851 q 994 868 990 868 l 1058 867 q 1150 864 1108 864 q 1214 867 1178 864 l 1274 868 m 535 976 q 478 997 499 976 q 458 1053 458 1017 q 479 1106 458 1086 q 535 1125 500 1125 q 588 1106 569 1125 q 607 1053 607 1086 q 588 997 607 1017 q 535 976 569 976 m 776 976 q 721 997 740 976 q 701 1053 701 1017 q 722 1105 701 1086 q 776 1124 742 1124 q 830 1105 811 1124 q 849 1053 849 1086 q 830 997 849 1017 q 776 976 811 976 z "},"Ẁ":{"ha":1265,"x_min":3,"x_max":1276,"o":"m 1274 868 q 1276 860 1276 868 q 1274 851 1276 851 q 1177 808 1222 851 q 1103 688 1132 764 l 846 1 q 831 -4 844 -4 q 815 1 817 -4 l 638 378 l 497 1 q 482 -4 496 -4 q 467 1 468 -4 l 113 753 q 78 817 92 797 q 49 844 65 836 q 7 851 33 851 q 3 860 3 851 q 7 868 3 868 q 36 867 28 868 q 108 864 64 864 q 265 867 201 864 q 310 868 283 868 q 314 860 314 868 q 310 851 314 851 q 260 844 275 851 q 246 819 246 838 q 278 728 246 796 l 528 197 l 615 426 l 461 753 q 417 827 438 803 q 372 851 396 851 q 368 860 368 851 q 372 868 368 868 q 405 866 386 868 q 458 864 424 864 q 590 867 538 864 q 626 868 604 868 q 631 860 631 868 q 626 851 631 851 q 598 847 607 851 q 589 829 589 842 q 626 728 589 806 l 688 599 l 722 692 q 753 811 753 771 q 718 851 753 851 q 714 860 714 851 q 718 868 714 868 q 742 866 729 868 q 808 864 756 864 q 865 867 832 864 l 917 868 q 919 860 919 868 q 917 851 919 851 q 763 688 824 851 l 711 550 l 878 199 l 1057 678 q 1074 758 1074 722 q 1052 826 1074 801 q 994 851 1031 851 q 990 860 990 851 q 994 868 990 868 l 1058 867 q 1150 864 1108 864 q 1214 867 1178 864 l 1274 868 m 793 943 q 485 1050 638 1013 q 501 1069 468 1053 q 576 1097 533 1085 q 625 1101 618 1108 l 690 1046 q 799 957 751 993 q 803 951 803 956 q 800 944 803 947 q 793 943 797 942 z "},"X":{"ha":899,"x_min":3,"x_max":899,"o":"m 894 17 q 899 8 899 17 q 894 0 899 0 q 832 1 854 0 l 749 3 l 635 1 q 561 0 608 0 q 557 8 557 0 q 561 17 557 17 q 607 40 607 17 q 594 71 607 53 l 404 365 l 285 194 q 231 71 231 118 q 303 17 231 17 q 306 8 306 17 q 303 0 306 0 q 233 1 257 0 l 131 3 l 65 1 q 7 0 47 0 q 3 8 3 0 q 7 17 3 17 q 113 63 50 17 q 243 203 175 108 l 385 394 l 163 740 q 90 826 125 800 q 17 851 56 851 q 13 860 13 851 q 17 868 13 868 l 76 867 q 135 864 115 864 q 256 867 183 864 l 335 868 q 338 860 338 868 q 335 851 338 851 q 288 828 288 851 q 300 796 288 817 l 483 514 l 594 672 q 649 797 649 750 q 576 851 649 851 q 574 860 574 851 q 576 868 574 868 l 646 867 q 749 864 701 864 q 814 867 778 864 l 872 868 q 876 860 876 868 q 872 851 876 851 q 766 805 828 851 q 635 664 704 758 l 503 483 l 740 115 q 811 40 775 64 q 894 17 847 17 z "},"Y":{"ha":860,"x_min":3,"x_max":871,"o":"m 868 868 q 871 860 871 868 q 868 851 871 851 q 763 798 825 851 q 651 664 700 744 l 507 422 l 507 113 q 514 50 507 69 q 541 24 521 31 q 606 17 561 17 q 610 8 610 17 q 606 0 610 0 q 533 1 560 0 l 429 3 l 326 1 q 251 0 299 0 q 249 8 249 0 q 251 17 249 17 q 317 24 296 17 q 345 51 338 31 q 353 113 353 71 l 353 393 l 150 708 q 65 820 99 789 q 7 851 31 851 q 3 860 3 851 q 7 868 3 868 l 50 867 q 93 864 81 864 q 233 867 142 864 l 325 868 q 328 860 328 868 q 325 851 328 851 q 288 840 301 851 q 275 811 275 829 q 294 758 275 789 l 485 458 l 613 676 q 650 783 650 739 q 630 834 650 817 q 572 851 610 851 q 568 860 568 851 q 572 868 568 868 l 646 867 q 760 864 710 864 q 817 867 783 864 l 868 868 z "},"Ý":{"ha":860,"x_min":3,"x_max":871,"o":"m 868 868 q 871 860 871 868 q 868 851 871 851 q 763 798 825 851 q 651 664 700 744 l 507 422 l 507 113 q 514 50 507 69 q 541 24 521 31 q 606 17 561 17 q 610 8 610 17 q 606 0 610 0 q 533 1 560 0 l 429 3 l 326 1 q 251 0 299 0 q 249 8 249 0 q 251 17 249 17 q 317 24 296 17 q 345 51 338 31 q 353 113 353 71 l 353 393 l 150 708 q 65 820 99 789 q 7 851 31 851 q 3 860 3 851 q 7 868 3 868 l 50 867 q 93 864 81 864 q 233 867 142 864 l 325 868 q 328 860 328 868 q 325 851 328 851 q 288 840 301 851 q 275 811 275 829 q 294 758 275 789 l 485 458 l 613 676 q 650 783 650 739 q 630 834 650 817 q 572 851 610 851 q 568 860 568 851 q 572 868 568 868 l 646 867 q 760 864 710 864 q 817 867 783 864 l 868 868 m 313 942 q 306 948 307 942 q 308 957 304 954 q 421 1049 349 986 q 483 1101 463 1085 q 533 1097 490 1108 q 608 1069 575 1085 q 624 1050 640 1053 q 466 1003 538 1029 q 315 943 394 978 l 313 942 z "},"Ŷ":{"ha":860,"x_min":3,"x_max":871,"o":"m 868 868 q 871 860 871 868 q 868 851 871 851 q 763 798 825 851 q 651 664 700 744 l 507 422 l 507 113 q 514 50 507 69 q 541 24 521 31 q 606 17 561 17 q 610 8 610 17 q 606 0 610 0 q 533 1 560 0 l 429 3 l 326 1 q 251 0 299 0 q 249 8 249 0 q 251 17 249 17 q 317 24 296 17 q 345 51 338 31 q 353 113 353 71 l 353 393 l 150 708 q 65 820 99 789 q 7 851 31 851 q 3 860 3 851 q 7 868 3 868 l 50 867 q 93 864 81 864 q 233 867 142 864 l 325 868 q 328 860 328 868 q 325 851 328 851 q 288 840 301 851 q 275 811 275 829 q 294 758 275 789 l 485 458 l 613 676 q 650 783 650 739 q 630 834 650 817 q 572 851 610 851 q 568 860 568 851 q 572 868 568 868 l 646 867 q 760 864 710 864 q 817 867 783 864 l 868 868 m 435 1136 q 451 1143 442 1143 q 467 1136 460 1143 l 608 975 q 610 972 610 975 q 606 967 610 969 q 601 965 603 964 l 451 1019 l 300 965 q 293 969 297 964 q 292 975 289 974 l 435 1136 z "},"Ÿ":{"ha":860,"x_min":3,"x_max":871,"o":"m 868 868 q 871 860 871 868 q 868 851 871 851 q 763 798 825 851 q 651 664 700 744 l 507 422 l 507 113 q 514 50 507 69 q 541 24 521 31 q 606 17 561 17 q 610 8 610 17 q 606 0 610 0 q 533 1 560 0 l 429 3 l 326 1 q 251 0 299 0 q 249 8 249 0 q 251 17 249 17 q 317 24 296 17 q 345 51 338 31 q 353 113 353 71 l 353 393 l 150 708 q 65 820 99 789 q 7 851 31 851 q 3 860 3 851 q 7 868 3 868 l 50 867 q 93 864 81 864 q 233 867 142 864 l 325 868 q 328 860 328 868 q 325 851 328 851 q 288 840 301 851 q 275 811 275 829 q 294 758 275 789 l 485 458 l 613 676 q 650 783 650 739 q 630 834 650 817 q 572 851 610 851 q 568 860 568 851 q 572 868 568 868 l 646 867 q 760 864 710 864 q 817 867 783 864 l 868 868 m 331 976 q 274 997 294 976 q 254 1053 254 1017 q 275 1106 254 1086 q 331 1125 296 1125 q 384 1106 365 1125 q 403 1053 403 1086 q 384 997 403 1017 q 331 976 365 976 m 572 976 q 517 997 536 976 q 497 1053 497 1017 q 517 1105 497 1086 q 572 1124 538 1124 q 626 1105 607 1124 q 644 1053 644 1086 q 626 997 644 1017 q 572 976 607 976 z "},"Ẏ":{"ha":860,"x_min":3,"x_max":871,"o":"m 868 868 q 871 860 871 868 q 868 851 871 851 q 763 798 825 851 q 651 664 700 744 l 507 422 l 507 113 q 514 50 507 69 q 541 24 521 31 q 606 17 561 17 q 610 8 610 17 q 606 0 610 0 q 533 1 560 0 l 429 3 l 326 1 q 251 0 299 0 q 249 8 249 0 q 251 17 249 17 q 317 24 296 17 q 345 51 338 31 q 353 113 353 71 l 353 393 l 150 708 q 65 820 99 789 q 7 851 31 851 q 3 860 3 851 q 7 868 3 868 l 50 867 q 93 864 81 864 q 233 867 142 864 l 325 868 q 328 860 328 868 q 325 851 328 851 q 288 840 301 851 q 275 811 275 829 q 294 758 275 789 l 485 458 l 613 676 q 650 783 650 739 q 630 834 650 817 q 572 851 610 851 q 568 860 568 851 q 572 868 568 868 l 646 867 q 760 864 710 864 q 817 867 783 864 l 868 868 m 451 990 q 389 1013 411 990 q 367 1075 367 1036 q 390 1133 367 1111 q 451 1156 413 1156 q 510 1134 489 1156 q 532 1075 532 1113 q 511 1013 532 1035 q 451 990 490 990 z "},"Ỵ":{"ha":860,"x_min":3,"x_max":871,"o":"m 868 868 q 871 860 871 868 q 868 851 871 851 q 763 798 825 851 q 651 664 700 744 l 507 422 l 507 113 q 514 50 507 69 q 541 24 521 31 q 606 17 561 17 q 610 8 610 17 q 606 0 610 0 q 533 1 560 0 l 429 3 l 326 1 q 251 0 299 0 q 249 8 249 0 q 251 17 249 17 q 317 24 296 17 q 345 51 338 31 q 353 113 353 71 l 353 393 l 150 708 q 65 820 99 789 q 7 851 31 851 q 3 860 3 851 q 7 868 3 868 l 50 867 q 93 864 81 864 q 233 867 142 864 l 325 868 q 328 860 328 868 q 325 851 328 851 q 288 840 301 851 q 275 811 275 829 q 294 758 275 789 l 485 458 l 613 676 q 650 783 650 739 q 630 834 650 817 q 572 851 610 851 q 568 860 568 851 q 572 868 568 868 l 646 867 q 760 864 710 864 q 817 867 783 864 l 868 868 m 432 -287 q 369 -265 392 -287 q 347 -203 347 -243 q 370 -145 347 -167 q 432 -124 393 -124 q 491 -145 469 -124 q 513 -203 513 -167 q 492 -265 513 -243 q 432 -287 471 -287 z "},"Ỳ":{"ha":860,"x_min":3,"x_max":871,"o":"m 868 868 q 871 860 871 868 q 868 851 871 851 q 763 798 825 851 q 651 664 700 744 l 507 422 l 507 113 q 514 50 507 69 q 541 24 521 31 q 606 17 561 17 q 610 8 610 17 q 606 0 610 0 q 533 1 560 0 l 429 3 l 326 1 q 251 0 299 0 q 249 8 249 0 q 251 17 249 17 q 317 24 296 17 q 345 51 338 31 q 353 113 353 71 l 353 393 l 150 708 q 65 820 99 789 q 7 851 31 851 q 3 860 3 851 q 7 868 3 868 l 50 867 q 93 864 81 864 q 233 867 142 864 l 325 868 q 328 860 328 868 q 325 851 328 851 q 288 840 301 851 q 275 811 275 829 q 294 758 275 789 l 485 458 l 613 676 q 650 783 650 739 q 630 834 650 817 q 572 851 610 851 q 568 860 568 851 q 572 868 568 868 l 646 867 q 760 864 710 864 q 817 867 783 864 l 868 868 m 589 943 q 281 1050 433 1013 q 297 1069 264 1053 q 372 1097 329 1085 q 421 1101 414 1108 l 486 1046 q 594 957 547 993 q 599 951 599 956 q 596 944 599 947 q 589 943 593 942 z "},"Ỷ":{"ha":860,"x_min":3,"x_max":871,"o":"m 868 868 q 871 860 871 868 q 868 851 871 851 q 763 798 825 851 q 651 664 700 744 l 507 422 l 507 113 q 514 50 507 69 q 541 24 521 31 q 606 17 561 17 q 610 8 610 17 q 606 0 610 0 q 533 1 560 0 l 429 3 l 326 1 q 251 0 299 0 q 249 8 249 0 q 251 17 249 17 q 317 24 296 17 q 345 51 338 31 q 353 113 353 71 l 353 393 l 150 708 q 65 820 99 789 q 7 851 31 851 q 3 860 3 851 q 7 868 3 868 l 50 867 q 93 864 81 864 q 233 867 142 864 l 325 868 q 328 860 328 868 q 325 851 328 851 q 288 840 301 851 q 275 811 275 829 q 294 758 275 789 l 485 458 l 613 676 q 650 783 650 739 q 630 834 650 817 q 572 851 610 851 q 568 860 568 851 q 572 868 568 868 l 646 867 q 760 864 710 864 q 817 867 783 864 l 868 868 m 451 904 q 444 901 451 901 q 435 904 436 901 q 432 935 432 926 q 453 1021 432 974 q 463 1048 454 1025 q 471 1096 471 1071 q 432 1146 471 1146 q 382 1132 413 1146 l 379 1132 q 372 1136 375 1132 q 372 1143 368 1140 q 486 1182 419 1182 q 557 1163 531 1182 q 583 1110 583 1143 q 565 1056 583 1081 q 511 996 547 1032 q 465 944 479 963 q 451 904 451 925 z "},"Ȳ":{"ha":860,"x_min":3,"x_max":871,"o":"m 868 868 q 871 860 871 868 q 868 851 871 851 q 763 798 825 851 q 651 664 700 744 l 507 422 l 507 113 q 514 50 507 69 q 541 24 521 31 q 606 17 561 17 q 610 8 610 17 q 606 0 610 0 q 533 1 560 0 l 429 3 l 326 1 q 251 0 299 0 q 249 8 249 0 q 251 17 249 17 q 317 24 296 17 q 345 51 338 31 q 353 113 353 71 l 353 393 l 150 708 q 65 820 99 789 q 7 851 31 851 q 3 860 3 851 q 7 868 3 868 l 50 867 q 93 864 81 864 q 233 867 142 864 l 325 868 q 328 860 328 868 q 325 851 328 851 q 288 840 301 851 q 275 811 275 829 q 294 758 275 789 l 485 458 l 613 676 q 650 783 650 739 q 630 834 650 817 q 572 851 610 851 q 568 860 568 851 q 572 868 568 868 l 646 867 q 760 864 710 864 q 817 867 783 864 l 868 868 m 275 990 q 265 998 269 990 q 261 1017 261 1006 q 265 1034 261 1026 q 275 1042 269 1042 l 624 1042 q 635 1034 631 1042 q 639 1017 639 1026 q 635 998 639 1006 q 624 990 631 990 l 275 990 z "},"Ỹ":{"ha":860,"x_min":3,"x_max":871,"o":"m 868 868 q 871 860 871 868 q 868 851 871 851 q 763 798 825 851 q 651 664 700 744 l 507 422 l 507 113 q 514 50 507 69 q 541 24 521 31 q 606 17 561 17 q 610 8 610 17 q 606 0 610 0 q 533 1 560 0 l 429 3 l 326 1 q 251 0 299 0 q 249 8 249 0 q 251 17 249 17 q 317 24 296 17 q 345 51 338 31 q 353 113 353 71 l 353 393 l 150 708 q 65 820 99 789 q 7 851 31 851 q 3 860 3 851 q 7 868 3 868 l 50 867 q 93 864 81 864 q 233 867 142 864 l 325 868 q 328 860 328 868 q 325 851 328 851 q 288 840 301 851 q 275 811 275 829 q 294 758 275 789 l 485 458 l 613 676 q 650 783 650 739 q 630 834 650 817 q 572 851 610 851 q 568 860 568 851 q 572 868 568 868 l 646 867 q 760 864 710 864 q 817 867 783 864 l 868 868 m 563 1057 q 601 1065 586 1057 q 633 1094 615 1074 l 635 1094 q 642 1091 639 1094 q 643 1085 646 1088 q 583 995 607 1018 q 528 972 558 972 q 450 988 501 972 q 413 997 444 989 q 354 1006 382 1006 q 317 999 328 1006 q 283 968 306 992 l 282 968 q 274 972 278 968 q 272 978 271 975 q 328 1058 299 1025 q 394 1090 358 1090 q 458 1076 408 1090 q 500 1066 467 1075 q 563 1057 533 1057 z "},"Z":{"ha":840,"x_min":78,"x_max":788,"o":"m 571 833 q 574 842 575 840 q 564 844 574 844 q 323 833 406 844 q 188 783 240 821 q 96 664 135 744 q 90 663 94 663 q 79 668 78 663 l 135 910 q 140 911 135 911 q 151 907 154 911 q 150 896 150 903 q 166 874 150 879 q 231 868 182 868 l 738 868 q 748 861 744 868 q 747 850 751 854 l 267 38 q 263 28 261 31 q 272 26 264 26 l 553 26 q 650 52 603 26 q 731 121 697 78 q 772 213 764 164 q 781 217 774 217 q 788 213 788 217 l 768 11 q 765 2 768 7 q 756 -3 761 -3 q 90 0 549 0 q 82 6 85 0 q 83 18 79 13 l 571 833 z "},"Ź":{"ha":840,"x_min":79,"x_max":788,"o":"m 571 833 q 574 842 575 840 q 564 844 574 844 q 323 833 406 844 q 188 783 240 821 q 96 664 135 744 q 90 663 94 663 q 79 668 78 663 l 135 910 q 140 911 135 911 q 151 907 154 911 q 150 896 150 903 q 166 874 150 879 q 231 868 182 868 l 738 868 q 748 861 744 868 q 747 850 751 854 l 267 38 q 263 28 261 31 q 272 26 264 26 l 553 26 q 650 52 603 26 q 731 121 697 78 q 772 213 764 164 q 781 217 774 217 q 788 213 788 217 l 768 11 q 765 2 768 7 q 756 -3 761 -3 q 90 0 549 0 q 82 6 85 0 q 83 18 79 13 l 571 833 m 306 942 q 299 948 300 942 q 301 957 297 954 q 414 1049 342 986 q 476 1101 456 1085 q 526 1097 483 1108 q 601 1069 568 1085 q 617 1050 633 1053 q 459 1003 531 1029 q 308 943 388 978 l 306 942 z "},"Ž":{"ha":840,"x_min":79,"x_max":788,"o":"m 571 833 q 574 842 575 840 q 564 844 574 844 q 323 833 406 844 q 188 783 240 821 q 96 664 135 744 q 90 663 94 663 q 79 668 78 663 l 135 910 q 140 911 135 911 q 151 907 154 911 q 150 896 150 903 q 166 874 150 879 q 231 868 182 868 l 738 868 q 748 861 744 868 q 747 850 751 854 l 267 38 q 263 28 261 31 q 272 26 264 26 l 553 26 q 650 52 603 26 q 731 121 697 78 q 772 213 764 164 q 781 217 774 217 q 788 213 788 217 l 768 11 q 765 2 768 7 q 756 -3 761 -3 q 90 0 549 0 q 82 6 85 0 q 83 18 79 13 l 571 833 m 283 1114 l 283 1117 q 287 1122 283 1119 q 292 1124 290 1125 l 443 1071 l 593 1126 l 594 1126 q 601 1123 599 1126 q 600 1117 603 1119 l 458 954 q 443 949 453 949 q 426 954 432 949 l 283 1114 z "},"Ż":{"ha":840,"x_min":79,"x_max":788,"o":"m 571 833 q 574 842 575 840 q 564 844 574 844 q 323 833 406 844 q 188 783 240 821 q 96 664 135 744 q 90 663 94 663 q 79 668 78 663 l 135 910 q 140 911 135 911 q 151 907 154 911 q 150 896 150 903 q 166 874 150 879 q 231 868 182 868 l 738 868 q 748 861 744 868 q 747 850 751 854 l 267 38 q 263 28 261 31 q 272 26 264 26 l 553 26 q 650 52 603 26 q 731 121 697 78 q 772 213 764 164 q 781 217 774 217 q 788 213 788 217 l 768 11 q 765 2 768 7 q 756 -3 761 -3 q 90 0 549 0 q 82 6 85 0 q 83 18 79 13 l 571 833 m 444 990 q 382 1013 404 990 q 360 1075 360 1036 q 383 1133 360 1111 q 444 1156 406 1156 q 503 1134 482 1156 q 525 1075 525 1113 q 504 1013 525 1035 q 444 990 483 990 z "},"Ẓ":{"ha":840,"x_min":79,"x_max":788,"o":"m 571 833 q 574 842 575 840 q 564 844 574 844 q 323 833 406 844 q 188 783 240 821 q 96 664 135 744 q 90 663 94 663 q 79 668 78 663 l 135 910 q 140 911 135 911 q 151 907 154 911 q 150 896 150 903 q 166 874 150 879 q 231 868 182 868 l 738 868 q 748 861 744 868 q 747 850 751 854 l 267 38 q 263 28 261 31 q 272 26 264 26 l 553 26 q 650 52 603 26 q 731 121 697 78 q 772 213 764 164 q 781 217 774 217 q 788 213 788 217 l 768 11 q 765 2 768 7 q 756 -3 761 -3 q 90 0 549 0 q 82 6 85 0 q 83 18 79 13 l 571 833 m 422 -287 q 360 -265 382 -287 q 338 -203 338 -243 q 360 -145 338 -167 q 422 -124 383 -124 q 481 -145 460 -124 q 503 -203 503 -167 q 482 -265 503 -243 q 422 -287 461 -287 z "}}}
